<svg xmlns="http://www.w3.org/2000/svg" xmlns:xlink="http://www.w3.org/1999/xlink" width="500" zoomAndPan="magnify" viewBox="0 0 375 374.999991" height="500" preserveAspectRatio="xMidYMid meet" version="1.2"><defs><clipPath id="027341e87a"><path d="M 7 62 L 368.664062 62 L 368.664062 312.964844 L 7 312.964844 Z M 7 62 "/></clipPath></defs><g id="48d8b938bb"><g clip-rule="nonzero" clip-path="url(#027341e87a)"><path style=" stroke:none;fill-rule:nonzero;fill:#020204;fill-opacity:1;" d="M 368.21875 250.660156 C 368.054688 253.144531 367.382812 255.746094 365.726562 257.667969 C 364.917969 258.597656 363.640625 258.757812 362.511719 258.980469 C 361.902344 260.136719 361.207031 261.441406 359.894531 261.910156 C 358.734375 262.414062 357.519531 261.890625 356.394531 261.574219 C 355.332031 262.351562 354.140625 263.191406 352.75 262.96875 C 351.007812 262.929688 349.824219 261.316406 349.480469 259.757812 C 348.734375 256.375 349.621094 252.941406 349.917969 249.5625 C 348.535156 251.4375 347.789062 253.800781 345.914062 255.285156 C 344.550781 256.375 342.289062 256.195312 341.253906 254.746094 C 339.90625 252.925781 339.941406 250.5 340.265625 248.363281 C 340.960938 244.511719 342.777344 240.742188 345.824219 238.203125 C 347.261719 236.984375 349.058594 236.351562 350.785156 235.660156 C 349.453125 224.808594 344.714844 214.117188 336.449219 206.785156 C 334.222656 220.230469 332.910156 233.835938 330.902344 247.320312 C 329.839844 252.945312 325.109375 256.914062 320.296875 259.464844 C 312.304688 263.632812 303.367188 265.386719 294.566406 266.921875 C 297.488281 272.53125 301.160156 277.714844 304.917969 282.78125 C 307.679688 286.542969 310.9375 289.898438 314.117188 293.296875 C 315.535156 294.863281 317.132812 296.890625 316.4375 299.136719 C 315.644531 301.769531 313.089844 303.226562 310.949219 304.675781 C 305.753906 307.8125 300.140625 310.417969 294.179688 311.671875 C 291.53125 312.132812 288.519531 312.742188 286.101562 311.214844 C 283.996094 309.9375 283.40625 307.113281 284.136719 304.878906 C 285.414062 300.558594 289.101562 297.394531 293.054688 295.507812 C 296.09375 293.960938 299.457031 293.253906 302.828125 292.890625 C 301.617188 290.867188 299.980469 289.15625 298.644531 287.226562 C 294.207031 281.054688 290.160156 274.59375 286.589844 267.890625 C 277.617188 268.738281 268.574219 268.535156 259.597656 267.859375 C 251.863281 278.824219 244.964844 290.363281 238.832031 302.289062 C 237.859375 304.226562 236.234375 306.1875 233.90625 306.34375 C 230.90625 306.511719 228.40625 304.535156 226.136719 302.835938 C 221.230469 298.882812 216.542969 294.296875 213.917969 288.476562 C 212.753906 285.785156 212.089844 282.292969 214.007812 279.785156 C 215.96875 277.453125 219.378906 276.65625 222.292969 277.292969 C 225.628906 278.019531 228.429688 280.222656 230.644531 282.738281 C 232.847656 285.3125 234.683594 288.222656 235.890625 291.390625 C 237.492188 288.875 238.792969 286.179688 240.355469 283.648438 C 243.65625 277.820312 247.640625 272.433594 251.332031 266.859375 C 242.785156 265.296875 234.074219 263.625 226.3125 259.5625 C 221.714844 257.046875 217.175781 253.285156 215.964844 247.964844 C 213.878906 233.863281 212.601562 219.644531 210.460938 205.554688 C 205.863281 209.519531 202.5 214.742188 199.636719 220.050781 C 198.011719 223.09375 196.78125 226.324219 195.882812 229.652344 C 197.332031 230.496094 199.136719 231.207031 199.785156 232.902344 C 200.5625 234.933594 199.933594 237.132812 199.410156 239.148438 C 198.792969 241.535156 198.527344 244.1875 196.84375 246.121094 C 196.097656 247.015625 194.898438 247.199219 193.832031 247.433594 C 193.40625 249.453125 193.105469 251.710938 191.558594 253.230469 C 190.089844 254.675781 187.539062 254.324219 186.144531 252.953125 C 184.582031 251.476562 184.097656 249.308594 183.476562 247.335938 C 181.960938 247.605469 180.234375 248.40625 178.804688 247.457031 C 177.3125 246.609375 177.011719 244.796875 176.714844 243.261719 C 174.878906 243.265625 173.082031 242.207031 172.652344 240.351562 C 171.949219 238.21875 173.441406 236.347656 174.265625 234.511719 C 173.65625 233.050781 172.195312 231.75 172.660156 229.988281 C 173.007812 227.273438 175.386719 225.679688 177.597656 224.5 C 176.371094 220.644531 174.507812 217.015625 172.273438 213.652344 C 170.082031 210.535156 167.691406 207.4375 164.507812 205.273438 C 162.738281 216.996094 161.46875 228.792969 160 240.554688 C 159.457031 244.632812 159.335938 249.015625 156.890625 252.519531 C 153.71875 257.082031 148.464844 259.460938 143.519531 261.585938 C 137.226562 264.035156 130.621094 265.628906 123.9375 266.542969 C 123.886719 266.667969 123.777344 266.929688 123.730469 267.0625 C 129.253906 276.796875 135.996094 285.867188 143.839844 293.863281 C 145.089844 295.257812 146.128906 297.242188 145.421875 299.136719 C 144.582031 301.644531 142.210938 303.132812 140.164062 304.578125 C 134.40625 308.285156 127.894531 310.980469 121.09375 311.953125 C 118.425781 312.304688 115.003906 312.0625 113.472656 309.5 C 112.082031 306.933594 113.160156 303.828125 114.757812 301.609375 C 118.699219 296.136719 125.460938 293.335938 132.054688 292.917969 C 126.039062 284.855469 120.253906 276.578125 115.53125 267.675781 C 106.53125 268.421875 97.46875 268.535156 88.46875 267.710938 C 83.648438 274.277344 79.457031 281.277344 75.214844 288.226562 C 72.539062 292.65625 70.183594 297.269531 67.714844 301.824219 C 66.570312 303.859375 64.980469 306.292969 62.328125 306.210938 C 59.21875 306.078125 56.726562 303.925781 54.359375 302.117188 C 49.324219 297.953125 44.421875 293.066406 42.300781 286.71875 C 41.5625 284.289062 41.25 281.164062 43.253906 279.230469 C 45.832031 276.808594 49.933594 276.171875 53.136719 277.699219 C 58.734375 280.21875 62.402344 285.664062 64.671875 291.175781 C 69.382812 282.730469 74.710938 274.652344 80.132812 266.648438 C 70.789062 265.257812 61.296875 263.261719 53.007812 258.550781 C 48.667969 256.027344 44.671875 252.074219 43.941406 246.894531 C 42.496094 235.613281 41.105469 224.320312 39.699219 213.027344 C 39.371094 210.738281 39.132812 208.429688 38.636719 206.167969 C 30.894531 213.746094 25.832031 223.941406 24.394531 234.667969 C 30.308594 236.40625 34.625 242.179688 34.757812 248.3125 C 34.792969 250.078125 34.585938 251.984375 33.507812 253.445312 C 32.515625 254.800781 30.390625 255.097656 29.078125 254.050781 C 27.320312 252.699219 26.308594 250.679688 25.214844 248.8125 C 25.730469 251.640625 26.28125 254.535156 25.878906 257.410156 C 25.578125 259.386719 24.097656 261.5 21.925781 261.523438 C 20.703125 261.621094 19.714844 260.816406 18.660156 260.351562 C 17.320312 260.308594 15.875 260.933594 14.621094 260.214844 C 13.6875 259.605469 13.164062 258.578125 12.554688 257.691406 C 10.949219 257.453125 9.441406 256.640625 8.726562 255.128906 C 4.9375 248.105469 7.710938 237.558594 15.523438 234.621094 C 15.972656 234.367188 16.75 234.25 16.734375 233.585938 C 18.625 219.464844 25.84375 205.78125 37.542969 197.382812 C 34.484375 173.519531 31.710938 149.613281 28.6875 125.738281 C 27.109375 113.601562 25.824219 101.425781 24.25 89.285156 C 23.675781 85.683594 25.097656 81.933594 27.628906 79.355469 C 30.105469 76.824219 33.121094 74.867188 36.304688 73.339844 C 43.484375 69.832031 51.285156 67.835938 59.066406 66.195312 C 73.574219 63.335938 88.394531 62.28125 103.160156 62.390625 C 116.003906 62.375 128.859375 63.460938 141.503906 65.730469 C 149.023438 67.167969 156.507812 69.007812 163.585938 71.972656 C 168.371094 73.992188 173.15625 76.523438 176.53125 80.582031 C 178.421875 82.84375 179.460938 85.863281 178.914062 88.800781 C 174.839844 121.347656 170.703125 153.871094 166.703125 186.417969 C 166.335938 189.628906 165.757812 192.8125 165.582031 196.050781 C 165.429688 196.832031 166.351562 197.128906 166.828125 197.554688 C 175.308594 203.296875 181.453125 212.027344 184.992188 221.5625 C 186.671875 221.453125 188.363281 221.664062 189.921875 222.351562 C 194.160156 212.5 200.214844 202.902344 209.394531 196.980469 C 205.472656 161.683594 200.679688 126.476562 196.664062 91.1875 C 196.398438 88.660156 195.910156 85.976562 196.96875 83.566406 C 198.605469 79.511719 202.296875 76.777344 205.917969 74.605469 C 212.976562 70.675781 220.808594 68.355469 228.679688 66.707031 C 240.050781 64.207031 251.679688 63.171875 263.285156 62.566406 C 283.726562 61.882812 304.414062 63.03125 324.269531 68.214844 C 330.230469 69.773438 336.09375 71.835938 341.519531 74.777344 C 345.273438 77.007812 349.039062 79.898438 350.601562 84.132812 C 351.34375 85.957031 351.242188 87.960938 350.996094 89.878906 C 348.316406 112.574219 345.503906 135.253906 342.519531 157.921875 C 340.726562 171.21875 339.039062 184.53125 337.433594 197.839844 C 349.09375 205.683594 356.339844 218.988281 358.222656 232.75 C 358.46875 233.601562 358.210938 234.988281 359.335938 235.269531 C 365.503906 237.480469 368.691406 244.410156 368.21875 250.660156 Z M 368.21875 250.660156 "/><path style=" stroke:none;fill-rule:nonzero;fill:#020204;fill-opacity:1;" d="M 359.332031 235.265625 C 358.210938 234.988281 358.464844 233.601562 358.21875 232.75 C 356.339844 218.984375 349.089844 205.6875 337.433594 197.84375 C 339.035156 184.527344 340.722656 171.214844 342.515625 157.917969 C 345.503906 135.257812 348.316406 112.574219 351 89.875 C 351.238281 87.960938 351.34375 85.957031 350.597656 84.132812 C 349.039062 79.898438 345.273438 77.003906 341.519531 74.777344 C 336.09375 71.839844 330.226562 69.777344 324.265625 68.214844 C 304.414062 63.035156 283.722656 61.882812 263.285156 62.566406 C 251.679688 63.171875 240.046875 64.207031 228.679688 66.710938 C 220.808594 68.355469 212.976562 70.675781 205.921875 74.601562 C 202.296875 76.78125 198.605469 79.511719 196.96875 83.5625 C 195.90625 85.980469 196.398438 88.660156 196.664062 91.1875 C 200.675781 126.476562 205.472656 161.683594 209.394531 196.976562 C 200.214844 202.90625 194.160156 212.5 189.917969 222.355469 C 188.363281 221.664062 186.671875 221.449219 184.988281 221.566406 C 181.453125 212.027344 175.308594 203.296875 166.828125 197.554688 C 166.347656 197.128906 165.425781 196.835938 165.582031 196.046875 C 165.757812 192.816406 166.335938 189.628906 166.703125 186.421875 C 170.703125 153.871094 174.835938 121.34375 178.914062 88.804688 C 179.457031 85.859375 178.417969 82.84375 176.527344 80.582031 C 173.15625 76.523438 168.371094 73.992188 163.582031 71.972656 C 156.507812 69.011719 149.023438 67.167969 141.503906 65.730469 C 128.855469 63.464844 116.003906 62.378906 103.15625 62.390625 C 88.390625 62.28125 73.574219 63.335938 59.066406 66.195312 C 51.28125 67.835938 43.484375 69.832031 36.304688 73.335938 C 33.121094 74.863281 30.101562 76.820312 27.625 79.355469 C 25.097656 81.933594 23.675781 85.683594 24.25 89.285156 C 25.824219 101.425781 27.105469 113.601562 28.691406 125.738281 C 31.707031 149.613281 34.484375 173.515625 37.539062 197.378906 C 25.839844 205.78125 18.625 219.464844 16.734375 233.589844 C 16.75 234.253906 15.972656 234.367188 15.519531 234.621094 C 7.710938 237.558594 4.9375 248.105469 8.726562 255.128906 C 9.441406 256.640625 10.949219 257.457031 12.554688 257.691406 C 13.164062 258.578125 13.6875 259.605469 14.621094 260.214844 C 15.878906 260.929688 17.316406 260.308594 18.65625 260.351562 C 19.710938 260.816406 20.703125 261.617188 21.921875 261.523438 C 24.097656 261.5 25.574219 259.386719 25.878906 257.410156 C 26.277344 254.53125 25.730469 251.640625 25.210938 248.8125 C 26.308594 250.675781 27.324219 252.699219 29.074219 254.050781 C 30.390625 255.097656 32.515625 254.800781 33.507812 253.445312 C 34.585938 251.984375 34.792969 250.078125 34.757812 248.3125 C 34.621094 242.183594 30.308594 236.40625 24.390625 234.664062 C 25.832031 223.945312 30.894531 213.746094 38.636719 206.167969 C 39.128906 208.433594 39.371094 210.738281 39.699219 213.03125 C 41.101562 224.320312 42.492188 235.613281 43.9375 246.894531 C 44.671875 252.074219 48.667969 256.027344 53.007812 258.546875 C 61.296875 263.265625 70.789062 265.257812 80.132812 266.648438 C 74.710938 274.652344 69.386719 282.730469 64.667969 291.175781 C 62.402344 285.660156 58.734375 280.21875 53.136719 277.699219 C 49.933594 276.171875 45.832031 276.808594 43.25 279.230469 C 41.25 281.164062 41.558594 284.285156 42.300781 286.71875 C 44.421875 293.0625 49.320312 297.953125 54.355469 302.121094 C 56.722656 303.925781 59.214844 306.078125 62.328125 306.214844 C 64.980469 306.292969 66.574219 303.859375 67.714844 301.824219 C 70.183594 297.273438 72.535156 292.660156 75.214844 288.226562 C 79.457031 281.277344 83.648438 274.277344 88.46875 267.710938 C 97.46875 268.535156 106.53125 268.421875 115.53125 267.679688 C 120.253906 276.582031 126.035156 284.855469 132.054688 292.921875 C 125.460938 293.339844 118.695312 296.136719 114.753906 301.613281 C 113.164062 303.828125 112.082031 306.933594 113.46875 309.5 C 115.003906 312.0625 118.425781 312.308594 121.089844 311.953125 C 127.894531 310.976562 134.402344 308.285156 140.164062 304.578125 C 142.210938 303.128906 144.582031 301.644531 145.421875 299.136719 C 146.128906 297.238281 145.089844 295.257812 143.839844 293.867188 C 135.996094 285.867188 129.25 276.796875 123.726562 267.058594 C 123.777344 266.929688 123.882812 266.671875 123.9375 266.542969 C 130.617188 265.625 137.226562 264.035156 143.519531 261.585938 C 148.464844 259.460938 153.71875 257.082031 156.890625 252.519531 C 159.335938 249.019531 159.453125 244.632812 159.996094 240.550781 C 161.46875 228.789062 162.738281 216.996094 164.503906 205.273438 C 167.695312 207.4375 170.082031 210.53125 172.273438 213.652344 C 174.511719 217.011719 176.367188 220.644531 177.597656 224.5 C 175.386719 225.679688 173.007812 227.277344 172.660156 229.988281 C 172.195312 231.75 173.65625 233.046875 174.265625 234.515625 C 173.441406 236.347656 171.949219 238.21875 172.652344 240.351562 C 173.082031 242.207031 174.878906 243.265625 176.710938 243.261719 C 177.011719 244.796875 177.308594 246.605469 178.804688 247.453125 C 180.234375 248.40625 181.960938 247.605469 183.480469 247.335938 C 184.097656 249.304688 184.585938 251.480469 186.144531 252.957031 C 187.539062 254.324219 190.089844 254.675781 191.558594 253.230469 C 193.101562 251.707031 193.40625 249.453125 193.832031 247.433594 C 194.898438 247.199219 196.09375 247.015625 196.84375 246.121094 C 198.527344 244.1875 198.792969 241.535156 199.40625 239.148438 C 199.929688 237.132812 200.5625 234.9375 199.789062 232.90625 C 199.136719 231.210938 197.332031 230.5 195.882812 229.65625 C 196.777344 226.328125 198.011719 223.097656 199.636719 220.050781 C 202.503906 214.746094 205.859375 209.523438 210.460938 205.554688 C 212.601562 219.644531 213.878906 233.863281 215.960938 247.964844 C 217.171875 253.285156 221.714844 257.046875 226.308594 259.558594 C 234.070312 263.625 242.785156 265.300781 251.332031 266.859375 C 247.640625 272.433594 243.65625 277.824219 240.355469 283.648438 C 238.792969 286.183594 237.492188 288.875 235.890625 291.390625 C 234.683594 288.21875 232.84375 285.3125 230.640625 282.738281 C 228.425781 280.222656 225.628906 278.019531 222.289062 277.289062 C 219.375 276.65625 215.96875 277.453125 214.003906 279.789062 C 212.089844 282.292969 212.757812 285.785156 213.917969 288.476562 C 216.539062 294.296875 221.230469 298.886719 226.136719 302.835938 C 228.402344 304.535156 230.902344 306.511719 233.910156 306.34375 C 236.234375 306.1875 237.859375 304.226562 238.832031 302.285156 C 244.964844 290.363281 251.863281 278.820312 259.597656 267.863281 C 268.574219 268.535156 277.617188 268.738281 286.589844 267.890625 C 290.160156 274.59375 294.207031 281.054688 298.640625 287.226562 C 299.980469 289.152344 301.613281 290.867188 302.824219 292.890625 C 299.457031 293.25 296.089844 293.960938 293.054688 295.507812 C 289.101562 297.394531 285.410156 300.558594 284.136719 304.878906 C 283.40625 307.113281 283.996094 309.9375 286.101562 311.214844 C 288.523438 312.742188 291.53125 312.132812 294.179688 311.667969 C 300.140625 310.417969 305.753906 307.808594 310.945312 304.675781 C 313.085938 303.230469 315.644531 301.769531 316.4375 299.136719 C 317.132812 296.890625 315.53125 294.859375 314.121094 293.296875 C 310.9375 289.894531 307.679688 286.546875 304.917969 282.78125 C 301.160156 277.710938 297.492188 272.527344 294.5625 266.921875 C 303.363281 265.386719 312.304688 263.632812 320.292969 259.464844 C 325.105469 256.910156 329.839844 252.945312 330.902344 247.320312 C 332.910156 233.835938 334.222656 220.230469 336.445312 206.78125 C 344.714844 214.117188 349.453125 224.808594 350.78125 235.660156 C 349.058594 236.351562 347.257812 236.984375 345.824219 238.203125 C 342.773438 240.742188 340.960938 244.511719 340.265625 248.363281 C 339.9375 250.5 339.90625 252.925781 341.25 254.746094 C 342.292969 256.195312 344.546875 256.375 345.910156 255.285156 C 347.789062 253.804688 348.535156 251.4375 349.914062 249.5625 C 349.621094 252.941406 348.730469 256.375 349.480469 259.757812 C 349.824219 261.316406 351.007812 262.929688 352.746094 262.964844 C 354.140625 263.191406 355.332031 262.351562 356.394531 261.574219 C 357.515625 261.894531 358.734375 262.417969 359.894531 261.910156 C 361.207031 261.441406 361.898438 260.136719 362.511719 258.984375 C 363.640625 258.757812 364.917969 258.597656 365.722656 257.667969 C 367.382812 255.746094 368.054688 253.144531 368.21875 250.660156 C 368.691406 244.410156 365.503906 237.480469 359.332031 235.265625 Z M 143.191406 133.9375 C 138.484375 134.640625 133.847656 135.90625 129.078125 136.140625 C 130.304688 130.113281 131.722656 124.105469 133.464844 118.207031 C 136.007812 117.109375 138.839844 116.851562 141.5 116.101562 C 145.820312 115.242188 150.085938 113.941406 154.496094 113.601562 C 153.976562 117.609375 152.964844 121.53125 152.4375 125.539062 C 152.242188 126.515625 152.535156 127.472656 152.964844 128.347656 C 154.125 128.476562 155.59375 129.535156 156.554688 128.433594 C 157.296875 127.664062 157.585938 126.597656 157.839844 125.589844 C 158.59375 122.195312 158.960938 118.730469 159.609375 115.320312 C 162.757812 116.84375 165.722656 119.195312 167.328125 122.351562 C 168.152344 123.835938 167.171875 125.460938 166.1875 126.582031 C 163.386719 129.695312 159.542969 131.644531 155.636719 132.996094 C 152.605469 134.035156 149.546875 135.082031 146.363281 135.53125 C 146.371094 135.21875 146.386719 134.589844 146.394531 134.28125 C 145.363281 133.9375 144.273438 133.734375 143.191406 133.9375 Z M 30.019531 86.511719 C 30.675781 84.074219 32.78125 82.390625 34.730469 80.953125 C 40.851562 76.75 48.105469 74.664062 55.246094 72.945312 C 61.25 71.582031 67.34375 70.621094 73.449219 69.839844 C 86.636719 68.253906 99.957031 68.074219 113.222656 68.46875 C 118.257812 68.734375 123.300781 69.054688 128.304688 69.707031 C 140.273438 71.050781 152.351562 73.164062 163.414062 78.109375 C 166.910156 79.835938 170.730469 81.824219 172.613281 85.410156 C 173.652344 87.15625 172.78125 89.257812 171.40625 90.527344 C 168.105469 93.828125 163.679688 95.664062 159.382812 97.289062 C 157.492188 97.902344 155.632812 98.710938 153.652344 98.957031 C 152.554688 98.777344 151.578125 98.214844 150.550781 97.832031 C 142.992188 94.894531 134.917969 93.746094 126.984375 92.277344 C 125.132812 92.117188 123.304688 91.75 121.457031 91.542969 C 120.570312 88.785156 120.519531 85.808594 119.433594 83.113281 C 118.691406 81.195312 116.378906 80.910156 114.589844 80.792969 C 105.808594 80.59375 97.023438 80.984375 88.257812 81.421875 C 86.632812 81.640625 84.625 81.488281 83.503906 82.921875 C 82.015625 84.9375 81.230469 87.359375 80.125 89.59375 C 78.84375 89.816406 77.5625 90.03125 76.292969 90.3125 C 67.21875 92.410156 58.128906 94.6875 49.605469 98.519531 C 48.347656 99.214844 46.980469 98.429688 45.738281 98.09375 C 41.199219 96.492188 36.589844 94.734375 32.757812 91.75 C 31.21875 90.492188 29.550781 88.675781 30.019531 86.511719 Z M 117.453125 101.257812 C 120.296875 101.898438 123.132812 102.734375 125.691406 104.164062 C 122.488281 104.53125 119.269531 104.664062 116.046875 104.695312 C 116.453125 103.527344 116.925781 102.382812 117.453125 101.257812 Z M 113.707031 97.0625 C 112.128906 99.609375 111.164062 102.46875 110.0625 105.242188 C 104.28125 105.46875 98.476562 105.480469 92.703125 105.210938 C 91.609375 101.992188 90.78125 98.691406 89.621094 95.492188 C 88.707031 92.773438 87.542969 90.148438 86.636719 87.421875 C 88.617188 87.121094 90.617188 86.992188 92.609375 86.910156 C 99.921875 86.644531 107.246094 86.503906 114.5625 86.589844 C 115.167969 89.449219 115.742188 92.324219 116.222656 95.214844 C 115.292969 95.683594 114.257812 96.121094 113.707031 97.0625 Z M 123.746094 97.609375 C 130.238281 98.617188 136.722656 99.726562 143.074219 101.433594 C 140.976562 101.996094 138.8125 102.261719 136.671875 102.632812 C 134.832031 103.082031 133.222656 101.847656 131.613281 101.183594 C 129.058594 99.839844 126.199219 99.144531 123.746094 97.609375 Z M 79.699219 98.488281 C 75.613281 98.511719 71.78125 100.121094 67.957031 101.367188 C 66.757812 101.703125 65.625 102.621094 64.316406 102.28125 C 62.550781 101.960938 60.785156 101.628906 59.023438 101.265625 C 61.039062 100.066406 63.382812 99.597656 65.625 98.964844 C 71.535156 97.585938 77.378906 95.871094 83.347656 94.75 C 84.570312 98.035156 85.472656 101.4375 86.425781 104.804688 C 83.128906 104.65625 79.839844 104.386719 76.546875 104.160156 C 78.546875 103.191406 80.679688 102.199219 81.945312 100.28125 C 81.453125 99.433594 80.8125 98.433594 79.699219 98.488281 Z M 95.496094 115.734375 C 94.304688 115.589844 92.898438 115.074219 91.925781 116.082031 C 90.972656 116.6875 91.074219 117.875 91.011719 118.855469 C 84.894531 120.597656 78.726562 122.125 72.582031 123.769531 C 70.132812 124.359375 67.714844 125.109375 65.214844 125.496094 C 64.027344 121.1875 62.835938 116.871094 61.402344 112.636719 C 60.828125 110.746094 59.074219 109.238281 57.003906 109.644531 C 55.347656 111.730469 55.933594 114.554688 56.648438 116.890625 C 57.402344 119.695312 58.578125 122.355469 59.566406 125.085938 C 58.199219 124.769531 56.480469 124.707031 55.558594 123.523438 C 53.558594 118.875 53.210938 113.589844 50.6875 109.148438 C 49.835938 107.464844 47.691406 107.386719 46.121094 107.96875 C 41.378906 109.773438 37.097656 112.597656 33.320312 115.957031 C 32.46875 109.96875 31.703125 103.960938 31.183594 97.933594 C 39.046875 102.613281 48.007812 104.828125 56.851562 106.816406 C 80.054688 111.277344 103.933594 112.195312 127.421875 109.617188 C 137.546875 108.5625 147.601562 106.738281 157.410156 104 C 162.445312 102.523438 167.445312 100.6875 171.808594 97.722656 C 171.371094 103.953125 170.578125 110.160156 169.652344 116.339844 C 165.960938 112.65625 161.558594 109.644531 156.636719 107.882812 C 154.679688 107.421875 152.675781 107.996094 150.746094 108.347656 C 145.125 109.65625 139.503906 110.980469 133.832031 112.066406 C 132.1875 112.398438 130.457031 112.761719 129.097656 113.8125 C 128.273438 114.53125 128.007812 115.652344 127.59375 116.621094 C 126.0625 123.039062 124.582031 129.472656 122.910156 135.855469 C 117.136719 133.714844 111.414062 131.296875 106.0625 128.246094 C 106.960938 125.042969 107.703125 121.796875 108.566406 118.585938 C 108.414062 117.578125 108.269531 116.398438 107.324219 115.800781 C 106.269531 114.953125 104.867188 115.15625 103.617188 115.203125 C 102.382812 118.664062 101.535156 122.242188 100.738281 125.828125 C 100.40625 127.609375 99.949219 129.648438 101.015625 131.285156 C 102.152344 132.945312 104.039062 133.859375 105.769531 134.789062 C 108.917969 136.300781 112.097656 137.769531 115.390625 138.949219 C 115.988281 139.152344 116.515625 139.515625 117.015625 139.898438 C 107.53125 140.582031 98.007812 140.425781 88.515625 139.914062 C 77.515625 139.257812 66.539062 137.773438 55.820312 135.191406 C 49.703125 133.550781 43.402344 131.8125 38.195312 128.0625 C 36.8125 126.996094 35.148438 125.597656 35.304688 123.671875 C 35.707031 121.550781 37.308594 119.910156 38.835938 118.492188 C 41.179688 116.558594 43.699219 114.671875 46.664062 113.820312 C 48.070312 117.660156 48.953125 121.664062 50.40625 125.488281 C 51.691406 128.738281 55.351562 129.839844 58.382812 130.804688 C 62.921875 132.3125 67.601562 130.648438 72.050781 129.664062 C 79.738281 127.625 87.554688 126.023438 95.050781 123.332031 C 96.140625 122.910156 97.574219 122.234375 97.515625 120.859375 C 97.382812 118.992188 96.503906 117.273438 95.496094 115.734375 Z M 163.359375 165.992188 C 160.078125 192.222656 156.875 218.472656 153.609375 244.703125 C 153.1875 249.539062 148.957031 252.785156 144.894531 254.734375 C 136.285156 258.761719 126.773438 260.351562 117.398438 261.433594 C 110.183594 262.082031 102.921875 262.5625 95.683594 262.085938 C 91.582031 262.226562 87.496094 261.667969 83.429688 261.175781 C 74.902344 260.203125 66.324219 258.527344 58.480469 254.949219 C 54.875 253.203125 51.039062 250.753906 49.6875 246.789062 C 47.25 227.445312 44.671875 208.101562 42.238281 188.75 C 40.117188 170.179688 37.40625 151.671875 35.546875 133.074219 C 42.238281 136.984375 49.570312 139.757812 57.183594 141.210938 L 57.222656 141.546875 C 59.855469 141.699219 62.375 142.570312 64.976562 142.960938 C 82.867188 145.875 101.097656 146.6875 119.175781 145.359375 C 131.25 144.546875 143.308594 142.671875 154.894531 139.128906 C 159.363281 137.835938 163.558594 135.769531 167.40625 133.160156 C 166.1875 144.121094 164.660156 155.039062 163.359375 165.992188 Z M 205.214844 82.160156 C 209.910156 78.234375 215.828125 76.226562 221.589844 74.417969 C 230.671875 71.625 240.109375 70.289062 249.542969 69.390625 C 257.453125 68.601562 265.402344 68.253906 273.351562 68.324219 C 286.058594 68.222656 298.820312 68.957031 311.335938 71.28125 C 319.792969 72.71875 328.28125 74.667969 336.058594 78.398438 C 339.300781 80.015625 342.574219 81.9375 344.652344 85 C 345.679688 86.496094 345.160156 88.484375 344.097656 89.816406 C 342.121094 92.382812 339.179688 93.945312 336.3125 95.332031 C 329.171875 98.585938 321.441406 100.296875 313.753906 101.6875 C 292.546875 105.332031 270.859375 105.648438 249.457031 103.804688 C 240.65625 102.898438 231.847656 101.671875 223.308594 99.347656 C 218.371094 98.195312 213.511719 96.507812 209.078125 94.027344 C 206.148438 92.640625 203.128906 90.589844 201.992188 87.414062 C 202.070312 85.261719 203.714844 83.554688 205.214844 82.160156 Z M 206.9375 128.246094 C 206.003906 121.105469 205.21875 113.941406 204.269531 106.800781 C 203.875 103.714844 203.328125 100.648438 203.171875 97.535156 C 211.539062 102.425781 221.019531 104.9375 230.449219 106.832031 C 242.167969 109.128906 254.097656 110.15625 266.019531 110.484375 C 276.121094 110.710938 286.25 110.558594 296.324219 109.683594 C 307.347656 108.859375 318.335938 107.140625 328.980469 104.109375 C 334.347656 102.601562 339.484375 100.359375 344.308594 97.582031 C 343.074219 107.839844 341.769531 118.089844 340.398438 128.335938 C 340.1875 129.359375 340.277344 130.660156 339.257812 131.277344 C 339.082031 131.417969 338.902344 131.558594 338.722656 131.691406 C 338.601562 131.785156 338.480469 131.878906 338.355469 131.96875 C 338.164062 132.113281 337.96875 132.253906 337.773438 132.390625 C 337.523438 132.566406 337.273438 132.734375 337.019531 132.898438 C 336.777344 133.066406 336.535156 133.222656 336.292969 133.371094 C 336.269531 133.386719 336.246094 133.398438 336.222656 133.417969 C 335.96875 133.570312 335.71875 133.726562 335.464844 133.871094 C 335.199219 134.027344 334.933594 134.179688 334.667969 134.332031 C 333.863281 134.773438 333.046875 135.191406 332.21875 135.582031 C 331.9375 135.714844 331.664062 135.84375 331.382812 135.964844 C 331.167969 136.066406 330.945312 136.160156 330.730469 136.25 C 330.382812 136.402344 330.039062 136.546875 329.683594 136.691406 C 329.667969 136.699219 329.640625 136.710938 329.617188 136.71875 C 329.289062 136.851562 328.964844 136.980469 328.640625 137.109375 C 328.414062 137.195312 328.195312 137.277344 327.96875 137.359375 C 327.679688 137.46875 327.390625 137.574219 327.101562 137.675781 C 326.824219 137.777344 326.539062 137.878906 326.253906 137.980469 C 326.25 137.980469 326.238281 137.984375 326.234375 137.984375 C 320.140625 139.6875 305.882812 142.402344 305.882812 142.402344 C 286.167969 145.210938 266.074219 145.300781 246.300781 143.003906 C 241.574219 142.40625 236.855469 141.714844 232.199219 140.726562 C 223.746094 138.851562 215 136.585938 208.101562 131.089844 C 207.089844 130.503906 207.121094 129.257812 206.9375 128.246094 Z M 334.769531 172.449219 C 333.980469 180.316406 332.71875 188.121094 331.808594 195.972656 C 331.226562 199.796875 330.992188 203.675781 330.3125 207.484375 L 330.078125 207.761719 C 330.097656 211.550781 329.4375 215.292969 328.9375 219.039062 C 327.914062 226.75 326.832031 234.449219 325.828125 242.164062 C 325.644531 243.269531 325.84375 244.46875 325.34375 245.511719 C 325.183594 247.191406 324.324219 248.75 323.195312 249.988281 C 320.886719 252.578125 317.804688 254.320312 314.636719 255.644531 C 307.460938 258.597656 299.824219 260.335938 292.132812 261.269531 C 285.480469 262.089844 278.761719 262.683594 272.058594 262.394531 C 267.242188 262.507812 262.410156 262.222656 257.640625 261.546875 C 248.335938 260.667969 238.921875 258.972656 230.347656 255.101562 C 226.351562 253.269531 222.1875 250.21875 221.480469 245.578125 C 220.484375 239.148438 219.792969 232.679688 218.898438 226.234375 C 218.714844 224.992188 218.664062 223.734375 218.78125 222.488281 L 218.507812 222.316406 C 216.789062 205.128906 214.007812 188.050781 212.246094 170.871094 C 211.269531 164.820312 210.707031 158.699219 209.867188 152.625 C 209.316406 147.828125 208.578125 143.054688 208.199219 138.234375 C 210.304688 139.179688 212.296875 140.371094 214.433594 141.25 C 220.242188 143.742188 226.417969 145.179688 232.554688 146.597656 C 250.980469 149.859375 269.792969 151.085938 288.472656 149.890625 C 295.101562 149.363281 301.753906 148.851562 308.28125 147.550781 C 310.949219 147.636719 314.097656 147.132812 317.042969 146.453125 C 319.722656 145.839844 322.234375 145.070312 324.074219 144.464844 C 324.074219 144.464844 324.074219 144.464844 324.078125 144.464844 C 324.089844 144.460938 324.097656 144.460938 324.105469 144.457031 C 324.226562 144.421875 324.351562 144.390625 324.46875 144.355469 C 324.851562 144.25 325.230469 144.140625 325.613281 144.023438 C 325.671875 144.007812 325.726562 143.992188 325.785156 143.972656 C 326.195312 143.851562 326.597656 143.726562 327.007812 143.597656 C 327.042969 143.589844 327.078125 143.574219 327.117188 143.5625 C 327.578125 143.414062 328.039062 143.265625 328.496094 143.109375 C 328.726562 143.03125 328.957031 142.953125 329.183594 142.871094 C 329.878906 142.632812 330.5625 142.375 331.242188 142.109375 C 331.464844 142.027344 331.683594 141.9375 331.90625 141.847656 C 332.496094 141.613281 333.078125 141.367188 333.65625 141.109375 C 333.964844 140.976562 334.269531 140.839844 334.574219 140.695312 C 334.574219 140.695312 334.578125 140.691406 334.585938 140.691406 C 334.882812 140.554688 335.179688 140.414062 335.480469 140.265625 C 335.792969 140.121094 336.097656 139.964844 336.410156 139.804688 C 336.667969 139.675781 336.917969 139.542969 337.175781 139.40625 C 337.535156 139.214844 337.886719 139.019531 338.234375 138.816406 C 338.519531 138.660156 338.800781 138.496094 339.082031 138.332031 C 338.714844 143.691406 337.75 148.984375 337.109375 154.316406 C 336.398438 160.367188 335.675781 166.425781 334.769531 172.449219 Z M 334.769531 172.449219 "/></g><path style=" stroke:none;fill-rule:nonzero;fill:#020204;fill-opacity:1;" d="M 259.425781 79.039062 C 263.136719 76.539062 266.992188 73.898438 271.507812 73.164062 C 277.421875 72.367188 283.457031 73.882812 288.632812 76.75 C 291.597656 78.269531 294.84375 80.425781 298.328125 79.410156 C 301.097656 78.488281 303.769531 77.175781 306.726562 76.929688 C 310.546875 76.527344 314.5 76.992188 318.027344 78.546875 C 321.082031 79.90625 323.519531 82.28125 326.441406 83.871094 C 327.738281 84.605469 329.28125 84.234375 330.695312 84.214844 C 334.066406 84.019531 337.996094 84.507812 340.144531 87.445312 C 339.425781 88.316406 338.953125 89.597656 337.769531 89.921875 C 336.335938 90.234375 334.863281 90.03125 333.417969 90.007812 C 330.460938 89.863281 327.378906 90.105469 324.570312 88.988281 C 321.304688 87.75 318.90625 85.003906 315.664062 83.710938 C 312.730469 82.492188 309.425781 82.023438 306.332031 82.855469 C 303.324219 83.660156 300.519531 85.105469 297.421875 85.566406 C 293.898438 85.347656 290.476562 84.308594 287.390625 82.617188 C 282.425781 79.996094 276.671875 77.800781 271.007812 79.199219 C 266.523438 80.292969 263.503906 84.179688 259.230469 85.699219 C 256.796875 86.589844 254.183594 86.132812 251.757812 85.484375 C 248.796875 83.957031 245.933594 82.023438 242.578125 81.511719 C 239.546875 80.988281 236.398438 81.640625 233.703125 83.066406 C 231.226562 84.335938 229.335938 86.464844 226.894531 87.789062 C 225.5 88.5625 223.949219 88.992188 222.390625 89.269531 C 220.230469 89.199219 218.113281 88.703125 215.960938 88.554688 C 213.730469 88.386719 211.585938 89.179688 209.503906 89.871094 C 208.894531 89.050781 207.691406 88.234375 208.179688 87.070312 C 208.851562 85.320312 210.628906 84.308594 212.300781 83.691406 C 215.457031 82.597656 218.839844 83.121094 222.046875 83.664062 C 224.851562 82.628906 226.886719 80.296875 229.492188 78.898438 C 234.796875 75.894531 241.441406 74.574219 247.28125 76.792969 C 249.683594 77.609375 251.777344 79.082031 254.078125 80.113281 C 255.902344 80.90625 257.890625 80.066406 259.425781 79.039062 Z M 259.425781 79.039062 "/><path style=" stroke:none;fill-rule:nonzero;fill:#020204;fill-opacity:1;" d="M 51.4375 77.898438 C 58.773438 75.757812 66.324219 74.292969 73.957031 73.808594 C 77.128906 73.871094 80.488281 73.363281 83.5 74.585938 C 84.601562 74.941406 84.410156 76.503906 83.429688 76.882812 C 80.675781 78.105469 77.570312 78.082031 74.648438 78.671875 C 70.378906 79.40625 66.082031 79.992188 61.855469 80.945312 C 55.351562 82.5 48.953125 84.53125 42.796875 87.148438 C 41.019531 87.863281 39.378906 88.921875 37.511719 89.375 C 36.402344 89.664062 35.011719 88.707031 35.285156 87.484375 C 35.636719 86.046875 36.839844 85.03125 37.929688 84.125 C 41.90625 81.074219 46.6875 79.328125 51.4375 77.898438 Z M 51.4375 77.898438 "/><path style=" stroke:none;fill-rule:nonzero;fill:#020204;fill-opacity:1;" d="M 151.914062 79.75 C 155.84375 79.253906 159.648438 80.859375 163.09375 82.566406 C 165.105469 83.714844 167.515625 85.316406 167.628906 87.867188 C 167.6875 89.316406 165.808594 89.773438 164.730469 89.21875 C 161.960938 88.082031 159.375 86.535156 156.625 85.355469 C 154.421875 84.246094 151.917969 83.5 150.136719 81.726562 C 149.179688 80.539062 150.976562 79.863281 151.914062 79.75 Z M 151.914062 79.75 "/><path style=" stroke:none;fill-rule:nonzero;fill:#020204;fill-opacity:1;" d="M 99.226562 88.695312 C 103.269531 88.253906 107.585938 88.121094 111.386719 89.757812 C 112.855469 90.246094 112.375 92.222656 111.058594 92.558594 C 106.878906 94.296875 102.144531 94.09375 97.753906 93.402344 C 96.332031 93.011719 94.304688 92.746094 93.808594 91.117188 C 94.832031 89.207031 97.335938 89.105469 99.226562 88.695312 Z M 99.226562 88.695312 "/><path style=" stroke:none;fill-rule:nonzero;fill:#020204;fill-opacity:1;" d="M 233.128906 88.980469 C 235.027344 88.683594 237.363281 88.871094 238.628906 90.511719 C 239.4375 91.53125 238.761719 92.980469 237.757812 93.574219 C 235.847656 94.785156 233.414062 94.625 231.304688 94.121094 C 230.210938 93.90625 229.03125 92.929688 229.4375 91.699219 C 230.035156 90.207031 231.578125 89.242188 233.128906 88.980469 Z M 233.128906 88.980469 "/><path style=" stroke:none;fill-rule:nonzero;fill:#020204;fill-opacity:1;" d="M 309.445312 92.492188 C 310.078125 90.21875 312.886719 89.84375 314.898438 89.839844 C 315.976562 90.210938 317.15625 90.589844 317.917969 91.5 C 318.523438 92.265625 318.25 93.410156 317.59375 94.054688 C 316.46875 95.242188 314.707031 95.269531 313.1875 95.316406 C 311.664062 95 309.59375 94.324219 309.445312 92.492188 Z M 309.445312 92.492188 "/><path style=" stroke:none;fill-rule:nonzero;fill:#020204;fill-opacity:1;" d="M 274.453125 92.292969 C 276.324219 91.925781 278.398438 92.0625 280.058594 93.074219 C 280.878906 93.5625 281.660156 94.621094 281.128906 95.585938 C 280.253906 97.179688 278.234375 97.554688 276.578125 97.621094 C 274.855469 97.632812 272.753906 97.472656 271.671875 95.941406 C 270.84375 94.167969 272.878906 92.597656 274.453125 92.292969 Z M 274.453125 92.292969 "/><path style=" stroke:none;fill-rule:nonzero;fill:#020204;fill-opacity:1;" d="M 293.722656 93.675781 C 295.945312 93.1875 298.695312 93.613281 300.160156 95.5 C 300.96875 97.039062 299.1875 98.296875 297.863281 98.59375 C 295.695312 99.019531 292.984375 99.066406 291.300781 97.429688 C 290.09375 95.769531 292.152344 93.984375 293.722656 93.675781 Z M 293.722656 93.675781 "/><path style=" stroke:none;fill-rule:nonzero;fill:#020204;fill-opacity:1;" d="M 249.210938 94.089844 C 251.191406 93.542969 253.550781 93.675781 255.195312 95.019531 C 256.191406 95.761719 256.121094 97.394531 255.074219 98.0625 C 253.285156 99.371094 250.867188 99.480469 248.761719 99.058594 C 247.613281 98.828125 246.359375 97.898438 246.488281 96.601562 C 246.6875 95.253906 248.019531 94.46875 249.210938 94.089844 Z M 249.210938 94.089844 "/><path style=" stroke:none;fill-rule:nonzero;fill:#020204;fill-opacity:1;" d="M 335.578125 106.078125 C 336.753906 105.621094 338.332031 105.332031 339.347656 106.285156 C 340.554688 107.777344 340.054688 110.199219 338.484375 111.242188 C 337.015625 112.199219 335.601562 113.257812 334.53125 114.660156 C 332.625 117.011719 329.613281 118.519531 326.546875 118.203125 C 323.570312 118.09375 320.859375 116.207031 317.847656 116.609375 C 314.800781 117.195312 313.511719 120.335938 311.367188 122.210938 C 308.921875 124.667969 305.359375 126.179688 301.875 125.433594 C 297.609375 124.734375 294.660156 120.8125 290.320312 120.398438 C 287.15625 120.308594 284.773438 122.679688 282.425781 124.457031 C 280.15625 126.289062 277.300781 127.925781 274.269531 127.308594 C 269.449219 126.511719 267.101562 121.152344 262.335938 120.253906 C 259.234375 119.734375 256.558594 121.726562 253.90625 122.984375 C 251.183594 124.429688 247.898438 125.25 244.914062 124.144531 C 242.011719 123.195312 240.042969 120.757812 237.753906 118.894531 C 236.128906 117.511719 233.871094 118.054688 231.945312 118.140625 C 230.046875 118.339844 228.09375 118.191406 226.300781 117.488281 C 223.570312 116.578125 221.546875 114.230469 218.707031 113.597656 C 217.601562 113.234375 215.925781 113.574219 215.847656 114.96875 C 215.820312 119.203125 217.65625 123.324219 217.117188 127.578125 C 216.933594 129.351562 214.640625 130.414062 213.277344 129.128906 C 211.480469 127.421875 211.332031 124.746094 210.945312 122.445312 C 210.660156 119.34375 209.996094 116.21875 210.40625 113.101562 C 210.734375 110.675781 212.636719 108.683594 214.953125 108 C 218.152344 107.023438 221.570312 108.128906 224.292969 109.863281 C 226.363281 111.140625 228.554688 112.875 231.160156 112.367188 C 233.785156 111.828125 236.621094 111.785156 239.066406 113.019531 C 241.898438 114.289062 243.734375 116.953125 246.359375 118.53125 C 248.007812 119.515625 249.929688 118.582031 251.457031 117.804688 C 254.9375 115.933594 258.742188 113.96875 262.820312 114.449219 C 266.773438 114.875 270.039062 117.394531 272.914062 119.945312 C 273.976562 120.828125 275.375 122.105469 276.816406 121.210938 C 280.148438 119.410156 282.722656 116.273438 286.480469 115.226562 C 290.539062 113.789062 294.949219 115.132812 298.441406 117.375 C 300.417969 118.46875 302.476562 120.472656 304.921875 119.605469 C 307.972656 118.359375 309.425781 115.105469 312.011719 113.21875 C 314.453125 111.089844 317.84375 110.121094 321.023438 110.933594 C 323.339844 111.171875 325.402344 112.917969 327.777344 112.53125 C 331.117188 111.386719 332.296875 107.355469 335.578125 106.078125 Z M 335.578125 106.078125 "/><path style=" stroke:none;fill-rule:nonzero;fill:#020204;fill-opacity:1;" d="M 148.664062 115.894531 C 150.320312 115.6875 150.710938 117.828125 150.785156 119.070312 C 150.773438 122.679688 150.050781 126.46875 148.054688 129.527344 C 147.296875 130.847656 144.710938 131.40625 144.261719 129.582031 C 144.027344 126.75 144.949219 123.972656 145.71875 121.28125 C 146.417969 119.375 147.003906 117.195312 148.664062 115.894531 Z M 148.664062 115.894531 "/><path style=" stroke:none;fill-rule:nonzero;fill:#020204;fill-opacity:1;" d="M 80.925781 132.144531 C 84.882812 131.589844 89.132812 132.203125 92.578125 134.285156 C 92.5625 134.570312 92.527344 135.140625 92.511719 135.425781 C 89.648438 136.597656 86.488281 136.5625 83.445312 136.570312 C 80.628906 136.414062 77.675781 136.34375 75.105469 135.035156 C 76.390625 133.121094 78.8125 132.582031 80.925781 132.144531 Z M 80.925781 132.144531 "/><path style=" stroke:none;fill-rule:nonzero;fill:#020204;fill-opacity:1;" d="M 44.527344 144.726562 C 45.199219 145.0625 45.882812 145.464844 46.132812 146.230469 C 47.683594 149.746094 48.113281 153.613281 48.761719 157.367188 C 50.183594 167.039062 51.195312 176.765625 52.429688 186.464844 C 52.675781 189.46875 53.320312 192.535156 52.699219 195.527344 C 52.5 197.007812 50.449219 197.851562 49.5 196.515625 C 47.949219 194.417969 47.710938 191.703125 47.199219 189.222656 C 45.503906 177.949219 44.214844 166.617188 43.039062 155.28125 C 42.820312 152.4375 42.621094 149.527344 43.238281 146.714844 C 43.363281 145.886719 43.988281 145.308594 44.527344 144.726562 Z M 44.527344 144.726562 "/><path style=" stroke:none;fill-rule:nonzero;fill:#020204;fill-opacity:1;" d="M 157.066406 145.839844 C 157.546875 145.34375 158.421875 145.257812 158.84375 145.886719 C 159.613281 147.011719 159.714844 148.433594 159.84375 149.757812 C 160.152344 154.710938 159.261719 159.621094 158.726562 164.523438 C 157.796875 171.390625 157.054688 178.28125 155.902344 185.113281 C 155.53125 186.992188 155.324219 189.035156 154.132812 190.605469 C 153.503906 191.480469 152.074219 192.03125 151.257812 191.097656 C 149.785156 189.457031 150.296875 187.050781 150.421875 185.054688 C 151.660156 174.421875 153.0625 163.804688 154.714844 153.226562 C 155.285156 150.730469 155.390625 147.898438 157.066406 145.839844 Z M 157.066406 145.839844 "/><path style=" stroke:none;fill-rule:nonzero;fill:#020204;fill-opacity:1;" d="M 216.980469 150.972656 C 217.667969 151.351562 218.507812 151.632812 218.878906 152.390625 C 220.265625 154.898438 220.707031 157.789062 221.222656 160.578125 C 222.023438 165.769531 222.664062 170.988281 223.3125 176.203125 C 223.542969 179.132812 224.183594 182.097656 223.722656 185.03125 C 223.5625 186.207031 222.441406 187.53125 221.152344 186.980469 C 219.6875 186.34375 219.230469 184.636719 218.863281 183.234375 C 218.046875 179.628906 217.785156 175.929688 217.136719 172.292969 C 216.691406 166.769531 215.863281 161.269531 215.875 155.722656 C 215.835938 154.066406 216.210938 152.4375 216.980469 150.972656 Z M 216.980469 150.972656 "/><path style=" stroke:none;fill-rule:nonzero;fill:#020204;fill-opacity:1;" d="M 328.421875 152.546875 C 328.890625 151.605469 330.480469 150.851562 331.105469 152.046875 C 331.960938 153.75 331.695312 155.746094 331.648438 157.589844 C 331.21875 163.085938 330.453125 168.546875 329.726562 174.007812 C 328.617188 181.636719 327.800781 189.308594 326.492188 196.910156 C 326.039062 198.773438 325.671875 201.191406 323.703125 202.054688 C 322.445312 202.558594 321.3125 201.273438 321.214844 200.109375 C 320.878906 197.136719 321.46875 194.167969 321.816406 191.226562 C 322.4375 186.90625 322.871094 182.566406 323.523438 178.253906 C 324.492188 171.902344 325.175781 165.515625 326.355469 159.203125 C 326.855469 156.9375 327.210938 154.5625 328.421875 152.546875 Z M 328.421875 152.546875 "/><path style=" stroke:none;fill-rule:nonzero;fill:#020204;fill-opacity:1;" d="M 76.695312 161.339844 C 79.023438 160.878906 81.683594 160.9375 83.691406 162.34375 C 85.359375 163.507812 84.964844 166.660156 82.875 167.085938 C 80.863281 167.144531 78.816406 166.421875 76.832031 167.082031 C 74.226562 167.644531 72.375 169.707031 70.039062 170.804688 C 67.820312 171.433594 66.429688 168.21875 67.71875 166.597656 C 69.851562 163.761719 73.3125 162.144531 76.695312 161.339844 Z M 76.695312 161.339844 "/><path style=" stroke:none;fill-rule:nonzero;fill:#020204;fill-opacity:1;" d="M 122.59375 161.449219 C 127.882812 160.082031 133.753906 162.613281 137 166.867188 C 138.566406 168.773438 136.09375 172.558594 133.789062 170.96875 C 131.210938 169.117188 128.570312 166.792969 125.1875 166.871094 C 123.453125 166.8125 121.117188 167.824219 119.960938 165.984375 C 118.691406 164.027344 120.582031 161.746094 122.59375 161.449219 Z M 122.59375 161.449219 "/><path style=" stroke:none;fill-rule:nonzero;fill:#020204;fill-opacity:1;" d="M 294.167969 165.171875 C 298.203125 164.441406 302.445312 165.863281 305.453125 168.582031 C 306.464844 169.546875 307.472656 170.757812 307.496094 172.230469 C 307.515625 173.480469 306.238281 174.453125 305.058594 174.433594 C 304.070312 174.183594 303.285156 173.472656 302.441406 172.945312 C 300.375 171.519531 297.9375 170.40625 295.371094 170.574219 C 294.097656 170.566406 292.777344 170.933594 291.527344 170.574219 C 290.234375 169.855469 289.773438 167.859375 290.789062 166.71875 C 291.644531 165.765625 292.945312 165.390625 294.167969 165.171875 Z M 294.167969 165.171875 "/><path style=" stroke:none;fill-rule:nonzero;fill:#020204;fill-opacity:1;" d="M 245.996094 165.578125 C 248.726562 165.019531 251.980469 164.714844 254.351562 166.460938 C 256.042969 167.644531 255.0625 170.570312 253.113281 170.726562 C 250.804688 170.808594 248.40625 170.367188 246.195312 171.242188 C 243.992188 171.953125 242.425781 173.824219 240.292969 174.652344 C 238.425781 174.941406 236.664062 172.320312 237.941406 170.765625 C 239.917969 168.191406 242.890625 166.441406 245.996094 165.578125 Z M 245.996094 165.578125 "/><path style=" stroke:none;fill-rule:nonzero;fill:#020204;fill-opacity:1;" d="M 78.558594 172.507812 C 84.363281 171.398438 90.433594 176.03125 91.144531 181.839844 C 92.125 187.363281 88.417969 193.414062 82.835938 194.59375 C 78.410156 195.578125 73.589844 193.234375 71.375 189.335938 C 69.898438 186.765625 69.441406 183.664062 69.980469 180.761719 C 70.785156 176.597656 74.417969 173.234375 78.558594 172.507812 Z M 73.761719 179.554688 C 73.097656 180.75 72.320312 182.472656 73.335938 183.6875 C 74.636719 184.886719 76.550781 184.007812 77.761719 183.113281 C 79.96875 181.351562 81.441406 178.730469 82.066406 176 C 78.863281 175.101562 75.351562 176.683594 73.761719 179.554688 Z M 73.761719 179.554688 "/><path style=" stroke:none;fill-rule:nonzero;fill:#020204;fill-opacity:1;" d="M 121.699219 172.535156 C 127.339844 171.3125 133.574219 175.417969 134.664062 181.089844 C 135.511719 184.703125 134.476562 188.667969 132 191.425781 C 128.992188 194.804688 123.710938 195.738281 119.652344 193.796875 C 114.851562 191.703125 112.304688 185.988281 113.359375 180.960938 C 114.109375 176.808594 117.609375 173.425781 121.699219 172.535156 Z M 117.011719 179.664062 C 116.335938 180.914062 115.703125 182.988281 117.191406 183.90625 C 118.792969 184.738281 120.566406 183.628906 121.726562 182.539062 C 123.539062 180.726562 125.039062 178.425781 125.398438 175.851562 C 122.113281 175.101562 118.554688 176.65625 117.011719 179.664062 Z M 117.011719 179.664062 "/><path style=" stroke:none;fill-rule:nonzero;fill:#020204;fill-opacity:1;" d="M 249.21875 176.632812 C 254.21875 175.652344 259.179688 179.132812 260.898438 183.742188 C 262.585938 188.066406 261.417969 193.5625 257.65625 196.441406 C 254.828125 198.738281 250.789062 199.382812 247.359375 198.203125 C 241.546875 196.261719 238.472656 188.914062 240.898438 183.359375 C 242.277344 179.875 245.515625 177.242188 249.21875 176.632812 Z M 245.121094 182.070312 C 243.765625 183.457031 242.621094 185.535156 243.386719 187.484375 C 244.394531 188.960938 246.550781 188.378906 247.753906 187.457031 C 250.050781 185.617188 251.480469 182.863281 252.199219 180.042969 C 249.699219 179.160156 246.851562 180.144531 245.121094 182.070312 Z M 245.121094 182.070312 "/><path style=" stroke:none;fill-rule:nonzero;fill:#020204;fill-opacity:1;" d="M 291.867188 177.011719 C 296.800781 175.328125 302.453125 178.105469 304.570312 182.757812 C 306.191406 186.085938 306.058594 190.222656 304.152344 193.40625 C 301.761719 197.480469 296.582031 199.722656 291.996094 198.398438 C 287.210938 197.152344 283.84375 192.238281 284.148438 187.355469 C 284.339844 182.800781 287.375 178.285156 291.867188 177.011719 Z M 288.601562 182.886719 C 287.558594 184.289062 286.59375 186.769531 288.296875 188.042969 C 289.902344 188.691406 291.695312 187.828125 292.800781 186.632812 C 294.503906 184.757812 295.769531 182.453125 296.316406 179.972656 C 293.433594 179.320312 290.242188 180.375 288.601562 182.886719 Z M 288.601562 182.886719 "/><path style=" stroke:none;fill-rule:nonzero;fill:#020204;fill-opacity:1;" d="M 221.632812 191.480469 C 223.28125 190.566406 224.886719 192.238281 225.152344 193.792969 C 225.570312 195.515625 225.359375 198.246094 223.246094 198.707031 C 221.453125 199 220.425781 197.019531 220.34375 195.496094 C 220.25 194.109375 220.238281 192.261719 221.632812 191.480469 Z M 221.632812 191.480469 "/><path style=" stroke:none;fill-rule:nonzero;fill:#020204;fill-opacity:1;" d="M 91.414062 197.285156 C 98.078125 196.953125 104.777344 197.128906 111.453125 197.125 C 113.046875 197 114.925781 197.734375 115.273438 199.460938 C 115.722656 202.351562 114.792969 205.253906 113.613281 207.867188 C 112.144531 211.214844 109.335938 214.039062 105.835938 215.203125 C 102.226562 216.351562 98.070312 215.671875 95.101562 213.296875 C 91.214844 210.195312 88.964844 205.128906 89.214844 200.179688 C 89.238281 198.898438 90.046875 197.464844 91.414062 197.285156 Z M 95.472656 209.371094 C 96.789062 211.988281 100 212.773438 102.707031 212.742188 C 104.988281 212.6875 107.613281 211.878906 108.832031 209.804688 C 108.382812 208.128906 106.488281 207.5 104.992188 207.085938 C 101.746094 206.398438 97.75 206.644531 95.472656 209.371094 Z M 95.472656 209.371094 "/><path style=" stroke:none;fill-rule:nonzero;fill:#020204;fill-opacity:1;" d="M 261.15625 201.777344 C 262.414062 201.328125 263.78125 201.457031 265.097656 201.417969 C 271.0625 201.453125 277.03125 201.355469 282.996094 201.382812 C 284.523438 201.222656 286.191406 202.199219 286.257812 203.847656 C 286.328125 207.015625 285.246094 210.125 283.796875 212.90625 C 282.527344 215.332031 280.683594 217.527344 278.203125 218.78125 C 273.664062 221.230469 267.613281 220.035156 264.175781 216.246094 C 261.496094 213.242188 259.757812 209.28125 259.699219 205.234375 C 259.707031 203.992188 259.902344 202.390625 261.15625 201.777344 Z M 270.292969 211.347656 C 268.980469 211.722656 267.632812 212.378906 266.882812 213.570312 C 266.484375 214.179688 266.902344 214.914062 267.457031 215.253906 C 270.4375 217.378906 274.769531 217.867188 277.875 215.699219 C 278.636719 215.238281 279.804688 214.34375 278.980469 213.390625 C 276.929688 210.921875 273.230469 210.554688 270.292969 211.347656 Z M 270.292969 211.347656 "/><path style=" stroke:none;fill-rule:nonzero;fill:#020204;fill-opacity:1;" d="M 52.351562 209.871094 C 53.832031 209.417969 54.480469 211.078125 54.882812 212.175781 C 56.167969 216.035156 56.609375 220.121094 57.023438 224.152344 C 57.117188 226.441406 57.464844 228.882812 56.539062 231.058594 C 56.269531 231.996094 55.003906 232.246094 54.292969 231.644531 C 53.015625 230.601562 52.542969 228.921875 52.105469 227.410156 C 51.0625 223.164062 50.597656 218.769531 50.722656 214.40625 C 50.855469 212.828125 50.902344 210.863281 52.351562 209.871094 Z M 52.351562 209.871094 "/><path style=" stroke:none;fill-rule:nonzero;fill:#020204;fill-opacity:1;" d="M 149.214844 213.195312 C 150.535156 212.800781 151.042969 214.417969 151.316406 215.390625 C 151.910156 218.488281 151.351562 221.660156 151.042969 224.765625 C 150.550781 227.976562 150.273438 231.351562 148.730469 234.273438 C 148.257812 235.210938 147.011719 236.167969 146 235.402344 C 144.730469 233.941406 144.820312 231.804688 144.867188 229.984375 C 145.28125 225.558594 145.824219 221.121094 146.917969 216.808594 C 147.34375 215.464844 147.824219 213.824219 149.214844 213.195312 Z M 149.214844 213.195312 "/><path style=" stroke:none;fill-rule:nonzero;fill:#020204;fill-opacity:1;" d="M 224.320312 218.992188 C 224.628906 218.320312 225.191406 217.484375 226.054688 217.695312 C 227.386719 217.847656 227.976562 219.253906 228.378906 220.355469 C 229.242188 223.152344 229.332031 226.101562 229.886719 228.964844 C 230.058594 231.621094 230.234375 234.398438 229.199219 236.921875 C 228.253906 236.867188 227.136719 236.820312 226.648438 235.859375 C 224.730469 232.78125 224.160156 229.082031 223.683594 225.554688 C 223.578125 223.363281 223.496094 221.070312 224.320312 218.992188 Z M 224.320312 218.992188 "/><path style=" stroke:none;fill-rule:nonzero;fill:#020204;fill-opacity:1;" d="M 319.878906 224.199219 C 321.054688 223.785156 322.035156 224.972656 322.195312 226.039062 C 322.660156 228.914062 322.175781 231.90625 321.101562 234.601562 C 320.648438 235.636719 320.027344 236.890625 318.773438 237.054688 C 317.554688 236.953125 317.039062 235.605469 316.894531 234.574219 C 316.667969 232.347656 317.109375 230.113281 317.652344 227.964844 C 318.078125 226.578125 318.597656 225.027344 319.878906 224.199219 Z M 319.878906 224.199219 "/><path style=" stroke:none;fill-rule:nonzero;fill:#020204;fill-opacity:1;" d="M 144.609375 243.972656 C 145.867188 243.710938 147.371094 243.542969 148.453125 244.386719 C 149.234375 245.789062 147.808594 247.109375 146.847656 247.980469 C 144.933594 249.503906 142.796875 251.0625 140.3125 251.371094 C 138.804688 251.601562 137.445312 249.921875 138.246094 248.550781 C 139.695312 246.328125 142.066406 244.703125 144.609375 243.972656 Z M 144.609375 243.972656 "/><path style=" stroke:none;fill-rule:nonzero;fill:#020204;fill-opacity:1;" d="M 226.457031 246.601562 C 225.832031 245.558594 226.792969 244.109375 227.96875 244.113281 C 229.710938 244.136719 231.269531 245.042969 232.835938 245.71875 C 237.703125 248.007812 242.917969 249.433594 248.160156 250.578125 C 261.257812 253.207031 274.796875 253.769531 288.058594 252.144531 C 290.949219 251.832031 293.800781 251.070312 296.722656 251.136719 C 298.152344 251.109375 299.261719 252.101562 300.3125 252.9375 C 299.761719 253.964844 299.125 255.046875 297.972656 255.472656 C 293.863281 257.265625 289.34375 257.753906 284.929688 258.242188 C 278.375 258.972656 271.757812 259.089844 265.179688 258.691406 C 261.191406 258.285156 257.199219 257.917969 253.238281 257.292969 C 245.570312 255.929688 237.867188 254.015625 230.9375 250.378906 C 229.261719 249.382812 227.457031 248.335938 226.457031 246.601562 Z M 226.457031 246.601562 "/><path style=" stroke:none;fill-rule:nonzero;fill:#020204;fill-opacity:1;" d="M 308.285156 250.554688 C 309.527344 246.574219 313.820312 244.078125 317.84375 244.046875 C 319.132812 243.9375 319.882812 245.046875 320.515625 245.984375 C 318.4375 248.632812 315.445312 250.542969 312.242188 251.519531 C 310.820312 252.027344 309.417969 251.386719 308.285156 250.554688 Z M 308.285156 250.554688 "/><path style=" stroke:none;fill-rule:nonzero;fill:#020204;fill-opacity:1;" d="M 54.613281 245.570312 C 56.210938 243.722656 58.691406 244.714844 60.574219 245.484375 C 66.433594 247.964844 72.625 249.632812 78.898438 250.660156 C 88.152344 252.179688 97.550781 253.015625 106.933594 252.566406 C 112.785156 252.5 118.597656 251.625 124.359375 250.652344 C 126.175781 250.40625 128.171875 250.078125 129.871094 250.960938 C 130.917969 251.515625 131.066406 253 130.207031 253.792969 C 128.851562 255.105469 126.929688 255.554688 125.175781 256.078125 C 115.699219 258.351562 105.882812 258.824219 96.167969 258.539062 C 90.277344 258.042969 84.375 257.542969 78.570312 256.386719 C 72.34375 255.101562 66.085938 253.574219 60.371094 250.714844 C 58.078125 249.503906 55.671875 248.058594 54.613281 245.570312 Z M 54.613281 245.570312 "/><path style=" stroke:none;fill-rule:nonzero;fill:#dd9f71;fill-opacity:1;" d="M 154.894531 139.128906 C 143.308594 142.671875 131.25 144.546875 119.175781 145.359375 C 101.097656 146.6875 82.867188 145.875 64.976562 142.960938 C 62.375 142.570312 59.855469 141.699219 57.222656 141.546875 L 57.183594 141.210938 C 49.570312 139.757812 42.238281 136.984375 35.546875 133.074219 C 37.40625 151.671875 40.117188 170.179688 42.238281 188.75 C 44.671875 208.101562 47.25 227.445312 49.6875 246.789062 C 51.039062 250.753906 54.875 253.203125 58.480469 254.949219 C 66.324219 258.527344 74.902344 260.203125 83.429688 261.175781 C 87.496094 261.667969 91.582031 262.226562 95.683594 262.085938 C 102.921875 262.5625 110.183594 262.082031 117.398438 261.433594 C 126.773438 260.351562 136.285156 258.761719 144.894531 254.734375 C 148.957031 252.785156 153.1875 249.539062 153.609375 244.703125 C 156.875 218.472656 160.078125 192.222656 163.359375 165.992188 C 164.660156 155.039062 166.1875 144.121094 167.40625 133.160156 C 163.558594 135.769531 159.363281 137.835938 154.894531 139.128906 Z M 122.59375 161.449219 C 127.882812 160.082031 133.753906 162.613281 137 166.867188 C 138.566406 168.773438 136.09375 172.558594 133.789062 170.96875 C 131.210938 169.117188 128.570312 166.792969 125.1875 166.871094 C 123.453125 166.8125 121.117188 167.824219 119.960938 165.984375 C 118.691406 164.027344 120.582031 161.746094 122.59375 161.449219 Z M 113.359375 180.960938 C 114.109375 176.808594 117.609375 173.425781 121.699219 172.535156 C 127.339844 171.3125 133.574219 175.417969 134.664062 181.089844 C 135.511719 184.703125 134.476562 188.667969 132 191.425781 C 128.992188 194.804688 123.710938 195.738281 119.652344 193.796875 C 114.851562 191.703125 112.304688 185.988281 113.359375 180.960938 Z M 111.453125 197.125 C 113.046875 197 114.925781 197.734375 115.273438 199.460938 C 115.722656 202.351562 114.792969 205.253906 113.613281 207.867188 C 112.144531 211.214844 109.335938 214.039062 105.835938 215.203125 C 102.226562 216.351562 98.070312 215.671875 95.101562 213.296875 C 91.214844 210.195312 88.964844 205.128906 89.214844 200.179688 C 89.238281 198.898438 90.046875 197.464844 91.414062 197.285156 C 98.078125 196.953125 104.777344 197.128906 111.453125 197.125 Z M 91.144531 181.839844 C 92.125 187.363281 88.417969 193.414062 82.835938 194.59375 C 78.410156 195.578125 73.589844 193.234375 71.375 189.335938 C 69.898438 186.765625 69.441406 183.664062 69.980469 180.761719 C 70.785156 176.597656 74.417969 173.234375 78.558594 172.507812 C 84.363281 171.398438 90.433594 176.03125 91.144531 181.839844 Z M 67.71875 166.597656 C 69.851562 163.761719 73.3125 162.144531 76.695312 161.339844 C 79.023438 160.878906 81.683594 160.9375 83.691406 162.34375 C 85.359375 163.507812 84.964844 166.660156 82.875 167.085938 C 80.863281 167.144531 78.816406 166.421875 76.832031 167.082031 C 74.226562 167.644531 72.375 169.707031 70.039062 170.804688 C 67.820312 171.433594 66.429688 168.21875 67.71875 166.597656 Z M 49.5 196.515625 C 47.949219 194.417969 47.710938 191.703125 47.199219 189.222656 C 45.503906 177.949219 44.214844 166.617188 43.039062 155.28125 C 42.820312 152.4375 42.621094 149.527344 43.238281 146.714844 C 43.363281 145.886719 43.988281 145.308594 44.527344 144.726562 C 45.199219 145.0625 45.882812 145.464844 46.132812 146.230469 C 47.683594 149.746094 48.113281 153.613281 48.757812 157.367188 C 50.183594 167.039062 51.195312 176.765625 52.429688 186.464844 C 52.675781 189.46875 53.320312 192.535156 52.699219 195.527344 C 52.5 197.007812 50.449219 197.851562 49.5 196.515625 Z M 52.105469 227.410156 C 51.0625 223.164062 50.597656 218.769531 50.722656 214.40625 C 50.855469 212.828125 50.902344 210.863281 52.351562 209.871094 C 53.832031 209.417969 54.480469 211.078125 54.882812 212.175781 C 56.167969 216.035156 56.609375 220.121094 57.023438 224.152344 C 57.117188 226.441406 57.464844 228.882812 56.539062 231.058594 C 56.269531 231.996094 55.003906 232.246094 54.292969 231.644531 C 53.015625 230.601562 52.542969 228.921875 52.105469 227.410156 Z M 130.207031 253.792969 C 128.851562 255.105469 126.929688 255.554688 125.175781 256.078125 C 115.699219 258.351562 105.882812 258.824219 96.167969 258.539062 C 90.277344 258.042969 84.375 257.542969 78.570312 256.386719 C 72.34375 255.101562 66.085938 253.574219 60.371094 250.714844 C 58.078125 249.503906 55.671875 248.058594 54.613281 245.570312 C 56.210938 243.722656 58.691406 244.714844 60.574219 245.484375 C 66.433594 247.964844 72.625 249.632812 78.898438 250.660156 C 88.152344 252.179688 97.550781 253.015625 106.933594 252.566406 C 112.785156 252.5 118.597656 251.625 124.359375 250.652344 C 126.175781 250.40625 128.171875 250.078125 129.871094 250.960938 C 130.917969 251.515625 131.066406 253 130.207031 253.792969 Z M 146.847656 247.980469 C 144.933594 249.503906 142.796875 251.0625 140.3125 251.371094 C 138.804688 251.601562 137.445312 249.921875 138.246094 248.550781 C 139.695312 246.328125 142.066406 244.703125 144.609375 243.972656 C 145.867188 243.710938 147.371094 243.542969 148.453125 244.386719 C 149.234375 245.789062 147.808594 247.109375 146.847656 247.980469 Z M 151.042969 224.765625 C 150.550781 227.976562 150.273438 231.351562 148.730469 234.273438 C 148.257812 235.210938 147.011719 236.167969 146 235.402344 C 144.730469 233.941406 144.820312 231.804688 144.867188 229.984375 C 145.28125 225.558594 145.824219 221.121094 146.917969 216.808594 C 147.34375 215.464844 147.824219 213.824219 149.214844 213.195312 C 150.535156 212.800781 151.042969 214.417969 151.316406 215.390625 C 151.910156 218.488281 151.351562 221.660156 151.042969 224.765625 Z M 158.726562 164.523438 C 157.796875 171.390625 157.054688 178.28125 155.902344 185.113281 C 155.53125 186.992188 155.324219 189.035156 154.132812 190.605469 C 153.503906 191.480469 152.074219 192.03125 151.257812 191.097656 C 149.785156 189.457031 150.296875 187.050781 150.421875 185.054688 C 151.660156 174.421875 153.0625 163.804688 154.714844 153.226562 C 155.285156 150.730469 155.390625 147.898438 157.066406 145.839844 C 157.546875 145.34375 158.421875 145.257812 158.84375 145.886719 C 159.613281 147.011719 159.714844 148.433594 159.84375 149.757812 C 160.152344 154.710938 159.261719 159.621094 158.726562 164.523438 Z M 158.726562 164.523438 "/><path style=" stroke:none;fill-rule:nonzero;fill:#f3dec8;fill-opacity:1;" d="M 171.808594 97.722656 C 171.371094 103.953125 170.578125 110.160156 169.652344 116.339844 C 165.960938 112.65625 161.558594 109.644531 156.636719 107.882812 C 154.679688 107.421875 152.675781 107.996094 150.746094 108.347656 C 145.125 109.65625 139.503906 110.980469 133.832031 112.066406 C 132.1875 112.398438 130.457031 112.761719 129.097656 113.8125 C 128.273438 114.53125 128.007812 115.652344 127.59375 116.621094 C 126.0625 123.039062 124.582031 129.472656 122.910156 135.855469 C 117.136719 133.714844 111.414062 131.296875 106.0625 128.246094 C 106.960938 125.042969 107.703125 121.796875 108.566406 118.585938 C 108.414062 117.578125 108.269531 116.398438 107.324219 115.800781 C 106.269531 114.953125 104.867188 115.15625 103.617188 115.203125 C 100.894531 115.179688 98.199219 115.484375 95.496094 115.734375 C 94.304688 115.589844 92.898438 115.074219 91.925781 116.082031 C 90.972656 116.6875 91.074219 117.875 91.011719 118.855469 C 84.894531 120.597656 78.726562 122.125 72.582031 123.769531 C 70.132812 124.359375 67.714844 125.109375 65.214844 125.496094 C 64.027344 121.1875 62.835938 116.871094 61.402344 112.636719 C 60.828125 110.746094 59.074219 109.238281 57.003906 109.644531 C 55.347656 111.730469 55.933594 114.554688 56.648438 116.890625 C 57.402344 119.695312 58.578125 122.355469 59.566406 125.085938 C 58.199219 124.769531 56.480469 124.707031 55.558594 123.523438 C 53.558594 118.875 53.210938 113.589844 50.6875 109.148438 C 49.835938 107.464844 47.691406 107.386719 46.121094 107.96875 C 41.378906 109.773438 37.097656 112.597656 33.320312 115.957031 C 32.46875 109.96875 31.703125 103.960938 31.183594 97.933594 C 39.046875 102.613281 48.007812 104.828125 56.851562 106.816406 C 80.054688 111.277344 103.933594 112.195312 127.421875 109.617188 C 137.546875 108.5625 147.601562 106.738281 157.410156 104 C 162.445312 102.523438 167.445312 100.6875 171.808594 97.722656 Z M 171.808594 97.722656 "/><path style=" stroke:none;fill-rule:nonzero;fill:#f3dec8;fill-opacity:1;" d="M 328.980469 104.109375 C 318.335938 107.140625 307.347656 108.859375 296.324219 109.683594 C 286.25 110.558594 276.121094 110.710938 266.019531 110.484375 C 254.097656 110.15625 242.167969 109.128906 230.449219 106.832031 C 221.019531 104.9375 211.539062 102.425781 203.171875 97.535156 C 203.328125 100.648438 203.875 103.714844 204.269531 106.800781 C 205.21875 113.941406 206.003906 121.105469 206.9375 128.246094 C 207.121094 129.257812 207.089844 130.503906 208.101562 131.089844 C 215 136.585938 223.746094 138.851562 232.199219 140.726562 C 236.855469 141.714844 241.574219 142.40625 246.300781 143.003906 C 266.074219 145.300781 286.167969 145.210938 305.882812 142.402344 C 305.882812 142.402344 320.140625 139.6875 326.234375 137.984375 C 326.238281 137.984375 326.25 137.980469 326.253906 137.980469 C 326.539062 137.878906 326.824219 137.777344 327.101562 137.675781 C 327.390625 137.574219 327.679688 137.46875 327.96875 137.359375 C 328.195312 137.277344 328.414062 137.195312 328.640625 137.109375 C 328.964844 136.980469 329.289062 136.851562 329.617188 136.71875 C 329.640625 136.710938 329.667969 136.699219 329.683594 136.691406 C 330.039062 136.546875 330.382812 136.402344 330.730469 136.25 C 330.945312 136.160156 331.167969 136.066406 331.382812 135.964844 C 331.664062 135.84375 331.9375 135.714844 332.21875 135.582031 C 333.046875 135.191406 333.863281 134.773438 334.667969 134.332031 C 334.933594 134.179688 335.199219 134.027344 335.464844 133.871094 C 335.71875 133.726562 335.96875 133.570312 336.222656 133.417969 C 336.246094 133.398438 336.269531 133.386719 336.292969 133.371094 C 336.535156 133.222656 336.78125 133.058594 337.019531 132.898438 C 337.273438 132.734375 337.523438 132.566406 337.773438 132.390625 C 337.96875 132.253906 338.164062 132.113281 338.355469 131.96875 C 338.480469 131.878906 338.601562 131.785156 338.722656 131.691406 C 338.902344 131.558594 339.082031 131.417969 339.257812 131.277344 C 340.277344 130.660156 340.1875 129.359375 340.398438 128.335938 C 341.769531 118.089844 343.074219 107.839844 344.308594 97.582031 C 339.484375 100.359375 334.347656 102.601562 328.980469 104.109375 Z M 338.484375 111.242188 C 337.015625 112.199219 335.601562 113.257812 334.53125 114.660156 C 332.625 117.011719 329.613281 118.519531 326.546875 118.203125 C 323.570312 118.09375 320.859375 116.207031 317.847656 116.609375 C 314.800781 117.195312 313.511719 120.335938 311.367188 122.210938 C 308.921875 124.667969 305.359375 126.179688 301.875 125.433594 C 297.609375 124.734375 294.660156 120.8125 290.320312 120.398438 C 287.15625 120.308594 284.773438 122.679688 282.425781 124.457031 C 280.15625 126.289062 277.300781 127.925781 274.269531 127.308594 C 269.449219 126.511719 267.101562 121.152344 262.335938 120.253906 C 259.234375 119.734375 256.558594 121.726562 253.90625 122.984375 C 251.183594 124.429688 247.898438 125.25 244.914062 124.144531 C 242.011719 123.195312 240.042969 120.757812 237.753906 118.894531 C 236.128906 117.511719 233.871094 118.054688 231.945312 118.140625 C 230.046875 118.339844 228.09375 118.191406 226.304688 117.488281 C 223.570312 116.578125 221.546875 114.230469 218.707031 113.597656 C 217.601562 113.234375 215.925781 113.574219 215.847656 114.96875 C 215.820312 119.203125 217.65625 123.324219 217.117188 127.578125 C 216.933594 129.351562 214.640625 130.414062 213.277344 129.128906 C 211.480469 127.421875 211.332031 124.746094 210.945312 122.445312 C 210.660156 119.34375 209.996094 116.21875 210.40625 113.101562 C 210.734375 110.675781 212.636719 108.683594 214.953125 108 C 218.152344 107.023438 221.570312 108.128906 224.292969 109.863281 C 226.363281 111.140625 228.554688 112.875 231.160156 112.367188 C 233.785156 111.828125 236.621094 111.785156 239.066406 113.019531 C 241.898438 114.289062 243.734375 116.953125 246.359375 118.53125 C 248.007812 119.515625 249.929688 118.582031 251.457031 117.804688 C 254.9375 115.933594 258.742188 113.96875 262.820312 114.449219 C 266.773438 114.875 270.039062 117.394531 272.914062 119.945312 C 273.976562 120.828125 275.375 122.105469 276.816406 121.210938 C 280.148438 119.410156 282.722656 116.273438 286.480469 115.226562 C 290.539062 113.789062 294.949219 115.132812 298.441406 117.375 C 300.417969 118.46875 302.476562 120.472656 304.921875 119.605469 C 307.972656 118.359375 309.425781 115.105469 312.011719 113.21875 C 314.453125 111.089844 317.84375 110.121094 321.023438 110.933594 C 323.339844 111.171875 325.402344 112.917969 327.777344 112.53125 C 331.117188 111.386719 332.296875 107.355469 335.578125 106.078125 C 336.753906 105.621094 338.332031 105.332031 339.347656 106.285156 C 340.554688 107.777344 340.054688 110.199219 338.484375 111.242188 Z M 338.484375 111.242188 "/><path style=" stroke:none;fill-rule:nonzero;fill:#a7a857;fill-opacity:1;" d="M 338.234375 138.816406 C 337.886719 139.019531 337.535156 139.214844 337.175781 139.40625 C 336.917969 139.542969 336.667969 139.675781 336.410156 139.804688 C 336.097656 139.964844 335.792969 140.121094 335.480469 140.265625 C 335.179688 140.414062 334.882812 140.554688 334.585938 140.691406 C 334.578125 140.691406 334.574219 140.695312 334.574219 140.695312 C 334.269531 140.839844 333.964844 140.976562 333.65625 141.109375 C 333.078125 141.367188 332.496094 141.613281 331.90625 141.847656 C 331.683594 141.9375 331.464844 142.027344 331.242188 142.109375 C 330.5625 142.375 329.878906 142.632812 329.183594 142.871094 C 328.957031 142.953125 328.726562 143.03125 328.496094 143.109375 C 328.039062 143.265625 327.578125 143.414062 327.117188 143.5625 C 327.078125 143.574219 327.042969 143.589844 327.007812 143.597656 C 326.597656 143.726562 326.195312 143.851562 325.785156 143.972656 C 325.726562 143.992188 325.671875 144.007812 325.613281 144.023438 C 325.230469 144.140625 324.851562 144.25 324.46875 144.355469 C 324.351562 144.390625 324.226562 144.421875 324.105469 144.457031 C 324.097656 144.460938 324.089844 144.460938 324.078125 144.464844 C 324.074219 144.464844 324.074219 144.464844 324.074219 144.464844 C 322.234375 145.070312 319.722656 145.839844 317.042969 146.453125 C 314.097656 147.132812 310.949219 147.636719 308.28125 147.550781 C 301.753906 148.851562 295.101562 149.363281 288.472656 149.890625 C 269.792969 151.085938 250.980469 149.859375 232.554688 146.597656 C 226.417969 145.179688 220.242188 143.742188 214.433594 141.25 C 212.296875 140.371094 210.304688 139.179688 208.199219 138.234375 C 208.578125 143.054688 209.316406 147.828125 209.867188 152.625 C 210.707031 158.699219 211.269531 164.820312 212.246094 170.871094 C 214.007812 188.050781 216.789062 205.128906 218.507812 222.316406 L 218.78125 222.488281 C 218.664062 223.734375 218.714844 224.992188 218.898438 226.234375 C 219.792969 232.679688 220.484375 239.148438 221.480469 245.578125 C 222.1875 250.21875 226.351562 253.269531 230.347656 255.101562 C 238.921875 258.972656 248.335938 260.667969 257.640625 261.546875 C 262.410156 262.222656 267.242188 262.507812 272.058594 262.394531 C 278.761719 262.683594 285.480469 262.089844 292.132812 261.269531 C 299.824219 260.335938 307.460938 258.597656 314.636719 255.644531 C 317.804688 254.320312 320.886719 252.578125 323.195312 249.988281 C 324.324219 248.75 325.183594 247.191406 325.34375 245.511719 C 325.84375 244.46875 325.644531 243.269531 325.828125 242.164062 C 326.832031 234.449219 327.914062 226.75 328.9375 219.039062 C 329.4375 215.292969 330.097656 211.550781 330.078125 207.761719 L 330.3125 207.484375 C 330.992188 203.675781 331.226562 199.796875 331.808594 195.972656 C 332.71875 188.121094 333.980469 180.316406 334.769531 172.449219 C 335.675781 166.425781 336.398438 160.367188 337.109375 154.316406 C 337.75 148.984375 338.714844 143.691406 339.082031 138.332031 C 338.800781 138.496094 338.519531 138.660156 338.234375 138.816406 Z M 282.996094 201.382812 C 284.523438 201.222656 286.191406 202.199219 286.257812 203.847656 C 286.328125 207.015625 285.246094 210.125 283.796875 212.90625 C 282.527344 215.332031 280.683594 217.527344 278.203125 218.78125 C 273.664062 221.230469 267.613281 220.035156 264.175781 216.246094 C 261.496094 213.242188 259.757812 209.28125 259.699219 205.234375 C 259.707031 203.992188 259.902344 202.390625 261.15625 201.777344 C 262.414062 201.328125 263.78125 201.457031 265.097656 201.417969 C 271.0625 201.453125 277.03125 201.355469 282.996094 201.382812 Z M 260.898438 183.742188 C 262.585938 188.066406 261.417969 193.5625 257.65625 196.441406 C 254.828125 198.738281 250.789062 199.382812 247.359375 198.203125 C 241.546875 196.261719 238.472656 188.914062 240.898438 183.359375 C 242.277344 179.875 245.515625 177.242188 249.21875 176.632812 C 254.21875 175.652344 259.179688 179.132812 260.898438 183.742188 Z M 237.941406 170.765625 C 239.917969 168.191406 242.890625 166.441406 245.996094 165.578125 C 248.726562 165.019531 251.980469 164.714844 254.351562 166.460938 C 256.042969 167.644531 255.0625 170.570312 253.113281 170.726562 C 250.804688 170.808594 248.40625 170.367188 246.195312 171.242188 C 243.992188 171.953125 242.425781 173.824219 240.292969 174.652344 C 238.425781 174.941406 236.664062 172.320312 237.941406 170.765625 Z M 218.863281 183.234375 C 218.046875 179.628906 217.785156 175.929688 217.136719 172.292969 C 216.691406 166.769531 215.863281 161.269531 215.875 155.722656 C 215.835938 154.066406 216.210938 152.4375 216.980469 150.972656 C 217.667969 151.351562 218.507812 151.632812 218.878906 152.390625 C 220.265625 154.898438 220.707031 157.789062 221.222656 160.578125 C 222.023438 165.769531 222.664062 170.988281 223.3125 176.203125 C 223.542969 179.132812 224.183594 182.097656 223.722656 185.03125 C 223.5625 186.207031 222.441406 187.53125 221.152344 186.980469 C 219.6875 186.34375 219.230469 184.636719 218.863281 183.234375 Z M 220.34375 195.496094 C 220.25 194.109375 220.238281 192.261719 221.632812 191.480469 C 223.28125 190.566406 224.886719 192.238281 225.152344 193.792969 C 225.570312 195.515625 225.359375 198.246094 223.246094 198.707031 C 221.453125 199 220.425781 197.019531 220.34375 195.496094 Z M 223.683594 225.554688 C 223.578125 223.363281 223.496094 221.070312 224.320312 218.992188 C 224.628906 218.320312 225.191406 217.484375 226.054688 217.695312 C 227.386719 217.847656 227.976562 219.253906 228.378906 220.355469 C 229.242188 223.152344 229.332031 226.101562 229.886719 228.964844 C 230.058594 231.621094 230.234375 234.398438 229.199219 236.921875 C 228.253906 236.867188 227.136719 236.820312 226.648438 235.859375 C 224.730469 232.78125 224.160156 229.082031 223.683594 225.554688 Z M 297.972656 255.472656 C 293.863281 257.265625 289.34375 257.753906 284.929688 258.242188 C 278.375 258.972656 271.757812 259.089844 265.179688 258.691406 C 261.191406 258.285156 257.199219 257.917969 253.238281 257.292969 C 245.570312 255.929688 237.867188 254.015625 230.9375 250.378906 C 229.261719 249.382812 227.457031 248.335938 226.457031 246.601562 C 225.832031 245.558594 226.792969 244.109375 227.96875 244.113281 C 229.710938 244.136719 231.269531 245.042969 232.835938 245.71875 C 237.703125 248.007812 242.917969 249.433594 248.160156 250.574219 C 261.257812 253.207031 274.796875 253.769531 288.058594 252.144531 C 290.949219 251.832031 293.800781 251.070312 296.722656 251.136719 C 298.152344 251.109375 299.261719 252.101562 300.3125 252.9375 C 299.761719 253.964844 299.125 255.046875 297.972656 255.472656 Z M 304.152344 193.40625 C 301.761719 197.480469 296.582031 199.722656 291.996094 198.398438 C 287.210938 197.152344 283.84375 192.238281 284.148438 187.355469 C 284.339844 182.800781 287.375 178.285156 291.867188 177.011719 C 296.800781 175.328125 302.453125 178.105469 304.570312 182.757812 C 306.191406 186.085938 306.058594 190.222656 304.152344 193.40625 Z M 305.058594 174.433594 C 304.070312 174.183594 303.285156 173.472656 302.441406 172.945312 C 300.375 171.519531 297.9375 170.40625 295.371094 170.574219 C 294.097656 170.566406 292.777344 170.933594 291.527344 170.574219 C 290.234375 169.855469 289.773438 167.859375 290.789062 166.71875 C 291.644531 165.765625 292.945312 165.390625 294.167969 165.171875 C 298.203125 164.441406 302.445312 165.863281 305.453125 168.582031 C 306.464844 169.546875 307.472656 170.757812 307.496094 172.230469 C 307.515625 173.480469 306.238281 174.453125 305.058594 174.433594 Z M 312.242188 251.519531 C 310.820312 252.027344 309.417969 251.386719 308.285156 250.554688 C 309.527344 246.574219 313.820312 244.078125 317.84375 244.046875 C 319.132812 243.9375 319.882812 245.046875 320.515625 245.984375 C 318.4375 248.632812 315.445312 250.542969 312.242188 251.519531 Z M 321.101562 234.601562 C 320.648438 235.636719 320.027344 236.890625 318.773438 237.054688 C 317.554688 236.953125 317.039062 235.605469 316.894531 234.574219 C 316.667969 232.347656 317.109375 230.113281 317.652344 227.964844 C 318.078125 226.578125 318.597656 225.027344 319.878906 224.199219 C 321.054688 223.785156 322.035156 224.972656 322.195312 226.039062 C 322.660156 228.914062 322.175781 231.90625 321.101562 234.601562 Z M 331.648438 157.589844 C 331.21875 163.085938 330.453125 168.546875 329.726562 174.007812 C 328.617188 181.636719 327.800781 189.308594 326.492188 196.910156 C 326.039062 198.773438 325.671875 201.191406 323.703125 202.054688 C 322.445312 202.558594 321.3125 201.273438 321.214844 200.109375 C 320.878906 197.136719 321.46875 194.167969 321.816406 191.226562 C 322.4375 186.90625 322.871094 182.566406 323.523438 178.253906 C 324.492188 171.902344 325.175781 165.515625 326.355469 159.203125 C 326.855469 156.9375 327.210938 154.5625 328.421875 152.546875 C 328.890625 151.605469 330.480469 150.851562 331.105469 152.046875 C 331.960938 153.75 331.695312 155.746094 331.648438 157.589844 Z M 331.648438 157.589844 "/><path style=" stroke:none;fill-rule:nonzero;fill:#f3dec8;fill-opacity:1;" d="M 245.121094 182.070312 C 243.765625 183.457031 242.621094 185.535156 243.386719 187.484375 C 244.394531 188.960938 246.550781 188.378906 247.753906 187.457031 C 250.050781 185.617188 251.480469 182.863281 252.199219 180.042969 C 249.699219 179.160156 246.851562 180.144531 245.121094 182.070312 Z M 245.121094 182.070312 "/><path style=" stroke:none;fill-rule:nonzero;fill:#f3dec8;fill-opacity:1;" d="M 288.601562 182.886719 C 287.558594 184.289062 286.59375 186.769531 288.296875 188.042969 C 289.902344 188.691406 291.695312 187.828125 292.800781 186.632812 C 294.503906 184.757812 295.769531 182.453125 296.316406 179.972656 C 293.433594 179.320312 290.242188 180.375 288.601562 182.886719 Z M 288.601562 182.886719 "/><path style=" stroke:none;fill-rule:nonzero;fill:#f3dec8;fill-opacity:1;" d="M 172.613281 85.410156 C 170.730469 81.824219 166.910156 79.835938 163.414062 78.109375 C 152.351562 73.164062 140.273438 71.050781 128.304688 69.707031 C 123.300781 69.054688 118.257812 68.734375 113.222656 68.46875 C 99.957031 68.074219 86.636719 68.253906 73.449219 69.839844 C 67.34375 70.621094 61.25 71.582031 55.246094 72.945312 C 48.105469 74.664062 40.851562 76.75 34.730469 80.953125 C 32.78125 82.390625 30.675781 84.074219 30.019531 86.511719 C 29.550781 88.675781 31.21875 90.492188 32.757812 91.75 C 36.589844 94.734375 41.199219 96.492188 45.738281 98.09375 C 46.980469 98.429688 48.347656 99.214844 49.605469 98.519531 C 58.128906 94.6875 67.21875 92.410156 76.292969 90.3125 C 77.5625 90.03125 78.84375 89.816406 80.125 89.59375 C 81.230469 87.359375 82.015625 84.9375 83.503906 82.921875 C 84.625 81.488281 86.632812 81.640625 88.257812 81.421875 C 97.023438 80.984375 105.808594 80.59375 114.589844 80.792969 C 116.378906 80.910156 118.691406 81.195312 119.433594 83.113281 C 120.519531 85.808594 120.570312 88.785156 121.457031 91.542969 C 123.304688 91.75 125.132812 92.117188 126.984375 92.277344 C 134.917969 93.746094 142.992188 94.894531 150.550781 97.832031 C 151.578125 98.214844 152.554688 98.777344 153.652344 98.957031 C 155.632812 98.710938 157.492188 97.902344 159.382812 97.289062 C 163.679688 95.664062 168.105469 93.828125 171.40625 90.527344 C 172.78125 89.257812 173.652344 87.15625 172.613281 85.410156 Z M 83.429688 76.882812 C 80.675781 78.105469 77.570312 78.082031 74.648438 78.671875 C 70.378906 79.40625 66.082031 79.992188 61.855469 80.945312 C 55.351562 82.5 48.953125 84.53125 42.796875 87.148438 C 41.019531 87.863281 39.378906 88.921875 37.511719 89.375 C 36.402344 89.664062 35.011719 88.707031 35.285156 87.484375 C 35.636719 86.046875 36.839844 85.03125 37.929688 84.125 C 41.90625 81.074219 46.6875 79.328125 51.4375 77.898438 C 58.773438 75.757812 66.324219 74.292969 73.957031 73.808594 C 77.128906 73.871094 80.488281 73.363281 83.5 74.585938 C 84.601562 74.941406 84.410156 76.503906 83.429688 76.882812 Z M 164.730469 89.21875 C 161.960938 88.082031 159.375 86.535156 156.625 85.355469 C 154.421875 84.246094 151.917969 83.5 150.136719 81.726562 C 149.179688 80.539062 150.976562 79.863281 151.914062 79.75 C 155.84375 79.253906 159.648438 80.859375 163.09375 82.566406 C 165.105469 83.714844 167.515625 85.316406 167.628906 87.867188 C 167.6875 89.316406 165.808594 89.773438 164.730469 89.21875 Z M 164.730469 89.21875 "/><path style=" stroke:none;fill-rule:nonzero;fill:#f3dec8;fill-opacity:1;" d="M 344.652344 85 C 343.132812 85.777344 341.53125 86.4375 340.144531 87.445312 C 337.996094 84.507812 334.066406 84.019531 330.695312 84.214844 C 329.28125 84.234375 327.738281 84.605469 326.441406 83.871094 C 323.519531 82.28125 321.082031 79.90625 318.027344 78.546875 C 314.5 76.992188 310.546875 76.527344 306.726562 76.929688 C 303.769531 77.175781 301.097656 78.488281 298.332031 79.410156 C 294.84375 80.425781 291.597656 78.269531 288.632812 76.75 C 283.457031 73.882812 277.421875 72.367188 271.507812 73.164062 C 266.992188 73.898438 263.136719 76.539062 259.425781 79.039062 C 257.890625 80.066406 255.902344 80.90625 254.078125 80.113281 C 251.777344 79.082031 249.683594 77.609375 247.28125 76.792969 C 241.441406 74.574219 234.796875 75.894531 229.492188 78.898438 C 226.886719 80.296875 224.851562 82.628906 222.046875 83.664062 C 218.839844 83.121094 215.457031 82.597656 212.300781 83.691406 C 210.628906 84.308594 208.851562 85.320312 208.179688 87.070312 C 207.691406 88.234375 208.894531 89.050781 209.503906 89.871094 C 209.933594 90.398438 210.339844 90.945312 210.742188 91.5 C 210.1875 92.34375 209.632812 93.1875 209.078125 94.027344 C 206.148438 92.640625 203.128906 90.589844 201.992188 87.414062 C 202.070312 85.261719 203.714844 83.554688 205.214844 82.160156 C 209.910156 78.234375 215.828125 76.226562 221.589844 74.417969 C 230.671875 71.625 240.109375 70.289062 249.542969 69.390625 C 257.453125 68.601562 265.402344 68.253906 273.351562 68.324219 C 286.058594 68.222656 298.820312 68.957031 311.335938 71.28125 C 319.792969 72.71875 328.28125 74.667969 336.058594 78.398438 C 339.300781 80.015625 342.574219 81.9375 344.652344 85 Z M 344.652344 85 "/><path style=" stroke:none;fill-rule:nonzero;fill:#f3dec8;fill-opacity:1;" d="M 114.5625 86.589844 C 107.246094 86.503906 99.921875 86.644531 92.609375 86.910156 C 90.617188 86.992188 88.617188 87.121094 86.636719 87.421875 C 87.542969 90.148438 88.707031 92.773438 89.621094 95.492188 C 90.78125 98.691406 91.609375 101.992188 92.703125 105.210938 C 98.476562 105.480469 104.28125 105.46875 110.0625 105.242188 C 111.164062 102.46875 112.128906 99.609375 113.707031 97.0625 C 114.257812 96.121094 115.292969 95.683594 116.222656 95.214844 C 115.742188 92.324219 115.167969 89.449219 114.5625 86.589844 Z M 111.058594 92.558594 C 106.878906 94.296875 102.144531 94.09375 97.753906 93.402344 C 96.332031 93.011719 94.304688 92.746094 93.808594 91.117188 C 94.832031 89.207031 97.335938 89.105469 99.226562 88.695312 C 103.269531 88.253906 107.585938 88.121094 111.386719 89.757812 C 112.855469 90.246094 112.375 92.222656 111.058594 92.558594 Z M 111.058594 92.558594 "/><path style=" stroke:none;fill-rule:nonzero;fill:#f3dec8;fill-opacity:1;" d="M 81.945312 100.28125 C 81.453125 99.433594 80.8125 98.433594 79.699219 98.488281 C 75.613281 98.511719 71.78125 100.121094 67.957031 101.367188 C 66.757812 101.703125 65.625 102.621094 64.316406 102.28125 C 62.550781 101.960938 60.785156 101.628906 59.023438 101.265625 C 61.039062 100.066406 63.382812 99.597656 65.625 98.964844 C 71.535156 97.585938 77.378906 95.871094 83.347656 94.75 C 84.570312 98.035156 85.472656 101.4375 86.425781 104.804688 C 83.128906 104.65625 79.839844 104.386719 76.546875 104.160156 C 78.546875 103.191406 80.679688 102.199219 81.945312 100.28125 Z M 81.945312 100.28125 "/><path style=" stroke:none;fill-rule:nonzero;fill:#f3dec8;fill-opacity:1;" d="M 73.761719 179.554688 C 73.097656 180.75 72.320312 182.472656 73.335938 183.6875 C 74.636719 184.886719 76.550781 184.007812 77.761719 183.109375 C 79.96875 181.351562 81.441406 178.730469 82.066406 176 C 78.863281 175.101562 75.351562 176.683594 73.761719 179.554688 Z M 73.761719 179.554688 "/><path style=" stroke:none;fill-rule:nonzero;fill:#f3dec8;fill-opacity:1;" d="M 117.011719 179.664062 C 116.335938 180.914062 115.703125 182.988281 117.191406 183.90625 C 118.792969 184.738281 120.566406 183.628906 121.726562 182.539062 C 123.539062 180.726562 125.039062 178.425781 125.398438 175.851562 C 122.113281 175.101562 118.554688 176.65625 117.011719 179.664062 Z M 117.011719 179.664062 "/><path style=" stroke:none;fill-rule:nonzero;fill:#a7a857;fill-opacity:1;" d="M 344.652344 85 C 343.132812 85.777344 341.53125 86.4375 340.144531 87.445312 C 339.425781 88.316406 338.953125 89.597656 337.769531 89.921875 C 336.335938 90.234375 334.863281 90.03125 333.417969 90.007812 C 330.460938 89.863281 327.378906 90.105469 324.570312 88.988281 C 321.304688 87.75 318.90625 85.003906 315.664062 83.710938 C 312.730469 82.492188 309.425781 82.023438 306.332031 82.855469 C 303.324219 83.660156 300.519531 85.105469 297.421875 85.566406 C 293.898438 85.347656 290.476562 84.308594 287.390625 82.617188 C 282.425781 79.996094 276.671875 77.800781 271.007812 79.199219 C 266.523438 80.292969 263.503906 84.179688 259.230469 85.699219 C 256.796875 86.589844 254.183594 86.132812 251.757812 85.484375 C 248.792969 83.957031 245.933594 82.023438 242.578125 81.511719 C 239.546875 80.988281 236.398438 81.640625 233.703125 83.066406 C 231.226562 84.335938 229.335938 86.464844 226.894531 87.789062 C 225.5 88.5625 223.949219 88.992188 222.390625 89.269531 C 220.230469 89.199219 218.113281 88.703125 215.960938 88.554688 C 213.730469 88.386719 211.585938 89.179688 209.503906 89.871094 C 209.933594 90.398438 210.339844 90.945312 210.742188 91.5 C 210.1875 92.34375 209.632812 93.1875 209.078125 94.027344 C 213.511719 96.507812 218.371094 98.195312 223.308594 99.347656 C 231.847656 101.671875 240.65625 102.898438 249.457031 103.804688 C 270.859375 105.648438 292.546875 105.332031 313.753906 101.6875 C 321.441406 100.296875 329.171875 98.585938 336.3125 95.332031 C 339.179688 93.945312 342.121094 92.382812 344.097656 89.816406 C 345.160156 88.484375 345.679688 86.496094 344.652344 85 Z M 237.757812 93.574219 C 235.847656 94.785156 233.414062 94.625 231.304688 94.121094 C 230.210938 93.90625 229.03125 92.929688 229.4375 91.699219 C 230.035156 90.207031 231.578125 89.242188 233.128906 88.980469 C 235.027344 88.683594 237.363281 88.871094 238.628906 90.511719 C 239.4375 91.53125 238.761719 92.980469 237.757812 93.574219 Z M 255.074219 98.0625 C 253.285156 99.371094 250.867188 99.480469 248.761719 99.058594 C 247.613281 98.828125 246.359375 97.898438 246.488281 96.601562 C 246.6875 95.253906 248.019531 94.46875 249.210938 94.089844 C 251.191406 93.542969 253.550781 93.675781 255.195312 95.019531 C 256.191406 95.761719 256.121094 97.394531 255.074219 98.0625 Z M 281.128906 95.585938 C 280.253906 97.179688 278.234375 97.554688 276.578125 97.621094 C 274.855469 97.632812 272.753906 97.472656 271.671875 95.941406 C 270.84375 94.167969 272.878906 92.597656 274.453125 92.292969 C 276.324219 91.925781 278.398438 92.0625 280.058594 93.074219 C 280.878906 93.5625 281.660156 94.621094 281.128906 95.585938 Z M 297.863281 98.59375 C 295.695312 99.019531 292.984375 99.066406 291.300781 97.429688 C 290.09375 95.769531 292.152344 93.984375 293.722656 93.675781 C 295.945312 93.1875 298.695312 93.613281 300.160156 95.5 C 300.96875 97.039062 299.1875 98.296875 297.863281 98.59375 Z M 317.59375 94.054688 C 316.46875 95.242188 314.707031 95.269531 313.1875 95.316406 C 311.664062 95 309.59375 94.324219 309.445312 92.492188 C 310.078125 90.21875 312.886719 89.84375 314.898438 89.839844 C 315.976562 90.210938 317.15625 90.589844 317.917969 91.5 C 318.523438 92.265625 318.25 93.410156 317.59375 94.054688 Z M 317.59375 94.054688 "/><path style=" stroke:none;fill-rule:nonzero;fill:#9b6349;fill-opacity:1;" d="M 123.746094 97.609375 C 130.238281 98.617188 136.722656 99.726562 143.074219 101.433594 C 140.976562 101.996094 138.8125 102.261719 136.671875 102.632812 C 134.832031 103.082031 133.222656 101.847656 131.613281 101.183594 C 129.058594 99.839844 126.199219 99.144531 123.746094 97.609375 Z M 123.746094 97.609375 "/><path style=" stroke:none;fill-rule:nonzero;fill:#9b6349;fill-opacity:1;" d="M 117.453125 101.257812 C 120.296875 101.898438 123.132812 102.734375 125.691406 104.164062 C 122.488281 104.53125 119.269531 104.664062 116.046875 104.695312 C 116.453125 103.527344 116.925781 102.382812 117.453125 101.257812 Z M 117.453125 101.257812 "/><path style=" stroke:none;fill-rule:nonzero;fill:#9b6349;fill-opacity:1;" d="M 38.835938 118.492188 C 41.179688 116.558594 43.699219 114.671875 46.664062 113.820312 C 48.070312 117.660156 48.953125 121.664062 50.40625 125.488281 C 51.691406 128.738281 55.351562 129.839844 58.382812 130.804688 C 62.921875 132.3125 67.601562 130.648438 72.050781 129.664062 C 79.738281 127.625 87.554688 126.023438 95.050781 123.332031 C 96.140625 122.910156 97.574219 122.234375 97.515625 120.859375 C 97.382812 118.992188 96.503906 117.273438 95.496094 115.734375 C 98.199219 115.484375 100.894531 115.179688 103.617188 115.203125 C 102.382812 118.664062 101.535156 122.242188 100.738281 125.828125 C 100.40625 127.609375 99.949219 129.648438 101.015625 131.285156 C 102.152344 132.945312 104.039062 133.859375 105.769531 134.789062 C 108.917969 136.300781 112.097656 137.769531 115.390625 138.949219 C 115.988281 139.152344 116.515625 139.515625 117.015625 139.898438 C 107.53125 140.582031 98.007812 140.425781 88.515625 139.914062 C 77.515625 139.257812 66.539062 137.773438 55.820312 135.191406 C 49.703125 133.550781 43.402344 131.8125 38.195312 128.0625 C 36.8125 126.996094 35.148438 125.597656 35.304688 123.671875 C 35.707031 121.550781 37.308594 119.910156 38.835938 118.492188 Z M 80.925781 132.144531 C 78.8125 132.582031 76.390625 133.121094 75.105469 135.035156 C 77.675781 136.34375 80.628906 136.414062 83.445312 136.570312 C 86.488281 136.5625 89.648438 136.597656 92.511719 135.425781 C 92.527344 135.140625 92.5625 134.570312 92.578125 134.285156 C 89.132812 132.203125 84.882812 131.589844 80.925781 132.144531 Z M 80.925781 132.144531 "/><path style=" stroke:none;fill-rule:nonzero;fill:#9b6349;fill-opacity:1;" d="M 167.328125 122.351562 C 165.722656 119.195312 162.757812 116.84375 159.609375 115.320312 C 158.960938 118.730469 158.59375 122.195312 157.839844 125.589844 C 157.585938 126.597656 157.296875 127.664062 156.554688 128.433594 C 155.59375 129.535156 154.125 128.476562 152.964844 128.347656 C 152.535156 127.472656 152.242188 126.515625 152.4375 125.539062 C 152.964844 121.53125 153.976562 117.609375 154.496094 113.601562 C 150.085938 113.941406 145.820312 115.242188 141.5 116.101562 C 138.839844 116.851562 136.007812 117.109375 133.464844 118.207031 C 131.722656 124.105469 130.304688 130.113281 129.078125 136.140625 C 133.847656 135.90625 138.484375 134.640625 143.191406 133.9375 C 144.273438 133.734375 145.363281 133.9375 146.394531 134.28125 C 146.386719 134.589844 146.371094 135.21875 146.363281 135.53125 C 149.546875 135.082031 152.605469 134.035156 155.636719 132.996094 C 159.542969 131.644531 163.386719 129.695312 166.1875 126.582031 C 167.171875 125.460938 168.152344 123.835938 167.328125 122.351562 Z M 144.261719 129.582031 C 144.027344 126.75 144.949219 123.972656 145.71875 121.28125 C 146.417969 119.375 147.003906 117.195312 148.664062 115.894531 C 150.320312 115.6875 150.710938 117.828125 150.785156 119.070312 C 150.773438 122.679688 150.050781 126.46875 148.054688 129.527344 C 147.296875 130.847656 144.710938 131.40625 144.261719 129.582031 Z M 144.261719 129.582031 "/><path style=" stroke:none;fill-rule:nonzero;fill:#b85b4d;fill-opacity:1;" d="M 95.472656 209.371094 C 97.75 206.644531 101.746094 206.398438 104.992188 207.085938 C 106.488281 207.5 108.382812 208.128906 108.832031 209.804688 C 107.613281 211.878906 104.988281 212.6875 102.707031 212.742188 C 100 212.773438 96.789062 211.988281 95.472656 209.371094 Z M 95.472656 209.371094 "/><path style=" stroke:none;fill-rule:nonzero;fill:#b85b4d;fill-opacity:1;" d="M 270.292969 211.347656 C 273.230469 210.554688 276.929688 210.921875 278.980469 213.390625 C 279.804688 214.34375 278.636719 215.238281 277.875 215.699219 C 274.769531 217.867188 270.4375 217.378906 267.457031 215.253906 C 266.902344 214.914062 266.484375 214.179688 266.882812 213.570312 C 267.632812 212.378906 268.980469 211.722656 270.292969 211.347656 Z M 270.292969 211.347656 "/></g></svg>