<svg xmlns="http://www.w3.org/2000/svg" xmlns:xlink="http://www.w3.org/1999/xlink" width="500" zoomAndPan="magnify" viewBox="0 0 375 374.999991" height="500" preserveAspectRatio="xMidYMid meet" version="1.2"><defs><clipPath id="fa4eea5e8e"><rect x="0" width="176" y="0" height="109"/></clipPath><clipPath id="c85c6bb405"><path d="M 0.160156 3 L 5 3 L 5 10 L 0.160156 10 Z M 0.160156 3 "/></clipPath><clipPath id="8ab778ce98"><path d="M 4 0.199219 L 8 0.199219 L 8 10 L 4 10 Z M 4 0.199219 "/></clipPath><clipPath id="7916d2a3c4"><path d="M 23 0.199219 L 30 0.199219 L 30 9 L 23 9 Z M 23 0.199219 "/></clipPath><clipPath id="bf0367ef60"><path d="M 29 0.199219 L 36 0.199219 L 36 10 L 29 10 Z M 29 0.199219 "/></clipPath><clipPath id="4eeef97dee"><path d="M 34 0.199219 L 41 0.199219 L 41 9 L 34 9 Z M 34 0.199219 "/></clipPath><clipPath id="bc292549d1"><path d="M 40 0.199219 L 47 0.199219 L 47 10 L 40 10 Z M 40 0.199219 "/></clipPath><clipPath id="0f598b76d1"><rect x="0" width="49" y="0" height="13"/></clipPath></defs><g id="0f4d08679c"><g style="fill:#ffeffa;fill-opacity:1;"><g transform="translate(-0.493199, 173.584009)"><path style="stroke:none" d="M 29.578125 -65.796875 L 3.234375 -65.796875 L 3.234375 -64.234375 L 11.65625 -64.234375 L 11.65625 -1.5625 L 3.234375 -1.5625 L 3.234375 0 L 29.578125 0 L 29.578125 -1.5625 L 21.15625 -1.5625 L 21.15625 -34.171875 L 47.09375 -34.171875 L 47.09375 -1.5625 L 38.671875 -1.5625 L 38.671875 0 L 65.015625 0 L 65.015625 -1.5625 L 56.59375 -1.5625 L 56.59375 -64.234375 L 65.015625 -64.234375 L 65.015625 -65.796875 L 38.671875 -65.796875 L 38.671875 -64.234375 L 47.09375 -64.234375 L 47.09375 -35.84375 L 21.15625 -35.84375 L 21.15625 -64.234375 L 29.578125 -64.234375 Z M 29.578125 -65.796875 "/></g></g><g style="fill:#ffeffa;fill-opacity:1;"><g transform="translate(55.41217, 173.584009)"><path style="stroke:none" d="M 34.265625 1.859375 C 38.453125 1.859375 42.390625 0.894531 46.078125 -1.03125 C 49.765625 -2.957031 52.976562 -5.519531 55.71875 -8.71875 C 58.457031 -11.914062 60.625 -15.585938 62.21875 -19.734375 C 63.820312 -23.878906 64.625 -28.171875 64.625 -32.609375 C 64.625 -37.046875 63.820312 -41.335938 62.21875 -45.484375 C 60.625 -49.628906 58.457031 -53.285156 55.71875 -56.453125 C 52.976562 -59.617188 49.765625 -62.144531 46.078125 -64.03125 C 42.390625 -65.925781 38.453125 -66.875 34.265625 -66.875 C 30.085938 -66.875 26.15625 -65.925781 22.46875 -64.03125 C 18.78125 -62.144531 15.566406 -59.617188 12.828125 -56.453125 C 10.085938 -53.285156 7.914062 -49.628906 6.3125 -45.484375 C 4.71875 -41.335938 3.921875 -37.046875 3.921875 -32.609375 C 3.921875 -28.171875 4.71875 -23.878906 6.3125 -19.734375 C 7.914062 -15.585938 10.085938 -11.914062 12.828125 -8.71875 C 15.566406 -5.519531 18.78125 -2.957031 22.46875 -1.03125 C 26.15625 0.894531 30.085938 1.859375 34.265625 1.859375 Z M 34.265625 -65.125 C 37.203125 -65.125 39.8125 -64.664062 42.09375 -63.75 C 44.382812 -62.832031 46.296875 -61.296875 47.828125 -59.140625 C 49.367188 -56.984375 50.546875 -54.144531 51.359375 -50.625 C 52.171875 -47.101562 52.578125 -42.726562 52.578125 -37.5 L 52.578125 -27.71875 C 52.578125 -18.25 51.007812 -11.242188 47.875 -6.703125 C 44.75 -2.171875 40.210938 0.09375 34.265625 0.09375 C 28.328125 0.09375 23.789062 -2.171875 20.65625 -6.703125 C 17.53125 -11.242188 15.96875 -18.25 15.96875 -27.71875 L 15.96875 -37.5 C 15.96875 -42.59375 16.375 -46.882812 17.1875 -50.375 C 18 -53.875 19.171875 -56.71875 20.703125 -58.90625 C 22.242188 -61.09375 24.15625 -62.675781 26.4375 -63.65625 C 28.71875 -64.632812 31.328125 -65.125 34.265625 -65.125 Z M 34.265625 -65.125 "/></g></g><g style="fill:#ffeffa;fill-opacity:1;"><g transform="translate(111.904998, 173.584009)"><path style="stroke:none" d="M 28.5 -65.796875 L 2.15625 -65.796875 L 2.15625 -64.234375 L 10.578125 -64.234375 L 10.578125 -16.359375 C 10.578125 -12.890625 11.242188 -9.992188 12.578125 -7.671875 C 13.921875 -5.359375 15.648438 -3.484375 17.765625 -2.046875 C 19.890625 -0.617188 22.253906 0.382812 24.859375 0.96875 C 27.472656 1.5625 30.054688 1.859375 32.609375 1.859375 C 38.804688 1.859375 43.632812 0.34375 47.09375 -2.6875 C 50.5625 -5.726562 52.296875 -10.285156 52.296875 -16.359375 L 52.296875 -64.234375 L 60.71875 -64.234375 L 60.71875 -65.796875 L 42.296875 -65.796875 L 42.296875 -64.234375 L 50.71875 -64.234375 L 50.71875 -16.359375 C 50.71875 -13.742188 50.3125 -11.40625 49.5 -9.34375 C 48.6875 -7.289062 47.5625 -5.5625 46.125 -4.15625 C 44.6875 -2.757812 43.003906 -1.703125 41.078125 -0.984375 C 39.148438 -0.265625 37.078125 0.09375 34.859375 0.09375 C 30.285156 0.09375 26.675781 -1.320312 24.03125 -4.15625 C 21.394531 -7 20.078125 -11.066406 20.078125 -16.359375 L 20.078125 -64.234375 L 28.5 -64.234375 Z M 28.5 -65.796875 "/></g></g><g style="fill:#ffeffa;fill-opacity:1;"><g transform="translate(163.208595, 173.584009)"><path style="stroke:none" d="M 44.15625 -66.484375 L 41.328125 -62.859375 C 40.148438 -63.515625 39.035156 -64.101562 37.984375 -64.625 C 36.941406 -65.144531 35.882812 -65.566406 34.8125 -65.890625 C 33.738281 -66.222656 32.597656 -66.46875 31.390625 -66.625 C 30.179688 -66.789062 28.789062 -66.875 27.21875 -66.875 C 24.019531 -66.875 21.164062 -66.351562 18.65625 -65.3125 C 16.144531 -64.269531 14.003906 -62.863281 12.234375 -61.09375 C 10.472656 -59.332031 9.132812 -57.3125 8.21875 -55.03125 C 7.3125 -52.75 6.859375 -50.332031 6.859375 -47.78125 C 6.859375 -44.320312 7.914062 -41.15625 10.03125 -38.28125 C 12.15625 -35.414062 15.46875 -33.234375 19.96875 -31.734375 C 22.125 -31.015625 23.953125 -30.425781 25.453125 -29.96875 C 26.960938 -29.507812 28.367188 -29.066406 29.671875 -28.640625 C 30.972656 -28.210938 32.289062 -27.753906 33.625 -27.265625 C 34.96875 -26.773438 36.519531 -26.109375 38.28125 -25.265625 C 40.5 -24.222656 42 -22.769531 42.78125 -20.90625 C 43.570312 -19.039062 43.96875 -17.164062 43.96875 -15.28125 C 43.96875 -12.925781 43.507812 -10.785156 42.59375 -8.859375 C 41.675781 -6.929688 40.46875 -5.316406 38.96875 -4.015625 C 37.46875 -2.710938 35.738281 -1.703125 33.78125 -0.984375 C 31.820312 -0.265625 29.832031 0.09375 27.8125 0.09375 C 25.457031 0.09375 23.203125 -0.3125 21.046875 -1.125 C 18.898438 -1.9375 16.910156 -3.09375 15.078125 -4.59375 C 13.253906 -6.101562 11.671875 -7.96875 10.328125 -10.1875 C 8.992188 -12.40625 7.96875 -14.882812 7.25 -17.625 C 7.050781 -18.476562 6.691406 -18.90625 6.171875 -18.90625 C 5.710938 -18.90625 5.484375 -18.445312 5.484375 -17.53125 L 5.484375 0 C 5.484375 0.84375 5.773438 1.265625 6.359375 1.265625 C 6.753906 1.265625 7.179688 0.941406 7.640625 0.296875 L 11.15625 -4.796875 C 11.945312 -4.078125 12.910156 -3.328125 14.046875 -2.546875 C 15.191406 -1.765625 16.460938 -1.046875 17.859375 -0.390625 C 19.265625 0.265625 20.769531 0.800781 22.375 1.21875 C 23.976562 1.644531 25.625 1.859375 27.3125 1.859375 C 30.445312 1.859375 33.351562 1.285156 36.03125 0.140625 C 38.707031 -0.992188 41.023438 -2.570312 42.984375 -4.59375 C 44.941406 -6.625 46.492188 -9.023438 47.640625 -11.796875 C 48.785156 -14.578125 49.359375 -17.566406 49.359375 -20.765625 C 49.359375 -25.128906 48.328125 -28.828125 46.265625 -31.859375 C 44.210938 -34.898438 40.96875 -37.078125 36.53125 -38.390625 C 35.019531 -38.847656 33.613281 -39.238281 32.3125 -39.5625 C 31.007812 -39.882812 29.671875 -40.238281 28.296875 -40.625 C 26.929688 -41.019531 25.492188 -41.460938 23.984375 -41.953125 C 22.484375 -42.441406 20.820312 -43.046875 19 -43.765625 C 16.976562 -44.554688 15.441406 -45.765625 14.390625 -47.390625 C 13.347656 -49.023438 12.828125 -50.921875 12.828125 -53.078125 C 12.828125 -55.097656 13.25 -56.875 14.09375 -58.40625 C 14.945312 -59.945312 16.039062 -61.207031 17.375 -62.1875 C 18.71875 -63.164062 20.253906 -63.898438 21.984375 -64.390625 C 23.710938 -64.878906 25.457031 -65.125 27.21875 -65.125 C 29.894531 -65.125 32.242188 -64.664062 34.265625 -63.75 C 36.296875 -62.832031 37.992188 -61.625 39.359375 -60.125 C 40.734375 -58.625 41.828125 -56.894531 42.640625 -54.9375 C 43.460938 -52.976562 44.003906 -50.953125 44.265625 -48.859375 C 44.328125 -48.210938 44.617188 -47.890625 45.140625 -47.890625 C 45.597656 -47.890625 45.828125 -48.210938 45.828125 -48.859375 L 45.828125 -66.296875 C 45.828125 -66.941406 45.628906 -67.265625 45.234375 -67.265625 C 44.910156 -67.265625 44.550781 -67.003906 44.15625 -66.484375 Z M 44.15625 -66.484375 "/></g></g><g style="fill:#ffeffa;fill-opacity:1;"><g transform="translate(205.112805, 173.584009)"><path style="stroke:none" d="M 21.15625 -33.875 L 28.890625 -33.875 C 30.328125 -33.875 31.46875 -33.660156 32.3125 -33.234375 C 33.164062 -32.816406 33.835938 -32.21875 34.328125 -31.4375 C 34.816406 -30.65625 35.191406 -29.707031 35.453125 -28.59375 C 35.710938 -27.476562 35.972656 -26.238281 36.234375 -24.875 C 36.429688 -23.957031 36.691406 -23.5 37.015625 -23.5 C 37.410156 -23.5 37.609375 -23.925781 37.609375 -24.78125 L 37.609375 -44.65625 C 37.609375 -45.4375 37.410156 -45.828125 37.015625 -45.828125 C 36.691406 -45.828125 36.429688 -45.367188 36.234375 -44.453125 C 35.972656 -43.085938 35.710938 -41.847656 35.453125 -40.734375 C 35.191406 -39.628906 34.816406 -38.679688 34.328125 -37.890625 C 33.835938 -37.109375 33.164062 -36.503906 32.3125 -36.078125 C 31.46875 -35.660156 30.328125 -35.453125 28.890625 -35.453125 L 21.15625 -35.453125 L 21.15625 -64.234375 L 36.03125 -64.234375 C 38.25 -64.234375 40.109375 -63.691406 41.609375 -62.609375 C 43.117188 -61.535156 44.328125 -60.195312 45.234375 -58.59375 C 46.148438 -57 46.820312 -55.304688 47.25 -53.515625 C 47.675781 -51.722656 47.921875 -50.109375 47.984375 -48.671875 C 47.984375 -47.753906 48.242188 -47.296875 48.765625 -47.296875 C 49.222656 -47.296875 49.453125 -47.71875 49.453125 -48.5625 L 49.453125 -63.453125 C 49.453125 -65.015625 48.632812 -65.796875 47 -65.796875 L 3.234375 -65.796875 L 3.234375 -64.234375 L 11.65625 -64.234375 L 11.65625 -1.5625 L 3.328125 -1.5625 L 3.328125 0 L 49.359375 0 C 51.242188 0 52.1875 -1.046875 52.1875 -3.140625 L 52.1875 -17.828125 C 52.1875 -19.390625 51.925781 -20.171875 51.40625 -20.171875 C 50.945312 -20.171875 50.585938 -19.484375 50.328125 -18.109375 C 49.804688 -15.628906 49.25 -13.378906 48.65625 -11.359375 C 48.070312 -9.335938 47.289062 -7.59375 46.3125 -6.125 C 45.332031 -4.65625 44.09375 -3.523438 42.59375 -2.734375 C 41.09375 -1.953125 39.203125 -1.5625 36.921875 -1.5625 L 21.15625 -1.5625 Z M 21.15625 -33.875 "/></g></g><g style="fill:#ffeffa;fill-opacity:1;"><g transform="translate(250.150156, 173.584009)"><path style="stroke:none" d=""/></g></g><g style="fill:#ffeffa;fill-opacity:1;"><g transform="translate(265.324929, 173.584009)"><path style="stroke:none" d="M 34.265625 1.859375 C 38.453125 1.859375 42.390625 0.894531 46.078125 -1.03125 C 49.765625 -2.957031 52.976562 -5.519531 55.71875 -8.71875 C 58.457031 -11.914062 60.625 -15.585938 62.21875 -19.734375 C 63.820312 -23.878906 64.625 -28.171875 64.625 -32.609375 C 64.625 -37.046875 63.820312 -41.335938 62.21875 -45.484375 C 60.625 -49.628906 58.457031 -53.285156 55.71875 -56.453125 C 52.976562 -59.617188 49.765625 -62.144531 46.078125 -64.03125 C 42.390625 -65.925781 38.453125 -66.875 34.265625 -66.875 C 30.085938 -66.875 26.15625 -65.925781 22.46875 -64.03125 C 18.78125 -62.144531 15.566406 -59.617188 12.828125 -56.453125 C 10.085938 -53.285156 7.914062 -49.628906 6.3125 -45.484375 C 4.71875 -41.335938 3.921875 -37.046875 3.921875 -32.609375 C 3.921875 -28.171875 4.71875 -23.878906 6.3125 -19.734375 C 7.914062 -15.585938 10.085938 -11.914062 12.828125 -8.71875 C 15.566406 -5.519531 18.78125 -2.957031 22.46875 -1.03125 C 26.15625 0.894531 30.085938 1.859375 34.265625 1.859375 Z M 34.265625 -65.125 C 37.203125 -65.125 39.8125 -64.664062 42.09375 -63.75 C 44.382812 -62.832031 46.296875 -61.296875 47.828125 -59.140625 C 49.367188 -56.984375 50.546875 -54.144531 51.359375 -50.625 C 52.171875 -47.101562 52.578125 -42.726562 52.578125 -37.5 L 52.578125 -27.71875 C 52.578125 -18.25 51.007812 -11.242188 47.875 -6.703125 C 44.75 -2.171875 40.210938 0.09375 34.265625 0.09375 C 28.328125 0.09375 23.789062 -2.171875 20.65625 -6.703125 C 17.53125 -11.242188 15.96875 -18.25 15.96875 -27.71875 L 15.96875 -37.5 C 15.96875 -42.59375 16.375 -46.882812 17.1875 -50.375 C 18 -53.875 19.171875 -56.71875 20.703125 -58.90625 C 22.242188 -61.09375 24.15625 -62.675781 26.4375 -63.65625 C 28.71875 -64.632812 31.328125 -65.125 34.265625 -65.125 Z M 34.265625 -65.125 "/></g></g><g style="fill:#ffeffa;fill-opacity:1;"><g transform="translate(321.817769, 173.584009)"><path style="stroke:none" d="M 3.625 -64.234375 L 12.046875 -64.234375 L 12.046875 -1.5625 L 3.8125 -1.5625 L 3.8125 0 L 29.96875 0 L 29.96875 -1.5625 L 21.546875 -1.5625 L 21.546875 -33.875 L 29.28125 -33.875 C 30.71875 -33.875 31.859375 -33.660156 32.703125 -33.234375 C 33.554688 -32.816406 34.226562 -32.21875 34.71875 -31.4375 C 35.207031 -30.65625 35.582031 -29.707031 35.84375 -28.59375 C 36.101562 -27.476562 36.363281 -26.238281 36.625 -24.875 C 36.820312 -23.957031 37.082031 -23.5 37.40625 -23.5 C 37.800781 -23.5 38 -23.925781 38 -24.78125 L 38 -44.65625 C 38 -45.4375 37.800781 -45.828125 37.40625 -45.828125 C 37.082031 -45.828125 36.820312 -45.367188 36.625 -44.453125 C 36.363281 -43.085938 36.101562 -41.847656 35.84375 -40.734375 C 35.582031 -39.628906 35.207031 -38.679688 34.71875 -37.890625 C 34.226562 -37.109375 33.554688 -36.503906 32.703125 -36.078125 C 31.859375 -35.660156 30.71875 -35.453125 29.28125 -35.453125 L 21.546875 -35.453125 L 21.546875 -64.234375 L 36.421875 -64.234375 C 38.640625 -64.234375 40.5 -63.691406 42 -62.609375 C 43.507812 -61.535156 44.71875 -60.195312 45.625 -58.59375 C 46.539062 -57 47.210938 -55.304688 47.640625 -53.515625 C 48.066406 -51.722656 48.3125 -50.109375 48.375 -48.671875 C 48.375 -47.753906 48.632812 -47.296875 49.15625 -47.296875 C 49.613281 -47.296875 49.84375 -47.71875 49.84375 -48.5625 L 49.84375 -63.453125 C 49.84375 -65.015625 49.023438 -65.796875 47.390625 -65.796875 L 3.625 -65.796875 Z M 3.625 -64.234375 "/></g></g><g transform="matrix(1,0,0,1,85,154)"><g clip-path="url(#fa4eea5e8e)"><g style="fill:#eea4b3;fill-opacity:1;"><g transform="translate(2.569083, 72.312716)"><path style="stroke:none" d="M 93.859375 -58.5 C 93.859375 -58.257812 93.601562 -58.15625 93.09375 -58.1875 C 92.582031 -58.21875 91.84375 -58.082031 90.875 -57.78125 C 90.144531 -57.539062 89.207031 -57.132812 88.0625 -56.5625 C 86.925781 -55.988281 85.8125 -55.367188 84.71875 -54.703125 C 83.632812 -54.035156 82.789062 -53.460938 82.1875 -52.984375 C 83.15625 -51.835938 83.984375 -50.453125 84.671875 -48.828125 C 85.367188 -47.203125 85.71875 -45.453125 85.71875 -43.578125 C 85.71875 -42.429688 85.535156 -41.238281 85.171875 -40 C 84.816406 -38.769531 84.21875 -37.582031 83.375 -36.4375 C 81.925781 -34.382812 80.097656 -32.695312 77.890625 -31.375 C 75.691406 -30.050781 73.445312 -29.039062 71.15625 -28.34375 C 68.863281 -27.65625 66.753906 -27.191406 64.828125 -26.953125 C 66.941406 -25.679688 68.585938 -24.050781 69.765625 -22.0625 C 70.941406 -20.070312 71.53125 -17.929688 71.53125 -15.640625 C 71.53125 -14.492188 71.363281 -13.316406 71.03125 -12.109375 C 70.695312 -10.910156 70.164062 -9.707031 69.4375 -8.5 C 67.75 -5.726562 65.320312 -3.375 62.15625 -1.4375 C 59 0.488281 55.335938 1.929688 51.171875 2.890625 C 47.015625 3.859375 42.644531 4.34375 38.0625 4.34375 C 33.726562 4.34375 29.898438 4.113281 26.578125 3.65625 C 23.265625 3.207031 19.921875 2.59375 16.546875 1.8125 C 15.640625 1.625 14.78125 1.410156 13.96875 1.171875 C 13.15625 0.929688 12.359375 0.78125 11.578125 0.71875 C 13.023438 5.664062 15.554688 9.359375 19.171875 11.796875 C 22.785156 14.242188 27.15625 15.46875 32.28125 15.46875 C 34.6875 15.46875 36.898438 15.132812 38.921875 14.46875 C 40.941406 13.800781 42.613281 13.015625 43.9375 12.109375 C 44.238281 11.867188 44.554688 11.644531 44.890625 11.4375 C 45.222656 11.226562 45.421875 11.179688 45.484375 11.296875 C 45.722656 11.484375 45.738281 11.726562 45.53125 12.03125 C 45.320312 12.332031 45.066406 12.601562 44.765625 12.84375 C 43.316406 13.925781 41.519531 14.84375 39.375 15.59375 C 37.238281 16.351562 34.753906 16.734375 31.921875 16.734375 C 26.253906 16.734375 21.519531 15.328125 17.71875 12.515625 C 13.925781 9.710938 11.394531 5.875 10.125 1 C 9.164062 1.238281 7.867188 1.476562 6.234375 1.71875 C 4.609375 1.957031 3.222656 2.078125 2.078125 2.078125 C 1.117188 2.078125 0.289062 1.972656 -0.40625 1.765625 C -1.101562 1.554688 -1.476562 1.179688 -1.53125 0.640625 C -1.53125 0.0351562 -1.179688 -0.460938 -0.484375 -0.859375 C 0.203125 -1.253906 1.039062 -1.554688 2.03125 -1.765625 C 3.03125 -1.972656 3.976562 -2.078125 4.875 -2.078125 C 5.664062 -2.078125 6.484375 -2.046875 7.328125 -1.984375 C 8.171875 -1.929688 8.894531 -1.84375 9.5 -1.71875 C 9.4375 -2.382812 9.359375 -3.179688 9.265625 -4.109375 C 9.171875 -5.046875 9.125 -6.269531 9.125 -7.78125 C 9.125 -11.632812 9.726562 -15.71875 10.9375 -20.03125 C 12.144531 -24.34375 13.910156 -28.546875 16.234375 -32.640625 C 18.554688 -36.742188 21.34375 -40.390625 24.59375 -43.578125 C 29.71875 -48.640625 35.703125 -52.539062 42.546875 -55.28125 C 49.390625 -58.03125 56.640625 -59.40625 64.296875 -59.40625 C 68.210938 -59.40625 71.613281 -58.863281 74.5 -57.78125 C 77.394531 -56.695312 79.628906 -55.460938 81.203125 -54.078125 C 82.285156 -54.859375 83.726562 -55.710938 85.53125 -56.640625 C 87.34375 -57.578125 88.910156 -58.226562 90.234375 -58.59375 C 90.785156 -58.769531 91.253906 -58.890625 91.640625 -58.953125 C 92.035156 -59.015625 92.382812 -59.046875 92.6875 -59.046875 C 93.46875 -59.046875 93.859375 -58.863281 93.859375 -58.5 Z M 80.109375 -53.34375 C 78.847656 -54.550781 76.859375 -55.632812 74.140625 -56.59375 C 71.429688 -57.5625 68.207031 -58.046875 64.46875 -58.046875 C 59.28125 -58.046875 54.441406 -57.304688 49.953125 -55.828125 C 45.460938 -54.359375 41.332031 -52.398438 37.5625 -49.953125 C 33.800781 -47.515625 30.410156 -44.816406 27.390625 -41.859375 C 23.773438 -38.367188 20.734375 -34.632812 18.265625 -30.65625 C 15.796875 -26.675781 13.910156 -22.695312 12.609375 -18.71875 C 11.316406 -14.738281 10.671875 -11 10.671875 -7.5 C 10.671875 -6.175781 10.695312 -5.015625 10.75 -4.015625 C 10.8125 -3.023438 10.9375 -2.171875 11.125 -1.453125 C 11.664062 -1.265625 12.414062 -1.171875 13.375 -1.171875 C 16.8125 -1.171875 20.414062 -2.046875 24.1875 -3.796875 C 27.957031 -5.546875 32.085938 -8.316406 36.578125 -12.109375 C 41.066406 -15.910156 46.054688 -20.859375 51.546875 -26.953125 C 56.304688 -32.316406 61.140625 -37.363281 66.046875 -42.09375 C 70.960938 -46.820312 75.648438 -50.570312 80.109375 -53.34375 Z M 81.203125 -52.171875 C 78.304688 -49.878906 75.578125 -47.375 73.015625 -44.65625 C 70.453125 -41.945312 68.082031 -39.25 65.90625 -36.5625 C 63.738281 -33.882812 61.722656 -31.429688 59.859375 -29.203125 C 60.765625 -29.390625 62 -28.9375 63.5625 -27.84375 C 65.976562 -28.09375 68.628906 -28.878906 71.515625 -30.203125 C 74.410156 -31.523438 77.15625 -33.992188 79.75 -37.609375 C 80.957031 -39.296875 81.785156 -40.894531 82.234375 -42.40625 C 82.691406 -43.914062 82.921875 -45.242188 82.921875 -46.390625 C 82.921875 -47.953125 82.707031 -49.210938 82.28125 -50.171875 C 81.863281 -51.140625 81.503906 -51.804688 81.203125 -52.171875 Z M 64.921875 -9.765625 C 65.828125 -11.148438 66.488281 -12.535156 66.90625 -13.921875 C 67.332031 -15.304688 67.546875 -16.664062 67.546875 -18 C 67.609375 -19.988281 67.1875 -21.796875 66.28125 -23.421875 C 65.375 -25.046875 64.046875 -26.222656 62.296875 -26.953125 C 62.054688 -26.828125 61.726562 -26.765625 61.3125 -26.765625 C 60.769531 -26.765625 60.253906 -26.898438 59.765625 -27.171875 C 59.285156 -27.441406 59.046875 -27.816406 59.046875 -28.296875 C 58.140625 -27.035156 56.914062 -25.546875 55.375 -23.828125 C 53.84375 -22.109375 52.234375 -20.40625 50.546875 -18.71875 C 48.859375 -17.03125 47.226562 -15.523438 45.65625 -14.203125 C 41.5 -10.703125 37.550781 -7.972656 33.8125 -6.015625 C 30.082031 -4.054688 26.601562 -2.640625 23.375 -1.765625 C 20.144531 -0.890625 17.144531 -0.300781 14.375 0 C 17.144531 0.539062 20.503906 1.15625 24.453125 1.84375 C 28.398438 2.539062 32.9375 2.890625 38.0625 2.890625 C 43.726562 2.890625 48.925781 1.867188 53.65625 -0.171875 C 58.394531 -2.222656 62.148438 -5.421875 64.921875 -9.765625 Z M 64.921875 -9.765625 "/></g></g><g style="fill:#eea4b3;fill-opacity:1;"><g transform="translate(77.975122, 72.312716)"><path style="stroke:none" d="M 8.5 -15.28125 C 6.988281 -13.894531 5.507812 -12.382812 4.0625 -10.75 C 2.625 -9.125 1.421875 -7.554688 0.453125 -6.046875 C -0.515625 -4.546875 -1 -3.3125 -1 -2.34375 C -1 -1.144531 -0.304688 -0.546875 1.078125 -0.546875 C 1.984375 -0.546875 3.128906 -0.816406 4.515625 -1.359375 C 5.898438 -1.898438 7.347656 -2.648438 8.859375 -3.609375 C 11.023438 -5.003906 13.148438 -6.554688 15.234375 -8.265625 C 17.316406 -9.984375 18.929688 -11.359375 20.078125 -12.390625 C 20.378906 -12.691406 20.679688 -12.929688 20.984375 -13.109375 C 21.285156 -13.285156 21.523438 -13.285156 21.703125 -13.109375 C 21.878906 -12.929688 21.890625 -12.71875 21.734375 -12.46875 C 21.585938 -12.226562 21.425781 -12.019531 21.25 -11.84375 C 19.738281 -10.457031 18.109375 -9.054688 16.359375 -7.640625 C 14.617188 -6.222656 12.753906 -4.820312 10.765625 -3.4375 C 9.253906 -2.414062 7.5625 -1.453125 5.6875 -0.546875 C 3.820312 0.359375 2.015625 0.8125 0.265625 0.8125 C -0.816406 0.8125 -1.851562 0.539062 -2.84375 0 C -3.84375 -0.539062 -4.34375 -1.6875 -4.34375 -3.4375 C -4.34375 -4.644531 -3.890625 -6.332031 -2.984375 -8.5 C -2.078125 -10.664062 -0.175781 -13.140625 2.71875 -15.921875 C 4.757812 -17.847656 6.984375 -19.625 9.390625 -21.25 C 11.804688 -22.875 14.144531 -24.195312 16.40625 -25.21875 C 18.664062 -26.25 20.519531 -26.765625 21.96875 -26.765625 C 22.875 -26.765625 23.550781 -26.550781 24 -26.125 C 24.457031 -25.707031 24.6875 -25.164062 24.6875 -24.5 C 24.6875 -23.539062 24.203125 -22.503906 23.234375 -21.390625 C 22.273438 -20.273438 21.160156 -19.296875 19.890625 -18.453125 C 18.441406 -17.484375 16.8125 -16.648438 15 -15.953125 C 13.195312 -15.265625 11.601562 -14.921875 10.21875 -14.921875 C 9.550781 -14.921875 8.976562 -15.039062 8.5 -15.28125 Z M 9.125 -15.921875 C 9.375 -15.796875 9.617188 -15.734375 9.859375 -15.734375 C 10.765625 -15.734375 12.070312 -16.09375 13.78125 -16.8125 C 15.5 -17.539062 17.203125 -18.597656 18.890625 -19.984375 C 20.160156 -21.003906 21.1875 -21.984375 21.96875 -22.921875 C 22.75 -23.859375 23.140625 -24.597656 23.140625 -25.140625 C 23.140625 -25.503906 22.929688 -25.6875 22.515625 -25.6875 C 21.910156 -25.6875 20.796875 -25.15625 19.171875 -24.09375 C 17.546875 -23.039062 15.8125 -21.757812 13.96875 -20.25 C 12.132812 -18.75 10.519531 -17.304688 9.125 -15.921875 Z M 9.125 -15.921875 "/></g></g><g style="fill:#eea4b3;fill-opacity:1;"><g transform="translate(95.967675, 72.312716)"><path style="stroke:none" d="M 14.640625 -2.984375 C 13.140625 -1.960938 11.722656 -1.101562 10.390625 -0.40625 C 9.066406 0.289062 7.894531 0.640625 6.875 0.640625 C 4.757812 0.640625 3.703125 -0.445312 3.703125 -2.625 C 3.703125 -4.488281 4.53125 -6.503906 6.1875 -8.671875 C 7.851562 -10.847656 10.101562 -13.171875 12.9375 -15.640625 C 14.070312 -16.671875 15.257812 -17.742188 16.5 -18.859375 C 17.738281 -19.972656 18.796875 -20.960938 19.671875 -21.828125 C 20.546875 -22.703125 20.953125 -23.289062 20.890625 -23.59375 C 20.828125 -23.957031 20.644531 -24.195312 20.34375 -24.3125 C 20.039062 -24.4375 19.554688 -24.648438 18.890625 -24.953125 C 18.109375 -25.378906 17.566406 -25.769531 17.265625 -26.125 C 16.304688 -25.039062 15.253906 -23.925781 14.109375 -22.78125 C 12.960938 -21.632812 11.785156 -20.460938 10.578125 -19.265625 C 8.953125 -17.753906 7.171875 -16.109375 5.234375 -14.328125 C 3.304688 -12.554688 1.710938 -11.15625 0.453125 -10.125 C 0.273438 -9.945312 0.0664062 -9.828125 -0.171875 -9.765625 C -0.421875 -9.703125 -0.601562 -9.765625 -0.71875 -9.953125 C -0.84375 -10.128906 -0.84375 -10.320312 -0.71875 -10.53125 C -0.601562 -10.738281 -0.453125 -10.90625 -0.265625 -11.03125 C 1.179688 -12.300781 2.804688 -13.75 4.609375 -15.375 C 6.421875 -17 8.109375 -18.566406 9.671875 -20.078125 C 11.179688 -21.460938 12.507812 -22.742188 13.65625 -23.921875 C 14.800781 -25.097656 15.851562 -26.253906 16.8125 -27.390625 C 16.8125 -28.054688 17.144531 -28.84375 17.8125 -29.75 C 18.476562 -30.65625 19.320312 -31.5 20.34375 -32.28125 C 21.1875 -32.882812 21.96875 -33.347656 22.6875 -33.671875 C 23.414062 -34.003906 24.019531 -34.203125 24.5 -34.265625 C 24.6875 -34.328125 25.003906 -34.390625 25.453125 -34.453125 C 25.898438 -34.515625 26.335938 -34.546875 26.765625 -34.546875 C 27.671875 -34.546875 28.125 -34.421875 28.125 -34.171875 C 28.125 -33.992188 27.742188 -33.632812 26.984375 -33.09375 C 26.234375 -32.550781 25.40625 -32.023438 24.5 -31.515625 C 23.59375 -31.003906 22.929688 -30.625 22.515625 -30.375 C 21.546875 -29.78125 20.640625 -29.179688 19.796875 -28.578125 C 18.953125 -27.972656 18.53125 -27.429688 18.53125 -26.953125 C 18.53125 -26.703125 18.832031 -26.441406 19.4375 -26.171875 C 20.039062 -25.898438 20.492188 -25.707031 20.796875 -25.59375 C 22.484375 -25.050781 23.328125 -24.207031 23.328125 -23.0625 C 23.328125 -21.851562 22.875 -20.570312 21.96875 -19.21875 C 21.0625 -17.863281 19.972656 -16.535156 18.703125 -15.234375 C 17.441406 -13.941406 16.300781 -12.8125 15.28125 -11.84375 C 13.59375 -10.28125 12.113281 -8.894531 10.84375 -7.6875 C 9.582031 -6.476562 8.53125 -5.363281 7.6875 -4.34375 C 6.71875 -3.195312 6.234375 -2.289062 6.234375 -1.625 C 6.234375 -1.019531 6.597656 -0.71875 7.328125 -0.71875 C 8.171875 -0.71875 9.328125 -1.15625 10.796875 -2.03125 C 12.273438 -2.90625 13.5 -3.675781 14.46875 -4.34375 C 16.03125 -5.488281 17.71875 -6.828125 19.53125 -8.359375 C 21.34375 -9.898438 22.847656 -11.148438 24.046875 -12.109375 C 24.234375 -12.296875 24.445312 -12.445312 24.6875 -12.5625 C 24.925781 -12.6875 25.132812 -12.660156 25.3125 -12.484375 C 25.5625 -12.234375 25.5625 -11.972656 25.3125 -11.703125 C 25.070312 -11.429688 24.832031 -11.207031 24.59375 -11.03125 C 23.207031 -9.820312 21.625 -8.476562 19.84375 -7 C 18.070312 -5.53125 16.335938 -4.191406 14.640625 -2.984375 Z M 14.640625 -2.984375 "/></g></g><g style="fill:#eea4b3;fill-opacity:1;"><g transform="translate(118.119308, 72.312716)"><path style="stroke:none" d="M 14.640625 -2.984375 C 13.140625 -1.960938 11.722656 -1.101562 10.390625 -0.40625 C 9.066406 0.289062 7.894531 0.640625 6.875 0.640625 C 4.757812 0.640625 3.703125 -0.445312 3.703125 -2.625 C 3.703125 -4.488281 4.53125 -6.503906 6.1875 -8.671875 C 7.851562 -10.847656 10.101562 -13.171875 12.9375 -15.640625 C 14.070312 -16.671875 15.257812 -17.742188 16.5 -18.859375 C 17.738281 -19.972656 18.796875 -20.960938 19.671875 -21.828125 C 20.546875 -22.703125 20.953125 -23.289062 20.890625 -23.59375 C 20.828125 -23.957031 20.644531 -24.195312 20.34375 -24.3125 C 20.039062 -24.4375 19.554688 -24.648438 18.890625 -24.953125 C 18.109375 -25.378906 17.566406 -25.769531 17.265625 -26.125 C 16.304688 -25.039062 15.253906 -23.925781 14.109375 -22.78125 C 12.960938 -21.632812 11.785156 -20.460938 10.578125 -19.265625 C 8.953125 -17.753906 7.171875 -16.109375 5.234375 -14.328125 C 3.304688 -12.554688 1.710938 -11.15625 0.453125 -10.125 C 0.273438 -9.945312 0.0664062 -9.828125 -0.171875 -9.765625 C -0.421875 -9.703125 -0.601562 -9.765625 -0.71875 -9.953125 C -0.84375 -10.128906 -0.84375 -10.320312 -0.71875 -10.53125 C -0.601562 -10.738281 -0.453125 -10.90625 -0.265625 -11.03125 C 1.179688 -12.300781 2.804688 -13.75 4.609375 -15.375 C 6.421875 -17 8.109375 -18.566406 9.671875 -20.078125 C 11.179688 -21.460938 12.507812 -22.742188 13.65625 -23.921875 C 14.800781 -25.097656 15.851562 -26.253906 16.8125 -27.390625 C 16.8125 -28.054688 17.144531 -28.84375 17.8125 -29.75 C 18.476562 -30.65625 19.320312 -31.5 20.34375 -32.28125 C 21.1875 -32.882812 21.96875 -33.347656 22.6875 -33.671875 C 23.414062 -34.003906 24.019531 -34.203125 24.5 -34.265625 C 24.6875 -34.328125 25.003906 -34.390625 25.453125 -34.453125 C 25.898438 -34.515625 26.335938 -34.546875 26.765625 -34.546875 C 27.671875 -34.546875 28.125 -34.421875 28.125 -34.171875 C 28.125 -33.992188 27.742188 -33.632812 26.984375 -33.09375 C 26.234375 -32.550781 25.40625 -32.023438 24.5 -31.515625 C 23.59375 -31.003906 22.929688 -30.625 22.515625 -30.375 C 21.546875 -29.78125 20.640625 -29.179688 19.796875 -28.578125 C 18.953125 -27.972656 18.53125 -27.429688 18.53125 -26.953125 C 18.53125 -26.703125 18.832031 -26.441406 19.4375 -26.171875 C 20.039062 -25.898438 20.492188 -25.707031 20.796875 -25.59375 C 22.484375 -25.050781 23.328125 -24.207031 23.328125 -23.0625 C 23.328125 -21.851562 22.875 -20.570312 21.96875 -19.21875 C 21.0625 -17.863281 19.972656 -16.535156 18.703125 -15.234375 C 17.441406 -13.941406 16.300781 -12.8125 15.28125 -11.84375 C 13.59375 -10.28125 12.113281 -8.894531 10.84375 -7.6875 C 9.582031 -6.476562 8.53125 -5.363281 7.6875 -4.34375 C 6.71875 -3.195312 6.234375 -2.289062 6.234375 -1.625 C 6.234375 -1.019531 6.597656 -0.71875 7.328125 -0.71875 C 8.171875 -0.71875 9.328125 -1.15625 10.796875 -2.03125 C 12.273438 -2.90625 13.5 -3.675781 14.46875 -4.34375 C 16.03125 -5.488281 17.71875 -6.828125 19.53125 -8.359375 C 21.34375 -9.898438 22.847656 -11.148438 24.046875 -12.109375 C 24.234375 -12.296875 24.445312 -12.445312 24.6875 -12.5625 C 24.925781 -12.6875 25.132812 -12.660156 25.3125 -12.484375 C 25.5625 -12.234375 25.5625 -11.972656 25.3125 -11.703125 C 25.070312 -11.429688 24.832031 -11.207031 24.59375 -11.03125 C 23.207031 -9.820312 21.625 -8.476562 19.84375 -7 C 18.070312 -5.53125 16.335938 -4.191406 14.640625 -2.984375 Z M 14.640625 -2.984375 "/></g></g><g style="fill:#eea4b3;fill-opacity:1;"><g transform="translate(140.270948, 72.312716)"><path style="stroke:none" d="M 34.71875 -26.40625 C 32.25 -24.113281 29.671875 -21.59375 26.984375 -18.84375 C 24.304688 -16.101562 21.367188 -12.894531 18.171875 -9.21875 C 15.273438 -5.90625 11.910156 -2.242188 8.078125 1.765625 C 4.253906 5.773438 0.265625 9.40625 -3.890625 12.65625 C -9.617188 17.0625 -15.375 20.378906 -21.15625 22.609375 C -26.945312 24.835938 -32.34375 25.953125 -37.34375 25.953125 C -40.175781 25.953125 -42.859375 25.53125 -45.390625 24.6875 C -47.921875 23.84375 -50.03125 22.617188 -51.71875 21.015625 C -53.40625 19.421875 -54.488281 17.476562 -54.96875 15.1875 C -55.269531 13.738281 -55.125 12.957031 -54.53125 12.84375 C -54.28125 12.71875 -54.109375 12.835938 -54.015625 13.203125 C -53.929688 13.566406 -53.859375 13.925781 -53.796875 14.28125 C -53.378906 16.457031 -52.351562 18.296875 -50.71875 19.796875 C -49.09375 21.304688 -47.117188 22.453125 -44.796875 23.234375 C -42.484375 24.015625 -40.117188 24.40625 -37.703125 24.40625 C -34.023438 24.40625 -30.4375 23.785156 -26.9375 22.546875 C -23.445312 21.316406 -20.085938 19.707031 -16.859375 17.71875 C -13.640625 15.726562 -10.703125 13.679688 -8.046875 11.578125 C -6.234375 10.128906 -4.300781 8.484375 -2.25 6.640625 C -0.207031 4.804688 1.804688 2.921875 3.796875 0.984375 C 5.785156 -0.941406 7.59375 -2.75 9.21875 -4.4375 C 10.851562 -6.125 12.148438 -7.539062 13.109375 -8.6875 C 13.234375 -8.800781 13.265625 -8.890625 13.203125 -8.953125 C 13.140625 -9.015625 13.050781 -8.984375 12.9375 -8.859375 C 12.03125 -8.078125 11.03125 -7.203125 9.9375 -6.234375 C 8.851562 -5.273438 8.132812 -4.644531 7.78125 -4.34375 C 6.207031 -3.132812 4.546875 -2 2.796875 -0.9375 C 1.054688 0.113281 -0.414062 0.640625 -1.625 0.640625 C -2.769531 0.640625 -3.566406 0.382812 -4.015625 -0.125 C -4.472656 -0.644531 -4.703125 -1.296875 -4.703125 -2.078125 C -4.703125 -3.585938 -4.097656 -5.320312 -2.890625 -7.28125 C -1.679688 -9.238281 -0.0546875 -11.332031 1.984375 -13.5625 C 3.191406 -14.832031 4.640625 -16.203125 6.328125 -17.671875 C 8.015625 -19.148438 9.71875 -20.535156 11.4375 -21.828125 C 13.15625 -23.128906 14.617188 -24.113281 15.828125 -24.78125 C 16.484375 -25.195312 17.429688 -25.492188 18.671875 -25.671875 C 19.910156 -25.859375 20.832031 -25.921875 21.4375 -25.859375 C 18.78125 -23.691406 16.171875 -21.445312 13.609375 -19.125 C 11.046875 -16.800781 8.785156 -14.628906 6.828125 -12.609375 C 4.867188 -10.585938 3.347656 -8.914062 2.265625 -7.59375 C 1.179688 -6.269531 0.265625 -5.078125 -0.484375 -4.015625 C -1.242188 -2.960938 -1.625 -2.164062 -1.625 -1.625 C -1.625 -1.082031 -1.351562 -0.8125 -0.8125 -0.8125 C 0.03125 -0.8125 1.234375 -1.320312 2.796875 -2.34375 C 4.367188 -3.375 5.816406 -4.367188 7.140625 -5.328125 C 7.921875 -5.929688 8.914062 -6.773438 10.125 -7.859375 C 11.332031 -8.953125 12.582031 -10.097656 13.875 -11.296875 C 15.175781 -12.503906 16.304688 -13.5625 17.265625 -14.46875 C 18.535156 -15.726562 19.90625 -17.066406 21.375 -18.484375 C 22.851562 -19.898438 24.332031 -21.238281 25.8125 -22.5 C 27.289062 -23.769531 28.632812 -24.769531 29.84375 -25.5 C 30.320312 -25.800781 31.101562 -26.039062 32.1875 -26.21875 C 33.269531 -26.40625 34.113281 -26.46875 34.71875 -26.40625 Z M 34.71875 -26.40625 "/></g></g></g></g><g transform="matrix(1,0,0,1,260,181)"><g clip-path="url(#0f598b76d1)"><g clip-rule="nonzero" clip-path="url(#c85c6bb405)"><g style="fill:#eea4b3;fill-opacity:1;"><g transform="translate(0.282195, 8.881635)"><path style="stroke:none" d="M 2.890625 -5.59375 C 3.179688 -5.59375 3.457031 -5.523438 3.71875 -5.390625 C 3.863281 -5.316406 3.96875 -5.28125 4.03125 -5.28125 C 4.175781 -5.28125 4.300781 -5.382812 4.40625 -5.59375 L 4.625 -5.59375 L 4.296875 -3.734375 L 4.078125 -3.734375 C 4.078125 -4.265625 3.972656 -4.660156 3.765625 -4.921875 C 3.554688 -5.191406 3.300781 -5.328125 3 -5.328125 C 2.78125 -5.328125 2.597656 -5.257812 2.453125 -5.125 C 2.304688 -4.988281 2.234375 -4.832031 2.234375 -4.65625 C 2.234375 -4.46875 2.289062 -4.269531 2.40625 -4.0625 C 2.519531 -3.863281 2.703125 -3.601562 2.953125 -3.28125 C 3.222656 -2.914062 3.429688 -2.597656 3.578125 -2.328125 C 3.734375 -2.066406 3.8125 -1.789062 3.8125 -1.5 C 3.8125 -1.21875 3.734375 -0.953125 3.578125 -0.703125 C 3.429688 -0.453125 3.21875 -0.25 2.9375 -0.09375 C 2.65625 0.0625 2.332031 0.140625 1.96875 0.140625 C 1.757812 0.140625 1.503906 0.0859375 1.203125 -0.015625 C 0.984375 -0.078125 0.84375 -0.109375 0.78125 -0.109375 C 0.625 -0.109375 0.484375 -0.0234375 0.359375 0.140625 L 0.109375 0.140625 L 0.46875 -1.8125 L 0.703125 -1.8125 C 0.742188 -1.320312 0.847656 -0.914062 1.015625 -0.59375 C 1.179688 -0.269531 1.488281 -0.109375 1.9375 -0.109375 C 2.257812 -0.109375 2.507812 -0.21875 2.6875 -0.4375 C 2.863281 -0.65625 2.953125 -0.878906 2.953125 -1.109375 C 2.953125 -1.285156 2.90625 -1.460938 2.8125 -1.640625 C 2.71875 -1.828125 2.609375 -2.007812 2.484375 -2.1875 C 2.359375 -2.363281 2.273438 -2.484375 2.234375 -2.546875 L 2.0625 -2.8125 C 1.84375 -3.101562 1.679688 -3.351562 1.578125 -3.5625 C 1.484375 -3.78125 1.4375 -4.007812 1.4375 -4.25 C 1.4375 -4.550781 1.507812 -4.800781 1.65625 -5 C 1.8125 -5.195312 2.003906 -5.34375 2.234375 -5.4375 C 2.460938 -5.539062 2.679688 -5.59375 2.890625 -5.59375 Z M 2.890625 -5.59375 "/></g></g></g><g clip-rule="nonzero" clip-path="url(#8ab778ce98)"><g style="fill:#eea4b3;fill-opacity:1;"><g transform="translate(4.315933, 8.881635)"><path style="stroke:none" d="M 2.90625 -8.03125 C 3.082031 -8.03125 3.226562 -7.96875 3.34375 -7.84375 C 3.46875 -7.726562 3.53125 -7.585938 3.53125 -7.421875 C 3.53125 -7.253906 3.46875 -7.109375 3.34375 -6.984375 C 3.226562 -6.859375 3.082031 -6.796875 2.90625 -6.796875 C 2.75 -6.796875 2.609375 -6.859375 2.484375 -6.984375 C 2.359375 -7.109375 2.296875 -7.253906 2.296875 -7.421875 C 2.296875 -7.585938 2.359375 -7.726562 2.484375 -7.84375 C 2.609375 -7.96875 2.75 -8.03125 2.90625 -8.03125 Z M 1.71875 -1.09375 C 1.644531 -0.875 1.609375 -0.722656 1.609375 -0.640625 C 1.609375 -0.515625 1.679688 -0.453125 1.828125 -0.453125 C 1.921875 -0.453125 2.054688 -0.523438 2.234375 -0.671875 C 2.410156 -0.828125 2.59375 -1.050781 2.78125 -1.34375 L 2.96875 -1.21875 C 2.695312 -0.800781 2.394531 -0.46875 2.0625 -0.21875 C 1.726562 0.0195312 1.425781 0.140625 1.15625 0.140625 C 0.988281 0.140625 0.859375 0.0859375 0.765625 -0.015625 C 0.679688 -0.117188 0.640625 -0.257812 0.640625 -0.4375 C 0.640625 -0.570312 0.664062 -0.722656 0.71875 -0.890625 L 1.703125 -4.25 C 1.753906 -4.457031 1.78125 -4.601562 1.78125 -4.6875 C 1.78125 -4.789062 1.742188 -4.882812 1.671875 -4.96875 C 1.597656 -5.050781 1.488281 -5.09375 1.34375 -5.09375 C 1.289062 -5.09375 1.132812 -5.070312 0.875 -5.03125 L 0.9375 -5.234375 L 2.796875 -5.59375 L 3.015625 -5.59375 Z M 1.71875 -1.09375 "/></g></g></g><g style="fill:#eea4b3;fill-opacity:1;"><g transform="translate(6.955942, 8.881635)"><path style="stroke:none" d="M 1.921875 -2.75 C 2.429688 -3.601562 2.945312 -4.289062 3.46875 -4.8125 C 3.988281 -5.332031 4.476562 -5.59375 4.9375 -5.59375 C 5.125 -5.59375 5.28125 -5.53125 5.40625 -5.40625 C 5.53125 -5.28125 5.59375 -5.097656 5.59375 -4.859375 C 5.59375 -4.640625 5.535156 -4.320312 5.421875 -3.90625 L 4.65625 -1.265625 C 4.570312 -1.003906 4.53125 -0.820312 4.53125 -0.71875 C 4.53125 -0.644531 4.550781 -0.59375 4.59375 -0.5625 C 4.632812 -0.53125 4.671875 -0.515625 4.703125 -0.515625 C 4.804688 -0.515625 4.957031 -0.617188 5.15625 -0.828125 C 5.363281 -1.046875 5.503906 -1.210938 5.578125 -1.328125 L 5.765625 -1.1875 C 5.515625 -0.832031 5.226562 -0.519531 4.90625 -0.25 C 4.59375 0.0078125 4.300781 0.140625 4.03125 0.140625 C 3.894531 0.140625 3.78125 0.09375 3.6875 0 C 3.601562 -0.101562 3.5625 -0.242188 3.5625 -0.421875 C 3.5625 -0.597656 3.601562 -0.835938 3.6875 -1.140625 L 4.53125 -4.0625 C 4.53125 -4.082031 4.546875 -4.144531 4.578125 -4.25 C 4.617188 -4.363281 4.640625 -4.476562 4.640625 -4.59375 C 4.640625 -4.695312 4.609375 -4.773438 4.546875 -4.828125 C 4.492188 -4.890625 4.4375 -4.921875 4.375 -4.921875 C 4.1875 -4.921875 3.910156 -4.757812 3.546875 -4.4375 C 3.191406 -4.125 2.847656 -3.722656 2.515625 -3.234375 C 2.234375 -2.835938 2.003906 -2.46875 1.828125 -2.125 C 1.648438 -1.789062 1.492188 -1.382812 1.359375 -0.90625 C 1.253906 -0.550781 1.164062 -0.25 1.09375 0 L 0.15625 0 L 1.328125 -4.078125 C 1.328125 -4.097656 1.351562 -4.195312 1.40625 -4.375 C 1.457031 -4.5625 1.484375 -4.695312 1.484375 -4.78125 C 1.484375 -4.882812 1.445312 -4.960938 1.375 -5.015625 C 1.300781 -5.066406 1.207031 -5.09375 1.09375 -5.09375 C 0.988281 -5.09375 0.828125 -5.082031 0.609375 -5.0625 L 0.609375 -5.28125 L 2.484375 -5.59375 L 2.703125 -5.59375 L 1.890625 -2.78125 Z M 1.921875 -2.75 "/></g></g><g style="fill:#eea4b3;fill-opacity:1;"><g transform="translate(12.395641, 8.881635)"><path style="stroke:none" d="M 4.09375 -5.59375 C 4.382812 -5.59375 4.640625 -5.503906 4.859375 -5.328125 C 5.085938 -5.160156 5.203125 -4.925781 5.203125 -4.625 C 5.203125 -4.394531 5.132812 -4.203125 5 -4.046875 C 4.875 -3.890625 4.726562 -3.8125 4.5625 -3.8125 C 4.445312 -3.8125 4.347656 -3.851562 4.265625 -3.9375 C 4.179688 -4.019531 4.140625 -4.125 4.140625 -4.25 C 4.140625 -4.351562 4.160156 -4.429688 4.203125 -4.484375 C 4.242188 -4.546875 4.304688 -4.613281 4.390625 -4.6875 C 4.460938 -4.75 4.515625 -4.796875 4.546875 -4.828125 C 4.578125 -4.867188 4.59375 -4.921875 4.59375 -4.984375 C 4.59375 -5.117188 4.535156 -5.21875 4.421875 -5.28125 C 4.304688 -5.34375 4.191406 -5.375 4.078125 -5.375 C 3.640625 -5.375 3.226562 -5.164062 2.84375 -4.75 C 2.46875 -4.34375 2.164062 -3.847656 1.9375 -3.265625 C 1.71875 -2.691406 1.609375 -2.195312 1.609375 -1.78125 C 1.609375 -1.351562 1.710938 -1.003906 1.921875 -0.734375 C 2.128906 -0.472656 2.40625 -0.34375 2.75 -0.34375 C 3.082031 -0.34375 3.394531 -0.441406 3.6875 -0.640625 C 3.988281 -0.847656 4.25 -1.09375 4.46875 -1.375 L 4.65625 -1.25 C 3.875 -0.320312 3.054688 0.140625 2.203125 0.140625 C 1.691406 0.140625 1.296875 -0.0351562 1.015625 -0.390625 C 0.734375 -0.742188 0.59375 -1.164062 0.59375 -1.65625 C 0.59375 -2.25 0.757812 -2.851562 1.09375 -3.46875 C 1.4375 -4.082031 1.878906 -4.585938 2.421875 -4.984375 C 2.960938 -5.390625 3.519531 -5.59375 4.09375 -5.59375 Z M 4.09375 -5.59375 "/></g></g><g style="fill:#eea4b3;fill-opacity:1;"><g transform="translate(17.077347, 8.881635)"><path style="stroke:none" d="M 3.96875 -5.59375 C 4.3125 -5.59375 4.597656 -5.503906 4.828125 -5.328125 C 5.054688 -5.160156 5.171875 -4.941406 5.171875 -4.671875 C 5.171875 -4.410156 5.046875 -4.113281 4.796875 -3.78125 C 4.554688 -3.445312 4.160156 -3.148438 3.609375 -2.890625 C 3.066406 -2.640625 2.367188 -2.5 1.515625 -2.46875 C 1.460938 -2.3125 1.4375 -2.113281 1.4375 -1.875 C 1.4375 -1.375 1.570312 -1.007812 1.84375 -0.78125 C 2.113281 -0.5625 2.410156 -0.453125 2.734375 -0.453125 C 3.285156 -0.453125 3.84375 -0.722656 4.40625 -1.265625 L 4.5625 -1.125 C 3.6875 -0.28125 2.84375 0.140625 2.03125 0.140625 C 1.695312 0.140625 1.40625 0.0546875 1.15625 -0.109375 C 0.90625 -0.273438 0.71875 -0.488281 0.59375 -0.75 C 0.46875 -1.019531 0.40625 -1.300781 0.40625 -1.59375 C 0.40625 -2.164062 0.566406 -2.765625 0.890625 -3.390625 C 1.222656 -4.015625 1.664062 -4.535156 2.21875 -4.953125 C 2.769531 -5.378906 3.351562 -5.59375 3.96875 -5.59375 Z M 1.59375 -2.703125 C 2.144531 -2.742188 2.59375 -2.835938 2.9375 -2.984375 C 3.269531 -3.128906 3.539062 -3.316406 3.75 -3.546875 C 3.957031 -3.785156 4.101562 -4.015625 4.1875 -4.234375 C 4.28125 -4.460938 4.328125 -4.648438 4.328125 -4.796875 C 4.328125 -4.929688 4.273438 -5.054688 4.171875 -5.171875 C 4.078125 -5.296875 3.9375 -5.359375 3.75 -5.359375 C 3.414062 -5.359375 3.097656 -5.207031 2.796875 -4.90625 C 2.492188 -4.601562 2.234375 -4.242188 2.015625 -3.828125 C 1.796875 -3.410156 1.65625 -3.035156 1.59375 -2.703125 Z M 1.59375 -2.703125 "/></g></g><g style="fill:#eea4b3;fill-opacity:1;"><g transform="translate(21.759053, 8.881635)"><path style="stroke:none" d=""/></g></g><g clip-rule="nonzero" clip-path="url(#7916d2a3c4)"><g style="fill:#eea4b3;fill-opacity:1;"><g transform="translate(24.142328, 8.881635)"><path style="stroke:none" d="M 3.53125 -8.4375 C 3.863281 -8.4375 4.179688 -8.363281 4.484375 -8.21875 C 4.785156 -8.070312 5.03125 -7.851562 5.21875 -7.5625 C 5.414062 -7.28125 5.515625 -6.9375 5.515625 -6.53125 C 5.515625 -6.0625 5.398438 -5.625 5.171875 -5.21875 C 4.941406 -4.820312 4.59375 -4.382812 4.125 -3.90625 C 3.65625 -3.425781 2.835938 -2.644531 1.671875 -1.5625 L 0.921875 -0.875 L 3.0625 -0.875 C 3.457031 -0.875 3.75 -0.929688 3.9375 -1.046875 C 4.125 -1.160156 4.289062 -1.347656 4.4375 -1.609375 L 4.671875 -1.609375 L 3.96875 0 L -0.25 0 L -0.28125 -0.21875 L 1.9375 -2.265625 C 2.789062 -3.054688 3.429688 -3.738281 3.859375 -4.3125 C 4.285156 -4.882812 4.5 -5.457031 4.5 -6.03125 C 4.5 -6.488281 4.359375 -6.859375 4.078125 -7.140625 C 3.796875 -7.421875 3.453125 -7.5625 3.046875 -7.5625 C 2.785156 -7.5625 2.523438 -7.492188 2.265625 -7.359375 C 2.015625 -7.234375 1.789062 -7.03125 1.59375 -6.75 L 1.3125 -6.75 C 1.507812 -7.238281 1.796875 -7.640625 2.171875 -7.953125 C 2.554688 -8.273438 3.007812 -8.4375 3.53125 -8.4375 Z M 3.53125 -8.4375 "/></g></g></g><g clip-rule="nonzero" clip-path="url(#bf0367ef60)"><g style="fill:#eea4b3;fill-opacity:1;"><g transform="translate(29.582026, 8.881635)"><path style="stroke:none" d="M 4.03125 -8.4375 C 4.332031 -8.4375 4.617188 -8.332031 4.890625 -8.125 C 5.160156 -7.914062 5.382812 -7.582031 5.5625 -7.125 C 5.738281 -6.675781 5.828125 -6.113281 5.828125 -5.4375 C 5.828125 -4.695312 5.664062 -3.878906 5.34375 -2.984375 C 5.03125 -2.097656 4.59375 -1.347656 4.03125 -0.734375 C 3.46875 -0.117188 2.835938 0.1875 2.140625 0.1875 C 1.554688 0.1875 1.097656 -0.0820312 0.765625 -0.625 C 0.441406 -1.164062 0.28125 -1.851562 0.28125 -2.6875 C 0.28125 -3.519531 0.441406 -4.382812 0.765625 -5.28125 C 1.085938 -6.175781 1.535156 -6.925781 2.109375 -7.53125 C 2.679688 -8.132812 3.320312 -8.4375 4.03125 -8.4375 Z M 2.453125 -6.875 C 2.097656 -6.070312 1.804688 -5.164062 1.578125 -4.15625 C 1.359375 -3.144531 1.25 -2.289062 1.25 -1.59375 C 1.25 -1.132812 1.328125 -0.765625 1.484375 -0.484375 C 1.640625 -0.210938 1.878906 -0.078125 2.203125 -0.078125 C 2.648438 -0.078125 3.03125 -0.320312 3.34375 -0.8125 C 3.65625 -1.300781 3.953125 -2.023438 4.234375 -2.984375 C 4.453125 -3.734375 4.617188 -4.414062 4.734375 -5.03125 C 4.847656 -5.644531 4.90625 -6.132812 4.90625 -6.5 C 4.90625 -7.019531 4.820312 -7.429688 4.65625 -7.734375 C 4.5 -8.035156 4.253906 -8.1875 3.921875 -8.1875 C 3.628906 -8.1875 3.359375 -8.066406 3.109375 -7.828125 C 2.859375 -7.585938 2.640625 -7.269531 2.453125 -6.875 Z M 2.453125 -6.875 "/></g></g></g><g clip-rule="nonzero" clip-path="url(#4eeef97dee)"><g style="fill:#eea4b3;fill-opacity:1;"><g transform="translate(35.021725, 8.881635)"><path style="stroke:none" d="M 3.53125 -8.4375 C 3.863281 -8.4375 4.179688 -8.363281 4.484375 -8.21875 C 4.785156 -8.070312 5.03125 -7.851562 5.21875 -7.5625 C 5.414062 -7.28125 5.515625 -6.9375 5.515625 -6.53125 C 5.515625 -6.0625 5.398438 -5.625 5.171875 -5.21875 C 4.941406 -4.820312 4.59375 -4.382812 4.125 -3.90625 C 3.65625 -3.425781 2.835938 -2.644531 1.671875 -1.5625 L 0.921875 -0.875 L 3.0625 -0.875 C 3.457031 -0.875 3.75 -0.929688 3.9375 -1.046875 C 4.125 -1.160156 4.289062 -1.347656 4.4375 -1.609375 L 4.671875 -1.609375 L 3.96875 0 L -0.25 0 L -0.28125 -0.21875 L 1.9375 -2.265625 C 2.789062 -3.054688 3.429688 -3.738281 3.859375 -4.3125 C 4.285156 -4.882812 4.5 -5.457031 4.5 -6.03125 C 4.5 -6.488281 4.359375 -6.859375 4.078125 -7.140625 C 3.796875 -7.421875 3.453125 -7.5625 3.046875 -7.5625 C 2.785156 -7.5625 2.523438 -7.492188 2.265625 -7.359375 C 2.015625 -7.234375 1.789062 -7.03125 1.59375 -6.75 L 1.3125 -6.75 C 1.507812 -7.238281 1.796875 -7.640625 2.171875 -7.953125 C 2.554688 -8.273438 3.007812 -8.4375 3.53125 -8.4375 Z M 3.53125 -8.4375 "/></g></g></g><g clip-rule="nonzero" clip-path="url(#bc292549d1)"><g style="fill:#eea4b3;fill-opacity:1;"><g transform="translate(40.461424, 8.881635)"><path style="stroke:none" d="M 5.546875 -7.296875 L 2.953125 -7.296875 L 2.484375 -6.265625 C 3.316406 -6.160156 3.9375 -5.84375 4.34375 -5.3125 C 4.75 -4.789062 4.953125 -4.191406 4.953125 -3.515625 C 4.953125 -2.867188 4.785156 -2.257812 4.453125 -1.6875 C 4.117188 -1.125 3.679688 -0.671875 3.140625 -0.328125 C 2.597656 0.015625 2.039062 0.1875 1.46875 0.1875 C 1.144531 0.1875 0.847656 0.125 0.578125 0 C 0.316406 -0.125 0.1875 -0.3125 0.1875 -0.5625 C 0.1875 -0.707031 0.234375 -0.828125 0.328125 -0.921875 C 0.421875 -1.015625 0.539062 -1.0625 0.6875 -1.0625 C 0.820312 -1.0625 0.9375 -1.035156 1.03125 -0.984375 C 1.125 -0.929688 1.242188 -0.851562 1.390625 -0.75 C 1.535156 -0.644531 1.660156 -0.5625 1.765625 -0.5 C 1.878906 -0.445312 2.015625 -0.421875 2.171875 -0.421875 C 2.523438 -0.421875 2.851562 -0.535156 3.15625 -0.765625 C 3.46875 -1.003906 3.710938 -1.316406 3.890625 -1.703125 C 4.066406 -2.085938 4.15625 -2.492188 4.15625 -2.921875 C 4.15625 -3.359375 4.050781 -3.757812 3.84375 -4.125 C 3.644531 -4.5 3.363281 -4.789062 3 -5 C 2.644531 -5.21875 2.238281 -5.328125 1.78125 -5.328125 L 1.6875 -5.328125 L 2.953125 -8.265625 L 5.828125 -8.265625 Z M 5.546875 -7.296875 "/></g></g></g></g></g></g></svg>