<svg xmlns="http://www.w3.org/2000/svg" xmlns:xlink="http://www.w3.org/1999/xlink" width="500" zoomAndPan="magnify" viewBox="0 0 375 374.999991" height="500" preserveAspectRatio="xMidYMid meet" version="1.2"><defs><clipPath id="255b59418f"><path d="M 0 0 L 351.75 0 L 351.75 375 L 0 375 Z M 0 0 "/></clipPath></defs><g id="6739603448"><path style=" stroke:none;fill-rule:nonzero;fill:#eaa895;fill-opacity:1;" d="M 298.703125 2.949219 L 334.441406 2.949219 C 336.886719 2.949219 338.871094 4.929688 338.871094 7.378906 L 338.871094 367.621094 C 338.871094 370.070312 336.886719 372.050781 334.441406 372.050781 L 298.703125 372.050781 "/><path style=" stroke:none;fill-rule:nonzero;fill:#e9c278;fill-opacity:1;" d="M 328.25 120.078125 L 321.933594 120.078125 L 321.933594 195.609375 L 328.25 195.609375 C 339.601562 195.609375 348.800781 186.414062 348.800781 175.070312 L 348.800781 140.617188 C 348.800781 129.273438 339.601562 120.078125 328.25 120.078125 Z M 328.25 120.078125 "/><path style=" stroke:none;fill-rule:nonzero;fill:#f9fbfc;fill-opacity:1;" d="M 303.601562 356.304688 L 317.484375 356.304688 C 319.753906 356.304688 321.597656 354.460938 321.597656 352.191406 L 321.597656 22.808594 C 321.597656 20.539062 319.753906 18.695312 317.484375 18.695312 L 303.601562 18.695312 "/><path style=" stroke:none;fill-rule:nonzero;fill:#eaa895;fill-opacity:1;" d="M 298.703125 372.050781 L 36.429688 372.050781 C 33.984375 372.050781 32 370.070312 32 367.621094 L 32 7.378906 C 32 4.929688 33.984375 2.949219 36.429688 2.949219 L 298.703125 2.949219 C 301.148438 2.949219 303.132812 4.929688 303.132812 7.378906 L 303.132812 367.621094 C 303.132812 370.070312 301.148438 372.050781 298.703125 372.050781 Z M 298.703125 372.050781 "/><path style=" stroke:none;fill-rule:nonzero;fill:#e9c278;fill-opacity:1;" d="M 55.632812 73.34375 L 8.363281 73.34375 C 5.371094 73.34375 2.949219 70.917969 2.949219 67.929688 L 2.949219 49.957031 C 2.949219 46.96875 5.371094 44.542969 8.363281 44.542969 L 55.632812 44.542969 C 58.625 44.542969 61.050781 46.96875 61.050781 49.957031 L 61.050781 67.929688 C 61.050781 70.917969 58.625 73.34375 55.632812 73.34375 Z M 55.632812 73.34375 "/><path style=" stroke:none;fill-rule:nonzero;fill:#e9c278;fill-opacity:1;" d="M 55.632812 124.765625 L 8.363281 124.765625 C 5.371094 124.765625 2.949219 122.34375 2.949219 119.351562 L 2.949219 101.378906 C 2.949219 98.390625 5.371094 95.96875 8.363281 95.96875 L 55.632812 95.96875 C 58.625 95.96875 61.050781 98.390625 61.050781 101.378906 L 61.050781 119.351562 C 61.050781 122.339844 58.625 124.765625 55.632812 124.765625 Z M 55.632812 124.765625 "/><path style=" stroke:none;fill-rule:nonzero;fill:#e9c278;fill-opacity:1;" d="M 55.632812 176.1875 L 8.363281 176.1875 C 5.371094 176.1875 2.949219 173.765625 2.949219 170.773438 L 2.949219 152.804688 C 2.949219 149.8125 5.371094 147.390625 8.363281 147.390625 L 55.632812 147.390625 C 58.625 147.390625 61.050781 149.8125 61.050781 152.804688 L 61.050781 170.773438 C 61.050781 173.765625 58.625 176.1875 55.632812 176.1875 Z M 55.632812 176.1875 "/><path style=" stroke:none;fill-rule:nonzero;fill:#e9c278;fill-opacity:1;" d="M 55.632812 227.609375 L 8.363281 227.609375 C 5.371094 227.609375 2.949219 225.1875 2.949219 222.199219 L 2.949219 204.226562 C 2.949219 201.234375 5.371094 198.8125 8.363281 198.8125 L 55.632812 198.8125 C 58.625 198.8125 61.050781 201.234375 61.050781 204.226562 L 61.050781 222.199219 C 61.050781 225.1875 58.625 227.609375 55.632812 227.609375 Z M 55.632812 227.609375 "/><path style=" stroke:none;fill-rule:nonzero;fill:#e9c278;fill-opacity:1;" d="M 55.632812 279.035156 L 8.363281 279.035156 C 5.371094 279.035156 2.949219 276.609375 2.949219 273.621094 L 2.949219 255.648438 C 2.949219 252.660156 5.371094 250.234375 8.363281 250.234375 L 55.632812 250.234375 C 58.625 250.234375 61.050781 252.660156 61.050781 255.648438 L 61.050781 273.621094 C 61.050781 276.609375 58.625 279.035156 55.632812 279.035156 Z M 55.632812 279.035156 "/><path style=" stroke:none;fill-rule:nonzero;fill:#e9c278;fill-opacity:1;" d="M 55.632812 330.457031 L 8.363281 330.457031 C 5.371094 330.457031 2.949219 328.035156 2.949219 325.042969 L 2.949219 307.070312 C 2.949219 304.082031 5.371094 301.65625 8.363281 301.65625 L 55.632812 301.65625 C 58.625 301.65625 61.050781 304.082031 61.050781 307.070312 L 61.050781 325.042969 C 61.050781 328.035156 58.625 330.457031 55.632812 330.457031 Z M 55.632812 330.457031 "/><path style=" stroke:none;fill-rule:nonzero;fill:#f9fbfc;fill-opacity:1;" d="M 156.457031 162.074219 C 155.308594 156.734375 158.503906 151.535156 163.726562 149.933594 C 164.523438 149.6875 165.308594 149.351562 166.0625 148.914062 L 184.675781 138.109375 C 189.992188 135.023438 191.796875 128.214844 188.710938 122.902344 L 170.222656 91.085938 C 167.136719 85.773438 160.324219 83.964844 155.007812 87.050781 L 148.652344 90.742188 C 139.550781 96.023438 131.78125 103.34375 126.0625 112.171875 C 125.402344 113.1875 124.894531 114.039062 124.621094 114.617188 C 120.546875 123.246094 118.949219 133.785156 118.683594 144.828125 C 118.179688 165.613281 124.652344 188.675781 136.90625 209.769531 C 149.164062 230.863281 165.996094 247.910156 184.308594 257.777344 C 194.035156 263.019531 203.796875 266.050781 213.316406 266.792969 C 213.792969 266.828125 214.472656 266.839844 215.296875 266.828125 C 226.511719 266.691406 237.492188 263.601562 247.1875 257.976562 L 252.519531 254.878906 C 257.835938 251.792969 259.644531 244.988281 256.554688 239.675781 L 238.070312 207.855469 C 234.980469 202.542969 228.171875 200.738281 222.855469 203.820312 L 204.242188 214.625 C 203.488281 215.0625 202.804688 215.574219 202.199219 216.144531 C 198.21875 219.886719 192.113281 220.085938 188.042969 216.441406 C 180.605469 209.78125 173.703125 201.25 168.128906 191.652344 C 162.550781 182.050781 158.554688 171.832031 156.457031 162.074219 Z M 156.457031 162.074219 "/><path style=" stroke:none;fill-rule:nonzero;fill:#f9fbfc;fill-opacity:1;" d="M 299.664062 16.390625 C 298.402344 16.390625 297.375 17.414062 297.375 18.675781 C 297.375 19.941406 298.402344 20.964844 299.664062 20.964844 C 300.929688 20.964844 301.953125 19.941406 301.953125 18.675781 C 301.953125 17.414062 300.929688 16.390625 299.664062 16.390625 Z M 299.664062 16.390625 "/><path style=" stroke:none;fill-rule:nonzero;fill:#f9fbfc;fill-opacity:1;" d="M 299.664062 31.132812 C 298.402344 31.132812 297.375 32.15625 297.375 33.421875 C 297.375 34.683594 298.402344 35.707031 299.664062 35.707031 C 300.929688 35.707031 301.953125 34.683594 301.953125 33.421875 C 301.953125 32.15625 300.929688 31.132812 299.664062 31.132812 Z M 299.664062 31.132812 "/><path style=" stroke:none;fill-rule:nonzero;fill:#f9fbfc;fill-opacity:1;" d="M 299.664062 45.875 C 298.402344 45.875 297.375 46.902344 297.375 48.164062 C 297.375 49.425781 298.402344 50.449219 299.664062 50.449219 C 300.929688 50.449219 301.953125 49.425781 301.953125 48.164062 C 301.953125 46.902344 300.929688 45.875 299.664062 45.875 Z M 299.664062 45.875 "/><path style=" stroke:none;fill-rule:nonzero;fill:#f9fbfc;fill-opacity:1;" d="M 299.664062 60.621094 C 298.402344 60.621094 297.375 61.644531 297.375 62.90625 C 297.375 64.167969 298.402344 65.195312 299.664062 65.195312 C 300.929688 65.195312 301.953125 64.167969 301.953125 62.90625 C 301.953125 61.644531 300.929688 60.621094 299.664062 60.621094 Z M 299.664062 60.621094 "/><path style=" stroke:none;fill-rule:nonzero;fill:#f9fbfc;fill-opacity:1;" d="M 299.664062 75.363281 C 298.402344 75.363281 297.375 76.386719 297.375 77.648438 C 297.375 78.910156 298.402344 79.9375 299.664062 79.9375 C 300.929688 79.9375 301.953125 78.910156 301.953125 77.648438 C 301.953125 76.386719 300.929688 75.363281 299.664062 75.363281 Z M 299.664062 75.363281 "/><path style=" stroke:none;fill-rule:nonzero;fill:#f9fbfc;fill-opacity:1;" d="M 299.664062 90.105469 C 298.402344 90.105469 297.375 91.128906 297.375 92.390625 C 297.375 93.65625 298.402344 94.679688 299.664062 94.679688 C 300.929688 94.679688 301.953125 93.652344 301.953125 92.390625 C 301.953125 91.128906 300.929688 90.105469 299.664062 90.105469 Z M 299.664062 90.105469 "/><path style=" stroke:none;fill-rule:nonzero;fill:#f9fbfc;fill-opacity:1;" d="M 299.664062 104.847656 C 298.402344 104.847656 297.375 105.871094 297.375 107.132812 C 297.375 108.398438 298.402344 109.421875 299.664062 109.421875 C 300.929688 109.421875 301.953125 108.398438 301.953125 107.132812 C 301.953125 105.871094 300.929688 104.847656 299.664062 104.847656 Z M 299.664062 104.847656 "/><path style=" stroke:none;fill-rule:nonzero;fill:#f9fbfc;fill-opacity:1;" d="M 299.664062 119.589844 C 298.402344 119.589844 297.375 120.613281 297.375 121.878906 C 297.375 123.140625 298.402344 124.164062 299.664062 124.164062 C 300.929688 124.164062 301.953125 123.140625 301.953125 121.878906 C 301.953125 120.613281 300.929688 119.589844 299.664062 119.589844 Z M 299.664062 119.589844 "/><path style=" stroke:none;fill-rule:nonzero;fill:#f9fbfc;fill-opacity:1;" d="M 299.664062 134.332031 C 298.402344 134.332031 297.375 135.355469 297.375 136.621094 C 297.375 137.882812 298.402344 138.90625 299.664062 138.90625 C 300.929688 138.90625 301.953125 137.882812 301.953125 136.621094 C 301.953125 135.355469 300.929688 134.332031 299.664062 134.332031 Z M 299.664062 134.332031 "/><path style=" stroke:none;fill-rule:nonzero;fill:#f9fbfc;fill-opacity:1;" d="M 299.664062 149.078125 C 298.402344 149.078125 297.375 150.101562 297.375 151.363281 C 297.375 152.625 298.402344 153.648438 299.664062 153.648438 C 300.929688 153.648438 301.953125 152.625 301.953125 151.363281 C 301.953125 150.101562 300.929688 149.078125 299.664062 149.078125 Z M 299.664062 149.078125 "/><path style=" stroke:none;fill-rule:nonzero;fill:#f9fbfc;fill-opacity:1;" d="M 299.664062 163.820312 C 298.402344 163.820312 297.375 164.84375 297.375 166.105469 C 297.375 167.371094 298.402344 168.390625 299.664062 168.390625 C 300.929688 168.390625 301.953125 167.367188 301.953125 166.105469 C 301.953125 164.84375 300.929688 163.820312 299.664062 163.820312 Z M 299.664062 163.820312 "/><path style=" stroke:none;fill-rule:nonzero;fill:#f9fbfc;fill-opacity:1;" d="M 299.664062 178.5625 C 298.402344 178.5625 297.375 179.585938 297.375 180.847656 C 297.375 182.109375 298.402344 183.132812 299.664062 183.132812 C 300.929688 183.132812 301.953125 182.109375 301.953125 180.847656 C 301.953125 179.585938 300.929688 178.5625 299.664062 178.5625 Z M 299.664062 178.5625 "/><path style=" stroke:none;fill-rule:nonzero;fill:#f9fbfc;fill-opacity:1;" d="M 299.664062 193.304688 C 298.402344 193.304688 297.375 194.328125 297.375 195.589844 C 297.375 196.855469 298.402344 197.878906 299.664062 197.878906 C 300.929688 197.878906 301.953125 196.855469 301.953125 195.589844 C 301.953125 194.328125 300.929688 193.304688 299.664062 193.304688 Z M 299.664062 193.304688 "/><path style=" stroke:none;fill-rule:nonzero;fill:#f9fbfc;fill-opacity:1;" d="M 299.664062 208.046875 C 298.402344 208.046875 297.375 209.070312 297.375 210.332031 C 297.375 211.597656 298.402344 212.621094 299.664062 212.621094 C 300.929688 212.621094 301.953125 211.597656 301.953125 210.332031 C 301.953125 209.070312 300.929688 208.046875 299.664062 208.046875 Z M 299.664062 208.046875 "/><path style=" stroke:none;fill-rule:nonzero;fill:#f9fbfc;fill-opacity:1;" d="M 299.664062 222.789062 C 298.402344 222.789062 297.375 223.8125 297.375 225.078125 C 297.375 226.339844 298.402344 227.363281 299.664062 227.363281 C 300.929688 227.363281 301.953125 226.339844 301.953125 225.078125 C 301.953125 223.8125 300.929688 222.789062 299.664062 222.789062 Z M 299.664062 222.789062 "/><path style=" stroke:none;fill-rule:nonzero;fill:#f9fbfc;fill-opacity:1;" d="M 299.664062 237.53125 C 298.402344 237.53125 297.375 238.558594 297.375 239.820312 C 297.375 241.082031 298.402344 242.105469 299.664062 242.105469 C 300.929688 242.105469 301.953125 241.082031 301.953125 239.820312 C 301.953125 238.558594 300.929688 237.53125 299.664062 237.53125 Z M 299.664062 237.53125 "/><path style=" stroke:none;fill-rule:nonzero;fill:#f9fbfc;fill-opacity:1;" d="M 299.664062 252.277344 C 298.402344 252.277344 297.375 253.300781 297.375 254.5625 C 297.375 255.824219 298.402344 256.851562 299.664062 256.851562 C 300.929688 256.851562 301.953125 255.824219 301.953125 254.5625 C 301.953125 253.300781 300.929688 252.277344 299.664062 252.277344 Z M 299.664062 252.277344 "/><path style=" stroke:none;fill-rule:nonzero;fill:#f9fbfc;fill-opacity:1;" d="M 299.664062 267.019531 C 298.402344 267.019531 297.375 268.042969 297.375 269.304688 C 297.375 270.566406 298.402344 271.589844 299.664062 271.589844 C 300.929688 271.589844 301.953125 270.566406 301.953125 269.304688 C 301.953125 268.042969 300.929688 267.019531 299.664062 267.019531 Z M 299.664062 267.019531 "/><path style=" stroke:none;fill-rule:nonzero;fill:#f9fbfc;fill-opacity:1;" d="M 299.664062 281.761719 C 298.402344 281.761719 297.375 282.785156 297.375 284.046875 C 297.375 285.308594 298.402344 286.335938 299.664062 286.335938 C 300.929688 286.335938 301.953125 285.308594 301.953125 284.046875 C 301.953125 282.785156 300.929688 281.761719 299.664062 281.761719 Z M 299.664062 281.761719 "/><path style=" stroke:none;fill-rule:nonzero;fill:#f9fbfc;fill-opacity:1;" d="M 299.664062 296.503906 C 298.402344 296.503906 297.375 297.527344 297.375 298.789062 C 297.375 300.054688 298.402344 301.078125 299.664062 301.078125 C 300.929688 301.078125 301.953125 300.054688 301.953125 298.789062 C 301.953125 297.527344 300.929688 296.503906 299.664062 296.503906 Z M 299.664062 296.503906 "/><path style=" stroke:none;fill-rule:nonzero;fill:#f9fbfc;fill-opacity:1;" d="M 299.664062 311.246094 C 298.402344 311.246094 297.375 312.269531 297.375 313.535156 C 297.375 314.796875 298.402344 315.820312 299.664062 315.820312 C 300.929688 315.820312 301.953125 314.796875 301.953125 313.535156 C 301.953125 312.269531 300.929688 311.246094 299.664062 311.246094 Z M 299.664062 311.246094 "/><path style=" stroke:none;fill-rule:nonzero;fill:#f9fbfc;fill-opacity:1;" d="M 299.664062 325.988281 C 298.402344 325.988281 297.375 327.015625 297.375 328.277344 C 297.375 329.539062 298.402344 330.5625 299.664062 330.5625 C 300.929688 330.5625 301.953125 329.539062 301.953125 328.277344 C 301.953125 327.015625 300.929688 325.988281 299.664062 325.988281 Z M 299.664062 325.988281 "/><path style=" stroke:none;fill-rule:nonzero;fill:#f9fbfc;fill-opacity:1;" d="M 299.664062 340.734375 C 298.402344 340.734375 297.375 341.757812 297.375 343.019531 C 297.375 344.28125 298.402344 345.304688 299.664062 345.304688 C 300.929688 345.304688 301.953125 344.28125 301.953125 343.019531 C 301.953125 341.757812 300.929688 340.734375 299.664062 340.734375 Z M 299.664062 340.734375 "/><path style=" stroke:none;fill-rule:nonzero;fill:#f9fbfc;fill-opacity:1;" d="M 299.664062 355.476562 C 298.402344 355.476562 297.375 356.5 297.375 357.761719 C 297.375 359.023438 298.402344 360.050781 299.664062 360.050781 C 300.929688 360.050781 301.953125 359.023438 301.953125 357.761719 C 301.953125 356.5 300.929688 355.476562 299.664062 355.476562 Z M 299.664062 355.476562 "/><path style=" stroke:none;fill-rule:nonzero;fill:#f9fbfc;fill-opacity:1;" d="M 292.566406 8.742188 C 291.304688 8.742188 290.277344 9.765625 290.277344 11.03125 C 290.277344 12.292969 291.304688 13.316406 292.566406 13.316406 C 293.828125 13.316406 294.855469 12.292969 294.855469 11.03125 C 294.855469 9.765625 293.832031 8.742188 292.566406 8.742188 Z M 292.566406 8.742188 "/><path style=" stroke:none;fill-rule:nonzero;fill:#f9fbfc;fill-opacity:1;" d="M 284.914062 16.390625 C 283.652344 16.390625 282.625 17.414062 282.625 18.675781 C 282.625 19.941406 283.652344 20.964844 284.914062 20.964844 C 286.175781 20.964844 287.203125 19.941406 287.203125 18.675781 C 287.203125 17.414062 286.175781 16.390625 284.914062 16.390625 Z M 284.914062 16.390625 "/><path style=" stroke:none;fill-rule:nonzero;fill:#f9fbfc;fill-opacity:1;" d="M 292.566406 23.484375 C 291.304688 23.484375 290.277344 24.507812 290.277344 25.773438 C 290.277344 27.035156 291.304688 28.058594 292.566406 28.058594 C 293.828125 28.058594 294.855469 27.035156 294.855469 25.773438 C 294.855469 24.507812 293.832031 23.484375 292.566406 23.484375 Z M 292.566406 23.484375 "/><path style=" stroke:none;fill-rule:nonzero;fill:#f9fbfc;fill-opacity:1;" d="M 284.914062 31.132812 C 283.652344 31.132812 282.625 32.15625 282.625 33.421875 C 282.625 34.683594 283.652344 35.707031 284.914062 35.707031 C 286.175781 35.707031 287.203125 34.683594 287.203125 33.421875 C 287.203125 32.15625 286.175781 31.132812 284.914062 31.132812 Z M 284.914062 31.132812 "/><path style=" stroke:none;fill-rule:nonzero;fill:#f9fbfc;fill-opacity:1;" d="M 292.566406 38.226562 C 291.304688 38.226562 290.277344 39.25 290.277344 40.515625 C 290.277344 41.777344 291.304688 42.800781 292.566406 42.800781 C 293.828125 42.800781 294.855469 41.777344 294.855469 40.515625 C 294.855469 39.25 293.832031 38.226562 292.566406 38.226562 Z M 292.566406 38.226562 "/><path style=" stroke:none;fill-rule:nonzero;fill:#f9fbfc;fill-opacity:1;" d="M 284.914062 45.875 C 283.652344 45.875 282.625 46.902344 282.625 48.164062 C 282.625 49.425781 283.652344 50.449219 284.914062 50.449219 C 286.175781 50.449219 287.203125 49.425781 287.203125 48.164062 C 287.203125 46.902344 286.175781 45.875 284.914062 45.875 Z M 284.914062 45.875 "/><path style=" stroke:none;fill-rule:nonzero;fill:#f9fbfc;fill-opacity:1;" d="M 292.566406 52.96875 C 291.304688 52.96875 290.277344 53.992188 290.277344 55.257812 C 290.277344 56.519531 291.304688 57.542969 292.566406 57.542969 C 293.828125 57.542969 294.855469 56.519531 294.855469 55.257812 C 294.855469 53.992188 293.832031 52.96875 292.566406 52.96875 Z M 292.566406 52.96875 "/><path style=" stroke:none;fill-rule:nonzero;fill:#f9fbfc;fill-opacity:1;" d="M 284.914062 60.621094 C 283.652344 60.621094 282.625 61.644531 282.625 62.90625 C 282.625 64.167969 283.652344 65.195312 284.914062 65.195312 C 286.175781 65.195312 287.203125 64.167969 287.203125 62.90625 C 287.203125 61.644531 286.175781 60.621094 284.914062 60.621094 Z M 284.914062 60.621094 "/><path style=" stroke:none;fill-rule:nonzero;fill:#f9fbfc;fill-opacity:1;" d="M 292.566406 67.714844 C 291.304688 67.714844 290.277344 68.738281 290.277344 70 C 290.277344 71.261719 291.304688 72.285156 292.566406 72.285156 C 293.828125 72.285156 294.855469 71.261719 294.855469 70 C 294.855469 68.738281 293.832031 67.714844 292.566406 67.714844 Z M 292.566406 67.714844 "/><path style=" stroke:none;fill-rule:nonzero;fill:#f9fbfc;fill-opacity:1;" d="M 284.914062 75.363281 C 283.652344 75.363281 282.625 76.386719 282.625 77.648438 C 282.625 78.910156 283.652344 79.9375 284.914062 79.9375 C 286.175781 79.9375 287.203125 78.910156 287.203125 77.648438 C 287.203125 76.386719 286.175781 75.363281 284.914062 75.363281 Z M 284.914062 75.363281 "/><path style=" stroke:none;fill-rule:nonzero;fill:#f9fbfc;fill-opacity:1;" d="M 292.566406 82.457031 C 291.304688 82.457031 290.277344 83.480469 290.277344 84.742188 C 290.277344 86.007812 291.304688 87.027344 292.566406 87.027344 C 293.828125 87.027344 294.855469 86.003906 294.855469 84.742188 C 294.855469 83.480469 293.832031 82.457031 292.566406 82.457031 Z M 292.566406 82.457031 "/><path style=" stroke:none;fill-rule:nonzero;fill:#f9fbfc;fill-opacity:1;" d="M 284.914062 90.105469 C 283.652344 90.105469 282.625 91.128906 282.625 92.390625 C 282.625 93.65625 283.652344 94.679688 284.914062 94.679688 C 286.175781 94.679688 287.203125 93.652344 287.203125 92.390625 C 287.203125 91.128906 286.175781 90.105469 284.914062 90.105469 Z M 284.914062 90.105469 "/><path style=" stroke:none;fill-rule:nonzero;fill:#f9fbfc;fill-opacity:1;" d="M 292.566406 97.199219 C 291.304688 97.199219 290.277344 98.222656 290.277344 99.484375 C 290.277344 100.75 291.304688 101.773438 292.566406 101.773438 C 293.828125 101.773438 294.855469 100.75 294.855469 99.484375 C 294.855469 98.222656 293.832031 97.199219 292.566406 97.199219 Z M 292.566406 97.199219 "/><path style=" stroke:none;fill-rule:nonzero;fill:#f9fbfc;fill-opacity:1;" d="M 284.914062 104.847656 C 283.652344 104.847656 282.625 105.871094 282.625 107.132812 C 282.625 108.398438 283.652344 109.421875 284.914062 109.421875 C 286.175781 109.421875 287.203125 108.398438 287.203125 107.132812 C 287.203125 105.871094 286.175781 104.847656 284.914062 104.847656 Z M 284.914062 104.847656 "/><path style=" stroke:none;fill-rule:nonzero;fill:#f9fbfc;fill-opacity:1;" d="M 292.566406 111.941406 C 291.304688 111.941406 290.277344 112.964844 290.277344 114.226562 C 290.277344 115.492188 291.304688 116.515625 292.566406 116.515625 C 293.828125 116.515625 294.855469 115.492188 294.855469 114.226562 C 294.855469 112.964844 293.832031 111.941406 292.566406 111.941406 Z M 292.566406 111.941406 "/><path style=" stroke:none;fill-rule:nonzero;fill:#f9fbfc;fill-opacity:1;" d="M 284.914062 119.589844 C 283.652344 119.589844 282.625 120.613281 282.625 121.878906 C 282.625 123.140625 283.652344 124.164062 284.914062 124.164062 C 286.175781 124.164062 287.203125 123.140625 287.203125 121.878906 C 287.203125 120.613281 286.175781 119.589844 284.914062 119.589844 Z M 284.914062 119.589844 "/><path style=" stroke:none;fill-rule:nonzero;fill:#f9fbfc;fill-opacity:1;" d="M 292.566406 126.683594 C 291.304688 126.683594 290.277344 127.707031 290.277344 128.972656 C 290.277344 130.234375 291.304688 131.257812 292.566406 131.257812 C 293.828125 131.257812 294.855469 130.234375 294.855469 128.972656 C 294.855469 127.707031 293.832031 126.683594 292.566406 126.683594 Z M 292.566406 126.683594 "/><path style=" stroke:none;fill-rule:nonzero;fill:#f9fbfc;fill-opacity:1;" d="M 284.914062 134.332031 C 283.652344 134.332031 282.625 135.355469 282.625 136.621094 C 282.625 137.882812 283.652344 138.90625 284.914062 138.90625 C 286.175781 138.90625 287.203125 137.882812 287.203125 136.621094 C 287.203125 135.355469 286.175781 134.332031 284.914062 134.332031 Z M 284.914062 134.332031 "/><path style=" stroke:none;fill-rule:nonzero;fill:#f9fbfc;fill-opacity:1;" d="M 292.566406 141.425781 C 291.304688 141.425781 290.277344 142.449219 290.277344 143.714844 C 290.277344 144.976562 291.304688 146 292.566406 146 C 293.828125 146 294.855469 144.976562 294.855469 143.714844 C 294.855469 142.449219 293.832031 141.425781 292.566406 141.425781 Z M 292.566406 141.425781 "/><path style=" stroke:none;fill-rule:nonzero;fill:#f9fbfc;fill-opacity:1;" d="M 284.914062 149.078125 C 283.652344 149.078125 282.625 150.101562 282.625 151.363281 C 282.625 152.625 283.652344 153.648438 284.914062 153.648438 C 286.175781 153.648438 287.203125 152.625 287.203125 151.363281 C 287.203125 150.101562 286.175781 149.078125 284.914062 149.078125 Z M 284.914062 149.078125 "/><path style=" stroke:none;fill-rule:nonzero;fill:#f9fbfc;fill-opacity:1;" d="M 292.566406 156.167969 C 291.304688 156.167969 290.277344 157.195312 290.277344 158.457031 C 290.277344 159.71875 291.304688 160.742188 292.566406 160.742188 C 293.828125 160.742188 294.855469 159.71875 294.855469 158.457031 C 294.855469 157.195312 293.832031 156.167969 292.566406 156.167969 Z M 292.566406 156.167969 "/><path style=" stroke:none;fill-rule:nonzero;fill:#f9fbfc;fill-opacity:1;" d="M 284.914062 163.820312 C 283.652344 163.820312 282.625 164.84375 282.625 166.105469 C 282.625 167.371094 283.652344 168.390625 284.914062 168.390625 C 286.175781 168.390625 287.203125 167.367188 287.203125 166.105469 C 287.203125 164.84375 286.175781 163.820312 284.914062 163.820312 Z M 284.914062 163.820312 "/><path style=" stroke:none;fill-rule:nonzero;fill:#f9fbfc;fill-opacity:1;" d="M 292.566406 170.914062 C 291.304688 170.914062 290.277344 171.9375 290.277344 173.199219 C 290.277344 174.460938 291.304688 175.484375 292.566406 175.484375 C 293.828125 175.484375 294.855469 174.460938 294.855469 173.199219 C 294.855469 171.9375 293.832031 170.914062 292.566406 170.914062 Z M 292.566406 170.914062 "/><path style=" stroke:none;fill-rule:nonzero;fill:#f9fbfc;fill-opacity:1;" d="M 284.914062 178.5625 C 283.652344 178.5625 282.625 179.585938 282.625 180.847656 C 282.625 182.109375 283.652344 183.132812 284.914062 183.132812 C 286.175781 183.132812 287.203125 182.109375 287.203125 180.847656 C 287.203125 179.585938 286.175781 178.5625 284.914062 178.5625 Z M 284.914062 178.5625 "/><path style=" stroke:none;fill-rule:nonzero;fill:#f9fbfc;fill-opacity:1;" d="M 292.566406 185.65625 C 291.304688 185.65625 290.277344 186.679688 290.277344 187.941406 C 290.277344 189.207031 291.304688 190.230469 292.566406 190.230469 C 293.828125 190.230469 294.855469 189.207031 294.855469 187.941406 C 294.855469 186.679688 293.832031 185.65625 292.566406 185.65625 Z M 292.566406 185.65625 "/><path style=" stroke:none;fill-rule:nonzero;fill:#f9fbfc;fill-opacity:1;" d="M 284.914062 193.304688 C 283.652344 193.304688 282.625 194.328125 282.625 195.589844 C 282.625 196.855469 283.652344 197.878906 284.914062 197.878906 C 286.175781 197.878906 287.203125 196.855469 287.203125 195.589844 C 287.203125 194.328125 286.175781 193.304688 284.914062 193.304688 Z M 284.914062 193.304688 "/><path style=" stroke:none;fill-rule:nonzero;fill:#f9fbfc;fill-opacity:1;" d="M 292.566406 200.398438 C 291.304688 200.398438 290.277344 201.421875 290.277344 202.683594 C 290.277344 203.949219 291.304688 204.972656 292.566406 204.972656 C 293.828125 204.972656 294.855469 203.949219 294.855469 202.683594 C 294.855469 201.421875 293.832031 200.398438 292.566406 200.398438 Z M 292.566406 200.398438 "/><path style=" stroke:none;fill-rule:nonzero;fill:#f9fbfc;fill-opacity:1;" d="M 284.914062 208.046875 C 283.652344 208.046875 282.625 209.070312 282.625 210.332031 C 282.625 211.597656 283.652344 212.621094 284.914062 212.621094 C 286.175781 212.621094 287.203125 211.597656 287.203125 210.332031 C 287.203125 209.070312 286.175781 208.046875 284.914062 208.046875 Z M 284.914062 208.046875 "/><path style=" stroke:none;fill-rule:nonzero;fill:#f9fbfc;fill-opacity:1;" d="M 292.566406 215.140625 C 291.304688 215.140625 290.277344 216.164062 290.277344 217.429688 C 290.277344 218.691406 291.304688 219.714844 292.566406 219.714844 C 293.828125 219.714844 294.855469 218.691406 294.855469 217.429688 C 294.855469 216.164062 293.832031 215.140625 292.566406 215.140625 Z M 292.566406 215.140625 "/><path style=" stroke:none;fill-rule:nonzero;fill:#f9fbfc;fill-opacity:1;" d="M 284.914062 222.789062 C 283.652344 222.789062 282.625 223.8125 282.625 225.078125 C 282.625 226.339844 283.652344 227.363281 284.914062 227.363281 C 286.175781 227.363281 287.203125 226.339844 287.203125 225.078125 C 287.203125 223.8125 286.175781 222.789062 284.914062 222.789062 Z M 284.914062 222.789062 "/><path style=" stroke:none;fill-rule:nonzero;fill:#f9fbfc;fill-opacity:1;" d="M 292.566406 229.882812 C 291.304688 229.882812 290.277344 230.90625 290.277344 232.171875 C 290.277344 233.433594 291.304688 234.457031 292.566406 234.457031 C 293.828125 234.457031 294.855469 233.433594 294.855469 232.171875 C 294.855469 230.90625 293.832031 229.882812 292.566406 229.882812 Z M 292.566406 229.882812 "/><path style=" stroke:none;fill-rule:nonzero;fill:#f9fbfc;fill-opacity:1;" d="M 284.914062 237.53125 C 283.652344 237.53125 282.625 238.558594 282.625 239.820312 C 282.625 241.082031 283.652344 242.105469 284.914062 242.105469 C 286.175781 242.105469 287.203125 241.082031 287.203125 239.820312 C 287.203125 238.558594 286.175781 237.53125 284.914062 237.53125 Z M 284.914062 237.53125 "/><path style=" stroke:none;fill-rule:nonzero;fill:#f9fbfc;fill-opacity:1;" d="M 292.566406 244.625 C 291.304688 244.625 290.277344 245.652344 290.277344 246.914062 C 290.277344 248.175781 291.304688 249.199219 292.566406 249.199219 C 293.828125 249.199219 294.855469 248.175781 294.855469 246.914062 C 294.855469 245.652344 293.832031 244.625 292.566406 244.625 Z M 292.566406 244.625 "/><path style=" stroke:none;fill-rule:nonzero;fill:#f9fbfc;fill-opacity:1;" d="M 284.914062 252.277344 C 283.652344 252.277344 282.625 253.300781 282.625 254.5625 C 282.625 255.824219 283.652344 256.851562 284.914062 256.851562 C 286.175781 256.851562 287.203125 255.824219 287.203125 254.5625 C 287.203125 253.300781 286.175781 252.277344 284.914062 252.277344 Z M 284.914062 252.277344 "/><path style=" stroke:none;fill-rule:nonzero;fill:#f9fbfc;fill-opacity:1;" d="M 292.566406 259.371094 C 291.304688 259.371094 290.277344 260.394531 290.277344 261.65625 C 290.277344 262.917969 291.304688 263.941406 292.566406 263.941406 C 293.828125 263.941406 294.855469 262.917969 294.855469 261.65625 C 294.855469 260.394531 293.832031 259.371094 292.566406 259.371094 Z M 292.566406 259.371094 "/><path style=" stroke:none;fill-rule:nonzero;fill:#f9fbfc;fill-opacity:1;" d="M 284.914062 267.019531 C 283.652344 267.019531 282.625 268.042969 282.625 269.304688 C 282.625 270.566406 283.652344 271.589844 284.914062 271.589844 C 286.175781 271.589844 287.203125 270.566406 287.203125 269.304688 C 287.203125 268.042969 286.175781 267.019531 284.914062 267.019531 Z M 284.914062 267.019531 "/><path style=" stroke:none;fill-rule:nonzero;fill:#f9fbfc;fill-opacity:1;" d="M 292.566406 274.113281 C 291.304688 274.113281 290.277344 275.136719 290.277344 276.398438 C 290.277344 277.660156 291.304688 278.6875 292.566406 278.6875 C 293.828125 278.6875 294.855469 277.660156 294.855469 276.398438 C 294.855469 275.136719 293.832031 274.113281 292.566406 274.113281 Z M 292.566406 274.113281 "/><path style=" stroke:none;fill-rule:nonzero;fill:#f9fbfc;fill-opacity:1;" d="M 284.914062 281.761719 C 283.652344 281.761719 282.625 282.785156 282.625 284.046875 C 282.625 285.308594 283.652344 286.335938 284.914062 286.335938 C 286.175781 286.335938 287.203125 285.308594 287.203125 284.046875 C 287.203125 282.785156 286.175781 281.761719 284.914062 281.761719 Z M 284.914062 281.761719 "/><path style=" stroke:none;fill-rule:nonzero;fill:#f9fbfc;fill-opacity:1;" d="M 292.566406 288.855469 C 291.304688 288.855469 290.277344 289.878906 290.277344 291.140625 C 290.277344 292.40625 291.304688 293.429688 292.566406 293.429688 C 293.828125 293.429688 294.855469 292.40625 294.855469 291.140625 C 294.855469 289.878906 293.832031 288.855469 292.566406 288.855469 Z M 292.566406 288.855469 "/><path style=" stroke:none;fill-rule:nonzero;fill:#f9fbfc;fill-opacity:1;" d="M 284.914062 296.503906 C 283.652344 296.503906 282.625 297.527344 282.625 298.789062 C 282.625 300.054688 283.652344 301.078125 284.914062 301.078125 C 286.175781 301.078125 287.203125 300.054688 287.203125 298.789062 C 287.203125 297.527344 286.175781 296.503906 284.914062 296.503906 Z M 284.914062 296.503906 "/><path style=" stroke:none;fill-rule:nonzero;fill:#f9fbfc;fill-opacity:1;" d="M 292.566406 303.597656 C 291.304688 303.597656 290.277344 304.621094 290.277344 305.886719 C 290.277344 307.148438 291.304688 308.171875 292.566406 308.171875 C 293.828125 308.171875 294.855469 307.148438 294.855469 305.886719 C 294.855469 304.621094 293.832031 303.597656 292.566406 303.597656 Z M 292.566406 303.597656 "/><path style=" stroke:none;fill-rule:nonzero;fill:#f9fbfc;fill-opacity:1;" d="M 284.914062 311.246094 C 283.652344 311.246094 282.625 312.269531 282.625 313.535156 C 282.625 314.796875 283.652344 315.820312 284.914062 315.820312 C 286.175781 315.820312 287.203125 314.796875 287.203125 313.535156 C 287.203125 312.269531 286.175781 311.246094 284.914062 311.246094 Z M 284.914062 311.246094 "/><path style=" stroke:none;fill-rule:nonzero;fill:#f9fbfc;fill-opacity:1;" d="M 292.566406 318.339844 C 291.304688 318.339844 290.277344 319.363281 290.277344 320.628906 C 290.277344 321.890625 291.304688 322.914062 292.566406 322.914062 C 293.828125 322.914062 294.855469 321.890625 294.855469 320.628906 C 294.855469 319.367188 293.832031 318.339844 292.566406 318.339844 Z M 292.566406 318.339844 "/><path style=" stroke:none;fill-rule:nonzero;fill:#f9fbfc;fill-opacity:1;" d="M 284.914062 325.988281 C 283.652344 325.988281 282.625 327.015625 282.625 328.277344 C 282.625 329.539062 283.652344 330.5625 284.914062 330.5625 C 286.175781 330.5625 287.203125 329.539062 287.203125 328.277344 C 287.203125 327.015625 286.175781 325.988281 284.914062 325.988281 Z M 284.914062 325.988281 "/><path style=" stroke:none;fill-rule:nonzero;fill:#f9fbfc;fill-opacity:1;" d="M 292.566406 333.082031 C 291.304688 333.082031 290.277344 334.105469 290.277344 335.371094 C 290.277344 336.632812 291.304688 337.65625 292.566406 337.65625 C 293.828125 337.65625 294.855469 336.632812 294.855469 335.371094 C 294.855469 334.105469 293.832031 333.082031 292.566406 333.082031 Z M 292.566406 333.082031 "/><path style=" stroke:none;fill-rule:nonzero;fill:#f9fbfc;fill-opacity:1;" d="M 284.914062 340.734375 C 283.652344 340.734375 282.625 341.757812 282.625 343.019531 C 282.625 344.28125 283.652344 345.304688 284.914062 345.304688 C 286.175781 345.304688 287.203125 344.28125 287.203125 343.019531 C 287.203125 341.757812 286.175781 340.734375 284.914062 340.734375 Z M 284.914062 340.734375 "/><path style=" stroke:none;fill-rule:nonzero;fill:#f9fbfc;fill-opacity:1;" d="M 292.566406 347.828125 C 291.304688 347.828125 290.277344 348.851562 290.277344 350.113281 C 290.277344 351.375 291.304688 352.398438 292.566406 352.398438 C 293.828125 352.398438 294.855469 351.375 294.855469 350.113281 C 294.855469 348.851562 293.832031 347.828125 292.566406 347.828125 Z M 292.566406 347.828125 "/><path style=" stroke:none;fill-rule:nonzero;fill:#f9fbfc;fill-opacity:1;" d="M 284.914062 355.476562 C 283.652344 355.476562 282.625 356.5 282.625 357.761719 C 282.625 359.023438 283.652344 360.050781 284.914062 360.050781 C 286.175781 360.050781 287.203125 359.023438 287.203125 357.761719 C 287.203125 356.5 286.175781 355.476562 284.914062 355.476562 Z M 284.914062 355.476562 "/><path style=" stroke:none;fill-rule:nonzero;fill:#f9fbfc;fill-opacity:1;" d="M 292.566406 362.570312 C 291.304688 362.570312 290.277344 363.59375 290.277344 364.855469 C 290.277344 366.117188 291.304688 367.140625 292.566406 367.140625 C 293.828125 367.140625 294.855469 366.117188 294.855469 364.855469 C 294.855469 363.59375 293.832031 362.570312 292.566406 362.570312 Z M 292.566406 362.570312 "/><path style=" stroke:none;fill-rule:nonzero;fill:#f9fbfc;fill-opacity:1;" d="M 277.816406 8.742188 C 276.550781 8.742188 275.527344 9.765625 275.527344 11.03125 C 275.527344 12.292969 276.550781 13.316406 277.816406 13.316406 C 279.078125 13.316406 280.105469 12.292969 280.105469 11.03125 C 280.105469 9.765625 279.078125 8.742188 277.816406 8.742188 Z M 277.816406 8.742188 "/><path style=" stroke:none;fill-rule:nonzero;fill:#f9fbfc;fill-opacity:1;" d="M 270.164062 16.390625 C 268.898438 16.390625 267.875 17.414062 267.875 18.675781 C 267.875 19.941406 268.898438 20.964844 270.164062 20.964844 C 271.425781 20.964844 272.449219 19.941406 272.449219 18.675781 C 272.449219 17.414062 271.425781 16.390625 270.164062 16.390625 Z M 270.164062 16.390625 "/><path style=" stroke:none;fill-rule:nonzero;fill:#f9fbfc;fill-opacity:1;" d="M 277.816406 23.484375 C 276.550781 23.484375 275.527344 24.507812 275.527344 25.773438 C 275.527344 27.035156 276.550781 28.058594 277.816406 28.058594 C 279.078125 28.058594 280.105469 27.035156 280.105469 25.773438 C 280.105469 24.507812 279.078125 23.484375 277.816406 23.484375 Z M 277.816406 23.484375 "/><path style=" stroke:none;fill-rule:nonzero;fill:#f9fbfc;fill-opacity:1;" d="M 270.164062 31.132812 C 268.898438 31.132812 267.875 32.15625 267.875 33.421875 C 267.875 34.683594 268.898438 35.707031 270.164062 35.707031 C 271.425781 35.707031 272.449219 34.683594 272.449219 33.421875 C 272.449219 32.15625 271.425781 31.132812 270.164062 31.132812 Z M 270.164062 31.132812 "/><path style=" stroke:none;fill-rule:nonzero;fill:#f9fbfc;fill-opacity:1;" d="M 277.816406 38.226562 C 276.550781 38.226562 275.527344 39.25 275.527344 40.515625 C 275.527344 41.777344 276.550781 42.800781 277.816406 42.800781 C 279.078125 42.800781 280.105469 41.777344 280.105469 40.515625 C 280.105469 39.25 279.078125 38.226562 277.816406 38.226562 Z M 277.816406 38.226562 "/><path style=" stroke:none;fill-rule:nonzero;fill:#f9fbfc;fill-opacity:1;" d="M 270.164062 45.875 C 268.898438 45.875 267.875 46.902344 267.875 48.164062 C 267.875 49.425781 268.898438 50.449219 270.164062 50.449219 C 271.425781 50.449219 272.449219 49.425781 272.449219 48.164062 C 272.449219 46.902344 271.425781 45.875 270.164062 45.875 Z M 270.164062 45.875 "/><path style=" stroke:none;fill-rule:nonzero;fill:#f9fbfc;fill-opacity:1;" d="M 277.816406 52.96875 C 276.550781 52.96875 275.527344 53.992188 275.527344 55.257812 C 275.527344 56.519531 276.550781 57.542969 277.816406 57.542969 C 279.078125 57.542969 280.105469 56.519531 280.105469 55.257812 C 280.105469 53.992188 279.078125 52.96875 277.816406 52.96875 Z M 277.816406 52.96875 "/><path style=" stroke:none;fill-rule:nonzero;fill:#f9fbfc;fill-opacity:1;" d="M 270.164062 60.621094 C 268.898438 60.621094 267.875 61.644531 267.875 62.90625 C 267.875 64.167969 268.898438 65.195312 270.164062 65.195312 C 271.425781 65.195312 272.449219 64.167969 272.449219 62.90625 C 272.449219 61.644531 271.425781 60.621094 270.164062 60.621094 Z M 270.164062 60.621094 "/><path style=" stroke:none;fill-rule:nonzero;fill:#f9fbfc;fill-opacity:1;" d="M 277.816406 67.714844 C 276.550781 67.714844 275.527344 68.738281 275.527344 70 C 275.527344 71.261719 276.550781 72.285156 277.816406 72.285156 C 279.078125 72.285156 280.105469 71.261719 280.105469 70 C 280.105469 68.738281 279.078125 67.714844 277.816406 67.714844 Z M 277.816406 67.714844 "/><path style=" stroke:none;fill-rule:nonzero;fill:#f9fbfc;fill-opacity:1;" d="M 270.164062 75.363281 C 268.898438 75.363281 267.875 76.386719 267.875 77.648438 C 267.875 78.910156 268.898438 79.9375 270.164062 79.9375 C 271.425781 79.9375 272.449219 78.910156 272.449219 77.648438 C 272.449219 76.386719 271.425781 75.363281 270.164062 75.363281 Z M 270.164062 75.363281 "/><path style=" stroke:none;fill-rule:nonzero;fill:#f9fbfc;fill-opacity:1;" d="M 277.816406 82.457031 C 276.550781 82.457031 275.527344 83.480469 275.527344 84.742188 C 275.527344 86.007812 276.550781 87.027344 277.816406 87.027344 C 279.078125 87.027344 280.105469 86.003906 280.105469 84.742188 C 280.105469 83.480469 279.078125 82.457031 277.816406 82.457031 Z M 277.816406 82.457031 "/><path style=" stroke:none;fill-rule:nonzero;fill:#f9fbfc;fill-opacity:1;" d="M 270.164062 90.105469 C 268.898438 90.105469 267.875 91.128906 267.875 92.390625 C 267.875 93.65625 268.898438 94.679688 270.164062 94.679688 C 271.425781 94.679688 272.449219 93.652344 272.449219 92.390625 C 272.449219 91.128906 271.425781 90.105469 270.164062 90.105469 Z M 270.164062 90.105469 "/><path style=" stroke:none;fill-rule:nonzero;fill:#f9fbfc;fill-opacity:1;" d="M 277.816406 97.199219 C 276.550781 97.199219 275.527344 98.222656 275.527344 99.484375 C 275.527344 100.75 276.550781 101.773438 277.816406 101.773438 C 279.078125 101.773438 280.105469 100.75 280.105469 99.484375 C 280.105469 98.222656 279.078125 97.199219 277.816406 97.199219 Z M 277.816406 97.199219 "/><path style=" stroke:none;fill-rule:nonzero;fill:#f9fbfc;fill-opacity:1;" d="M 270.164062 104.847656 C 268.898438 104.847656 267.875 105.871094 267.875 107.132812 C 267.875 108.398438 268.898438 109.421875 270.164062 109.421875 C 271.425781 109.421875 272.449219 108.398438 272.449219 107.132812 C 272.449219 105.871094 271.425781 104.847656 270.164062 104.847656 Z M 270.164062 104.847656 "/><path style=" stroke:none;fill-rule:nonzero;fill:#f9fbfc;fill-opacity:1;" d="M 277.816406 111.941406 C 276.550781 111.941406 275.527344 112.964844 275.527344 114.226562 C 275.527344 115.492188 276.550781 116.515625 277.816406 116.515625 C 279.078125 116.515625 280.105469 115.492188 280.105469 114.226562 C 280.105469 112.964844 279.078125 111.941406 277.816406 111.941406 Z M 277.816406 111.941406 "/><path style=" stroke:none;fill-rule:nonzero;fill:#f9fbfc;fill-opacity:1;" d="M 270.164062 119.589844 C 268.898438 119.589844 267.875 120.613281 267.875 121.878906 C 267.875 123.140625 268.898438 124.164062 270.164062 124.164062 C 271.425781 124.164062 272.449219 123.140625 272.449219 121.878906 C 272.449219 120.613281 271.425781 119.589844 270.164062 119.589844 Z M 270.164062 119.589844 "/><path style=" stroke:none;fill-rule:nonzero;fill:#f9fbfc;fill-opacity:1;" d="M 277.816406 126.683594 C 276.550781 126.683594 275.527344 127.707031 275.527344 128.972656 C 275.527344 130.234375 276.550781 131.257812 277.816406 131.257812 C 279.078125 131.257812 280.105469 130.234375 280.105469 128.972656 C 280.105469 127.707031 279.078125 126.683594 277.816406 126.683594 Z M 277.816406 126.683594 "/><path style=" stroke:none;fill-rule:nonzero;fill:#f9fbfc;fill-opacity:1;" d="M 270.164062 134.332031 C 268.898438 134.332031 267.875 135.355469 267.875 136.621094 C 267.875 137.882812 268.898438 138.90625 270.164062 138.90625 C 271.425781 138.90625 272.449219 137.882812 272.449219 136.621094 C 272.449219 135.355469 271.425781 134.332031 270.164062 134.332031 Z M 270.164062 134.332031 "/><path style=" stroke:none;fill-rule:nonzero;fill:#f9fbfc;fill-opacity:1;" d="M 277.816406 141.425781 C 276.550781 141.425781 275.527344 142.449219 275.527344 143.714844 C 275.527344 144.976562 276.550781 146 277.816406 146 C 279.078125 146 280.105469 144.976562 280.105469 143.714844 C 280.105469 142.449219 279.078125 141.425781 277.816406 141.425781 Z M 277.816406 141.425781 "/><path style=" stroke:none;fill-rule:nonzero;fill:#f9fbfc;fill-opacity:1;" d="M 270.164062 149.078125 C 268.898438 149.078125 267.875 150.101562 267.875 151.363281 C 267.875 152.625 268.898438 153.648438 270.164062 153.648438 C 271.425781 153.648438 272.449219 152.625 272.449219 151.363281 C 272.449219 150.101562 271.425781 149.078125 270.164062 149.078125 Z M 270.164062 149.078125 "/><path style=" stroke:none;fill-rule:nonzero;fill:#f9fbfc;fill-opacity:1;" d="M 277.816406 156.167969 C 276.550781 156.167969 275.527344 157.195312 275.527344 158.457031 C 275.527344 159.71875 276.550781 160.742188 277.816406 160.742188 C 279.078125 160.742188 280.105469 159.71875 280.105469 158.457031 C 280.105469 157.195312 279.078125 156.167969 277.816406 156.167969 Z M 277.816406 156.167969 "/><path style=" stroke:none;fill-rule:nonzero;fill:#f9fbfc;fill-opacity:1;" d="M 270.164062 163.820312 C 268.898438 163.820312 267.875 164.84375 267.875 166.105469 C 267.875 167.371094 268.898438 168.390625 270.164062 168.390625 C 271.425781 168.390625 272.449219 167.367188 272.449219 166.105469 C 272.449219 164.84375 271.425781 163.820312 270.164062 163.820312 Z M 270.164062 163.820312 "/><path style=" stroke:none;fill-rule:nonzero;fill:#f9fbfc;fill-opacity:1;" d="M 277.816406 170.914062 C 276.550781 170.914062 275.527344 171.9375 275.527344 173.199219 C 275.527344 174.460938 276.550781 175.484375 277.816406 175.484375 C 279.078125 175.484375 280.105469 174.460938 280.105469 173.199219 C 280.105469 171.9375 279.078125 170.914062 277.816406 170.914062 Z M 277.816406 170.914062 "/><path style=" stroke:none;fill-rule:nonzero;fill:#f9fbfc;fill-opacity:1;" d="M 270.164062 178.5625 C 268.898438 178.5625 267.875 179.585938 267.875 180.847656 C 267.875 182.109375 268.898438 183.132812 270.164062 183.132812 C 271.425781 183.132812 272.449219 182.109375 272.449219 180.847656 C 272.449219 179.585938 271.425781 178.5625 270.164062 178.5625 Z M 270.164062 178.5625 "/><path style=" stroke:none;fill-rule:nonzero;fill:#f9fbfc;fill-opacity:1;" d="M 277.816406 185.65625 C 276.550781 185.65625 275.527344 186.679688 275.527344 187.941406 C 275.527344 189.207031 276.550781 190.230469 277.816406 190.230469 C 279.078125 190.230469 280.105469 189.207031 280.105469 187.941406 C 280.105469 186.679688 279.078125 185.65625 277.816406 185.65625 Z M 277.816406 185.65625 "/><path style=" stroke:none;fill-rule:nonzero;fill:#f9fbfc;fill-opacity:1;" d="M 270.164062 193.304688 C 268.898438 193.304688 267.875 194.328125 267.875 195.589844 C 267.875 196.855469 268.898438 197.878906 270.164062 197.878906 C 271.425781 197.878906 272.449219 196.855469 272.449219 195.589844 C 272.449219 194.328125 271.425781 193.304688 270.164062 193.304688 Z M 270.164062 193.304688 "/><path style=" stroke:none;fill-rule:nonzero;fill:#f9fbfc;fill-opacity:1;" d="M 277.816406 200.398438 C 276.550781 200.398438 275.527344 201.421875 275.527344 202.683594 C 275.527344 203.949219 276.550781 204.972656 277.816406 204.972656 C 279.078125 204.972656 280.105469 203.949219 280.105469 202.683594 C 280.105469 201.421875 279.078125 200.398438 277.816406 200.398438 Z M 277.816406 200.398438 "/><path style=" stroke:none;fill-rule:nonzero;fill:#f9fbfc;fill-opacity:1;" d="M 270.164062 208.046875 C 268.898438 208.046875 267.875 209.070312 267.875 210.332031 C 267.875 211.597656 268.898438 212.621094 270.164062 212.621094 C 271.425781 212.621094 272.449219 211.597656 272.449219 210.332031 C 272.449219 209.070312 271.425781 208.046875 270.164062 208.046875 Z M 270.164062 208.046875 "/><path style=" stroke:none;fill-rule:nonzero;fill:#f9fbfc;fill-opacity:1;" d="M 277.816406 215.140625 C 276.550781 215.140625 275.527344 216.164062 275.527344 217.429688 C 275.527344 218.691406 276.550781 219.714844 277.816406 219.714844 C 279.078125 219.714844 280.105469 218.691406 280.105469 217.429688 C 280.105469 216.164062 279.078125 215.140625 277.816406 215.140625 Z M 277.816406 215.140625 "/><path style=" stroke:none;fill-rule:nonzero;fill:#f9fbfc;fill-opacity:1;" d="M 270.164062 222.789062 C 268.898438 222.789062 267.875 223.8125 267.875 225.078125 C 267.875 226.339844 268.898438 227.363281 270.164062 227.363281 C 271.425781 227.363281 272.449219 226.339844 272.449219 225.078125 C 272.449219 223.8125 271.425781 222.789062 270.164062 222.789062 Z M 270.164062 222.789062 "/><path style=" stroke:none;fill-rule:nonzero;fill:#f9fbfc;fill-opacity:1;" d="M 277.816406 229.882812 C 276.550781 229.882812 275.527344 230.90625 275.527344 232.171875 C 275.527344 233.433594 276.550781 234.457031 277.816406 234.457031 C 279.078125 234.457031 280.105469 233.433594 280.105469 232.171875 C 280.105469 230.90625 279.078125 229.882812 277.816406 229.882812 Z M 277.816406 229.882812 "/><path style=" stroke:none;fill-rule:nonzero;fill:#f9fbfc;fill-opacity:1;" d="M 270.164062 237.53125 C 268.898438 237.53125 267.875 238.558594 267.875 239.820312 C 267.875 241.082031 268.898438 242.105469 270.164062 242.105469 C 271.425781 242.105469 272.449219 241.082031 272.449219 239.820312 C 272.449219 238.558594 271.425781 237.53125 270.164062 237.53125 Z M 270.164062 237.53125 "/><path style=" stroke:none;fill-rule:nonzero;fill:#f9fbfc;fill-opacity:1;" d="M 277.816406 244.625 C 276.550781 244.625 275.527344 245.652344 275.527344 246.914062 C 275.527344 248.175781 276.550781 249.199219 277.816406 249.199219 C 279.078125 249.199219 280.105469 248.175781 280.105469 246.914062 C 280.105469 245.652344 279.078125 244.625 277.816406 244.625 Z M 277.816406 244.625 "/><path style=" stroke:none;fill-rule:nonzero;fill:#f9fbfc;fill-opacity:1;" d="M 270.164062 252.277344 C 268.898438 252.277344 267.875 253.300781 267.875 254.5625 C 267.875 255.824219 268.898438 256.851562 270.164062 256.851562 C 271.425781 256.851562 272.449219 255.824219 272.449219 254.5625 C 272.449219 253.300781 271.425781 252.277344 270.164062 252.277344 Z M 270.164062 252.277344 "/><path style=" stroke:none;fill-rule:nonzero;fill:#f9fbfc;fill-opacity:1;" d="M 277.816406 259.371094 C 276.550781 259.371094 275.527344 260.394531 275.527344 261.65625 C 275.527344 262.917969 276.550781 263.941406 277.816406 263.941406 C 279.078125 263.941406 280.105469 262.917969 280.105469 261.65625 C 280.105469 260.394531 279.078125 259.371094 277.816406 259.371094 Z M 277.816406 259.371094 "/><path style=" stroke:none;fill-rule:nonzero;fill:#f9fbfc;fill-opacity:1;" d="M 270.164062 267.019531 C 268.898438 267.019531 267.875 268.042969 267.875 269.304688 C 267.875 270.566406 268.898438 271.589844 270.164062 271.589844 C 271.425781 271.589844 272.449219 270.566406 272.449219 269.304688 C 272.449219 268.042969 271.425781 267.019531 270.164062 267.019531 Z M 270.164062 267.019531 "/><path style=" stroke:none;fill-rule:nonzero;fill:#f9fbfc;fill-opacity:1;" d="M 277.816406 274.113281 C 276.550781 274.113281 275.527344 275.136719 275.527344 276.398438 C 275.527344 277.660156 276.550781 278.6875 277.816406 278.6875 C 279.078125 278.6875 280.105469 277.660156 280.105469 276.398438 C 280.105469 275.136719 279.078125 274.113281 277.816406 274.113281 Z M 277.816406 274.113281 "/><path style=" stroke:none;fill-rule:nonzero;fill:#f9fbfc;fill-opacity:1;" d="M 270.164062 281.761719 C 268.898438 281.761719 267.875 282.785156 267.875 284.046875 C 267.875 285.308594 268.898438 286.335938 270.164062 286.335938 C 271.425781 286.335938 272.449219 285.308594 272.449219 284.046875 C 272.449219 282.785156 271.425781 281.761719 270.164062 281.761719 Z M 270.164062 281.761719 "/><path style=" stroke:none;fill-rule:nonzero;fill:#f9fbfc;fill-opacity:1;" d="M 277.816406 288.855469 C 276.550781 288.855469 275.527344 289.878906 275.527344 291.140625 C 275.527344 292.40625 276.550781 293.429688 277.816406 293.429688 C 279.078125 293.429688 280.105469 292.40625 280.105469 291.140625 C 280.105469 289.878906 279.078125 288.855469 277.816406 288.855469 Z M 277.816406 288.855469 "/><path style=" stroke:none;fill-rule:nonzero;fill:#f9fbfc;fill-opacity:1;" d="M 270.164062 296.503906 C 268.898438 296.503906 267.875 297.527344 267.875 298.789062 C 267.875 300.054688 268.898438 301.078125 270.164062 301.078125 C 271.425781 301.078125 272.449219 300.054688 272.449219 298.789062 C 272.449219 297.527344 271.425781 296.503906 270.164062 296.503906 Z M 270.164062 296.503906 "/><path style=" stroke:none;fill-rule:nonzero;fill:#f9fbfc;fill-opacity:1;" d="M 277.816406 303.597656 C 276.550781 303.597656 275.527344 304.621094 275.527344 305.886719 C 275.527344 307.148438 276.550781 308.171875 277.816406 308.171875 C 279.078125 308.171875 280.105469 307.148438 280.105469 305.886719 C 280.105469 304.621094 279.078125 303.597656 277.816406 303.597656 Z M 277.816406 303.597656 "/><path style=" stroke:none;fill-rule:nonzero;fill:#f9fbfc;fill-opacity:1;" d="M 270.164062 311.246094 C 268.898438 311.246094 267.875 312.269531 267.875 313.535156 C 267.875 314.796875 268.898438 315.820312 270.164062 315.820312 C 271.425781 315.820312 272.449219 314.796875 272.449219 313.535156 C 272.449219 312.269531 271.425781 311.246094 270.164062 311.246094 Z M 270.164062 311.246094 "/><path style=" stroke:none;fill-rule:nonzero;fill:#f9fbfc;fill-opacity:1;" d="M 277.816406 318.339844 C 276.550781 318.339844 275.527344 319.363281 275.527344 320.628906 C 275.527344 321.890625 276.550781 322.914062 277.816406 322.914062 C 279.078125 322.914062 280.105469 321.890625 280.105469 320.628906 C 280.105469 319.367188 279.078125 318.339844 277.816406 318.339844 Z M 277.816406 318.339844 "/><path style=" stroke:none;fill-rule:nonzero;fill:#f9fbfc;fill-opacity:1;" d="M 270.164062 325.988281 C 268.898438 325.988281 267.875 327.015625 267.875 328.277344 C 267.875 329.539062 268.898438 330.5625 270.164062 330.5625 C 271.425781 330.5625 272.449219 329.539062 272.449219 328.277344 C 272.449219 327.015625 271.425781 325.988281 270.164062 325.988281 Z M 270.164062 325.988281 "/><path style=" stroke:none;fill-rule:nonzero;fill:#f9fbfc;fill-opacity:1;" d="M 277.816406 333.082031 C 276.550781 333.082031 275.527344 334.105469 275.527344 335.371094 C 275.527344 336.632812 276.550781 337.65625 277.816406 337.65625 C 279.078125 337.65625 280.105469 336.632812 280.105469 335.371094 C 280.105469 334.105469 279.078125 333.082031 277.816406 333.082031 Z M 277.816406 333.082031 "/><path style=" stroke:none;fill-rule:nonzero;fill:#f9fbfc;fill-opacity:1;" d="M 270.164062 340.734375 C 268.898438 340.734375 267.875 341.757812 267.875 343.019531 C 267.875 344.28125 268.898438 345.304688 270.164062 345.304688 C 271.425781 345.304688 272.449219 344.28125 272.449219 343.019531 C 272.449219 341.757812 271.425781 340.734375 270.164062 340.734375 Z M 270.164062 340.734375 "/><path style=" stroke:none;fill-rule:nonzero;fill:#f9fbfc;fill-opacity:1;" d="M 277.816406 347.828125 C 276.550781 347.828125 275.527344 348.851562 275.527344 350.113281 C 275.527344 351.375 276.550781 352.398438 277.816406 352.398438 C 279.078125 352.398438 280.105469 351.375 280.105469 350.113281 C 280.105469 348.851562 279.078125 347.828125 277.816406 347.828125 Z M 277.816406 347.828125 "/><path style=" stroke:none;fill-rule:nonzero;fill:#f9fbfc;fill-opacity:1;" d="M 270.164062 355.476562 C 268.898438 355.476562 267.875 356.5 267.875 357.761719 C 267.875 359.023438 268.898438 360.050781 270.164062 360.050781 C 271.425781 360.050781 272.449219 359.023438 272.449219 357.761719 C 272.449219 356.5 271.425781 355.476562 270.164062 355.476562 Z M 270.164062 355.476562 "/><path style=" stroke:none;fill-rule:nonzero;fill:#f9fbfc;fill-opacity:1;" d="M 277.816406 362.570312 C 276.550781 362.570312 275.527344 363.59375 275.527344 364.855469 C 275.527344 366.117188 276.550781 367.140625 277.816406 367.140625 C 279.078125 367.140625 280.105469 366.117188 280.105469 364.855469 C 280.105469 363.59375 279.078125 362.570312 277.816406 362.570312 Z M 277.816406 362.570312 "/><path style=" stroke:none;fill-rule:nonzero;fill:#f9fbfc;fill-opacity:1;" d="M 263.066406 333.082031 C 261.800781 333.082031 260.777344 334.105469 260.777344 335.371094 C 260.777344 336.632812 261.800781 337.65625 263.066406 337.65625 C 264.328125 337.65625 265.355469 336.632812 265.355469 335.371094 C 265.355469 334.105469 264.328125 333.082031 263.066406 333.082031 Z M 263.066406 333.082031 "/><path style=" stroke:none;fill-rule:nonzero;fill:#f9fbfc;fill-opacity:1;" d="M 255.414062 340.734375 C 254.148438 340.734375 253.125 341.757812 253.125 343.019531 C 253.125 344.28125 254.148438 345.304688 255.414062 345.304688 C 256.675781 345.304688 257.699219 344.28125 257.699219 343.019531 C 257.699219 341.757812 256.675781 340.734375 255.414062 340.734375 Z M 255.414062 340.734375 "/><path style=" stroke:none;fill-rule:nonzero;fill:#f9fbfc;fill-opacity:1;" d="M 263.066406 347.828125 C 261.800781 347.828125 260.777344 348.851562 260.777344 350.113281 C 260.777344 351.375 261.800781 352.398438 263.066406 352.398438 C 264.328125 352.398438 265.355469 351.375 265.355469 350.113281 C 265.355469 348.851562 264.328125 347.828125 263.066406 347.828125 Z M 263.066406 347.828125 "/><path style=" stroke:none;fill-rule:nonzero;fill:#f9fbfc;fill-opacity:1;" d="M 255.414062 355.476562 C 254.148438 355.476562 253.125 356.5 253.125 357.761719 C 253.125 359.023438 254.148438 360.050781 255.414062 360.050781 C 256.675781 360.050781 257.699219 359.023438 257.699219 357.761719 C 257.699219 356.5 256.675781 355.476562 255.414062 355.476562 Z M 255.414062 355.476562 "/><path style=" stroke:none;fill-rule:nonzero;fill:#f9fbfc;fill-opacity:1;" d="M 263.066406 367.144531 C 264.328125 367.144531 265.355469 366.121094 265.355469 364.855469 C 265.355469 363.59375 264.328125 362.570312 263.066406 362.570312 C 261.800781 362.570312 260.777344 363.59375 260.777344 364.855469 C 260.777344 366.121094 261.800781 367.144531 263.066406 367.144531 Z M 263.066406 367.144531 "/><path style=" stroke:none;fill-rule:nonzero;fill:#f9fbfc;fill-opacity:1;" d="M 240.660156 340.734375 C 239.398438 340.734375 238.375 341.757812 238.375 343.019531 C 238.375 344.28125 239.398438 345.304688 240.660156 345.304688 C 241.925781 345.304688 242.949219 344.28125 242.949219 343.019531 C 242.949219 341.757812 241.925781 340.734375 240.660156 340.734375 Z M 240.660156 340.734375 "/><path style=" stroke:none;fill-rule:nonzero;fill:#f9fbfc;fill-opacity:1;" d="M 248.316406 347.828125 C 247.050781 347.828125 246.027344 348.851562 246.027344 350.113281 C 246.027344 351.375 247.050781 352.398438 248.316406 352.398438 C 249.578125 352.398438 250.601562 351.375 250.601562 350.113281 C 250.601562 348.851562 249.578125 347.828125 248.316406 347.828125 Z M 248.316406 347.828125 "/><path style=" stroke:none;fill-rule:nonzero;fill:#f9fbfc;fill-opacity:1;" d="M 240.660156 355.476562 C 239.398438 355.476562 238.375 356.5 238.375 357.761719 C 238.375 359.023438 239.398438 360.050781 240.660156 360.050781 C 241.925781 360.050781 242.949219 359.023438 242.949219 357.761719 C 242.949219 356.5 241.925781 355.476562 240.660156 355.476562 Z M 240.660156 355.476562 "/><path style=" stroke:none;fill-rule:nonzero;fill:#f9fbfc;fill-opacity:1;" d="M 248.316406 362.570312 C 247.050781 362.570312 246.027344 363.59375 246.027344 364.855469 C 246.027344 366.117188 247.050781 367.140625 248.316406 367.140625 C 249.578125 367.140625 250.601562 366.117188 250.601562 364.855469 C 250.601562 363.59375 249.578125 362.570312 248.316406 362.570312 Z M 248.316406 362.570312 "/><path style=" stroke:none;fill-rule:nonzero;fill:#f9fbfc;fill-opacity:1;" d="M 225.910156 340.734375 C 224.648438 340.734375 223.625 341.757812 223.625 343.019531 C 223.625 344.28125 224.648438 345.304688 225.910156 345.304688 C 227.175781 345.304688 228.199219 344.28125 228.199219 343.019531 C 228.199219 341.757812 227.175781 340.734375 225.910156 340.734375 Z M 225.910156 340.734375 "/><path style=" stroke:none;fill-rule:nonzero;fill:#f9fbfc;fill-opacity:1;" d="M 233.5625 347.828125 C 232.300781 347.828125 231.277344 348.851562 231.277344 350.113281 C 231.277344 351.375 232.300781 352.398438 233.5625 352.398438 C 234.828125 352.398438 235.851562 351.375 235.851562 350.113281 C 235.851562 348.851562 234.828125 347.828125 233.5625 347.828125 Z M 233.5625 347.828125 "/><path style=" stroke:none;fill-rule:nonzero;fill:#f9fbfc;fill-opacity:1;" d="M 225.910156 355.476562 C 224.648438 355.476562 223.625 356.5 223.625 357.761719 C 223.625 359.023438 224.648438 360.050781 225.910156 360.050781 C 227.175781 360.050781 228.199219 359.023438 228.199219 357.761719 C 228.199219 356.5 227.175781 355.476562 225.910156 355.476562 Z M 225.910156 355.476562 "/><path style=" stroke:none;fill-rule:nonzero;fill:#f9fbfc;fill-opacity:1;" d="M 233.5625 362.570312 C 232.300781 362.570312 231.277344 363.59375 231.277344 364.855469 C 231.277344 366.117188 232.300781 367.140625 233.5625 367.140625 C 234.828125 367.140625 235.851562 366.117188 235.851562 364.855469 C 235.851562 363.59375 234.828125 362.570312 233.5625 362.570312 Z M 233.5625 362.570312 "/><path style=" stroke:none;fill-rule:nonzero;fill:#f9fbfc;fill-opacity:1;" d="M 211.160156 340.734375 C 209.898438 340.734375 208.871094 341.757812 208.871094 343.019531 C 208.871094 344.28125 209.898438 345.304688 211.160156 345.304688 C 212.425781 345.304688 213.449219 344.28125 213.449219 343.019531 C 213.449219 341.757812 212.425781 340.734375 211.160156 340.734375 Z M 211.160156 340.734375 "/><path style=" stroke:none;fill-rule:nonzero;fill:#f9fbfc;fill-opacity:1;" d="M 218.8125 347.828125 C 217.550781 347.828125 216.527344 348.851562 216.527344 350.113281 C 216.527344 351.375 217.550781 352.398438 218.8125 352.398438 C 220.078125 352.398438 221.101562 351.375 221.101562 350.113281 C 221.101562 348.851562 220.078125 347.828125 218.8125 347.828125 Z M 218.8125 347.828125 "/><path style=" stroke:none;fill-rule:nonzero;fill:#f9fbfc;fill-opacity:1;" d="M 211.160156 355.476562 C 209.898438 355.476562 208.871094 356.5 208.871094 357.761719 C 208.871094 359.023438 209.898438 360.050781 211.160156 360.050781 C 212.425781 360.050781 213.449219 359.023438 213.449219 357.761719 C 213.449219 356.5 212.425781 355.476562 211.160156 355.476562 Z M 211.160156 355.476562 "/><path style=" stroke:none;fill-rule:nonzero;fill:#f9fbfc;fill-opacity:1;" d="M 218.8125 362.570312 C 217.550781 362.570312 216.527344 363.59375 216.527344 364.855469 C 216.527344 366.117188 217.550781 367.140625 218.8125 367.140625 C 220.078125 367.140625 221.101562 366.117188 221.101562 364.855469 C 221.101562 363.59375 220.078125 362.570312 218.8125 362.570312 Z M 218.8125 362.570312 "/><path style=" stroke:none;fill-rule:nonzero;fill:#f9fbfc;fill-opacity:1;" d="M 196.410156 340.734375 C 195.148438 340.734375 194.121094 341.757812 194.121094 343.019531 C 194.121094 344.28125 195.148438 345.304688 196.410156 345.304688 C 197.671875 345.304688 198.699219 344.28125 198.699219 343.019531 C 198.699219 341.757812 197.671875 340.734375 196.410156 340.734375 Z M 196.410156 340.734375 "/><path style=" stroke:none;fill-rule:nonzero;fill:#f9fbfc;fill-opacity:1;" d="M 204.0625 347.828125 C 202.800781 347.828125 201.773438 348.851562 201.773438 350.113281 C 201.773438 351.375 202.800781 352.398438 204.0625 352.398438 C 205.324219 352.398438 206.351562 351.375 206.351562 350.113281 C 206.351562 348.851562 205.328125 347.828125 204.0625 347.828125 Z M 204.0625 347.828125 "/><path style=" stroke:none;fill-rule:nonzero;fill:#f9fbfc;fill-opacity:1;" d="M 196.410156 355.476562 C 195.148438 355.476562 194.121094 356.5 194.121094 357.761719 C 194.121094 359.023438 195.148438 360.050781 196.410156 360.050781 C 197.671875 360.050781 198.699219 359.023438 198.699219 357.761719 C 198.699219 356.5 197.671875 355.476562 196.410156 355.476562 Z M 196.410156 355.476562 "/><path style=" stroke:none;fill-rule:nonzero;fill:#f9fbfc;fill-opacity:1;" d="M 204.0625 362.570312 C 202.800781 362.570312 201.773438 363.59375 201.773438 364.855469 C 201.773438 366.117188 202.800781 367.140625 204.0625 367.140625 C 205.324219 367.140625 206.351562 366.117188 206.351562 364.855469 C 206.351562 363.59375 205.328125 362.570312 204.0625 362.570312 Z M 204.0625 362.570312 "/><path style=" stroke:none;fill-rule:nonzero;fill:#f9fbfc;fill-opacity:1;" d="M 181.660156 340.734375 C 180.394531 340.734375 179.371094 341.757812 179.371094 343.019531 C 179.371094 344.28125 180.394531 345.304688 181.660156 345.304688 C 182.921875 345.304688 183.945312 344.28125 183.945312 343.019531 C 183.945312 341.757812 182.921875 340.734375 181.660156 340.734375 Z M 181.660156 340.734375 "/><path style=" stroke:none;fill-rule:nonzero;fill:#f9fbfc;fill-opacity:1;" d="M 189.3125 347.828125 C 188.046875 347.828125 187.023438 348.851562 187.023438 350.113281 C 187.023438 351.375 188.046875 352.398438 189.3125 352.398438 C 190.574219 352.398438 191.601562 351.375 191.601562 350.113281 C 191.601562 348.851562 190.574219 347.828125 189.3125 347.828125 Z M 189.3125 347.828125 "/><path style=" stroke:none;fill-rule:nonzero;fill:#f9fbfc;fill-opacity:1;" d="M 181.660156 355.476562 C 180.394531 355.476562 179.371094 356.5 179.371094 357.761719 C 179.371094 359.023438 180.394531 360.050781 181.660156 360.050781 C 182.921875 360.050781 183.945312 359.023438 183.945312 357.761719 C 183.945312 356.5 182.921875 355.476562 181.660156 355.476562 Z M 181.660156 355.476562 "/><path style=" stroke:none;fill-rule:nonzero;fill:#f9fbfc;fill-opacity:1;" d="M 189.3125 362.570312 C 188.046875 362.570312 187.023438 363.59375 187.023438 364.855469 C 187.023438 366.117188 188.046875 367.140625 189.3125 367.140625 C 190.574219 367.140625 191.601562 366.117188 191.601562 364.855469 C 191.601562 363.59375 190.574219 362.570312 189.3125 362.570312 Z M 189.3125 362.570312 "/><path style=" stroke:none;fill-rule:nonzero;fill:#f9fbfc;fill-opacity:1;" d="M 166.910156 340.734375 C 165.644531 340.734375 164.621094 341.757812 164.621094 343.019531 C 164.621094 344.28125 165.644531 345.304688 166.910156 345.304688 C 168.171875 345.304688 169.195312 344.28125 169.195312 343.019531 C 169.195312 341.757812 168.171875 340.734375 166.910156 340.734375 Z M 166.910156 340.734375 "/><path style=" stroke:none;fill-rule:nonzero;fill:#f9fbfc;fill-opacity:1;" d="M 174.5625 347.828125 C 173.296875 347.828125 172.273438 348.851562 172.273438 350.113281 C 172.273438 351.375 173.296875 352.398438 174.5625 352.398438 C 175.824219 352.398438 176.851562 351.375 176.851562 350.113281 C 176.851562 348.851562 175.824219 347.828125 174.5625 347.828125 Z M 174.5625 347.828125 "/><path style=" stroke:none;fill-rule:nonzero;fill:#f9fbfc;fill-opacity:1;" d="M 166.910156 355.476562 C 165.644531 355.476562 164.621094 356.5 164.621094 357.761719 C 164.621094 359.023438 165.644531 360.050781 166.910156 360.050781 C 168.171875 360.050781 169.195312 359.023438 169.195312 357.761719 C 169.195312 356.5 168.171875 355.476562 166.910156 355.476562 Z M 166.910156 355.476562 "/><path style=" stroke:none;fill-rule:nonzero;fill:#f9fbfc;fill-opacity:1;" d="M 174.5625 362.570312 C 173.296875 362.570312 172.273438 363.59375 172.273438 364.855469 C 172.273438 366.117188 173.296875 367.140625 174.5625 367.140625 C 175.824219 367.140625 176.851562 366.117188 176.851562 364.855469 C 176.851562 363.59375 175.824219 362.570312 174.5625 362.570312 Z M 174.5625 362.570312 "/><path style=" stroke:none;fill-rule:nonzero;fill:#f9fbfc;fill-opacity:1;" d="M 152.15625 340.734375 C 150.894531 340.734375 149.871094 341.757812 149.871094 343.019531 C 149.871094 344.28125 150.894531 345.304688 152.15625 345.304688 C 153.421875 345.304688 154.445312 344.28125 154.445312 343.019531 C 154.445312 341.757812 153.421875 340.734375 152.15625 340.734375 Z M 152.15625 340.734375 "/><path style=" stroke:none;fill-rule:nonzero;fill:#f9fbfc;fill-opacity:1;" d="M 159.8125 347.828125 C 158.546875 347.828125 157.523438 348.851562 157.523438 350.113281 C 157.523438 351.375 158.546875 352.398438 159.8125 352.398438 C 161.074219 352.398438 162.097656 351.375 162.097656 350.113281 C 162.097656 348.851562 161.074219 347.828125 159.8125 347.828125 Z M 159.8125 347.828125 "/><path style=" stroke:none;fill-rule:nonzero;fill:#f9fbfc;fill-opacity:1;" d="M 152.15625 355.476562 C 150.894531 355.476562 149.871094 356.5 149.871094 357.761719 C 149.871094 359.023438 150.894531 360.050781 152.15625 360.050781 C 153.421875 360.050781 154.445312 359.023438 154.445312 357.761719 C 154.445312 356.5 153.421875 355.476562 152.15625 355.476562 Z M 152.15625 355.476562 "/><path style=" stroke:none;fill-rule:nonzero;fill:#f9fbfc;fill-opacity:1;" d="M 159.8125 362.570312 C 158.546875 362.570312 157.523438 363.59375 157.523438 364.855469 C 157.523438 366.117188 158.546875 367.140625 159.8125 367.140625 C 161.074219 367.140625 162.097656 366.117188 162.097656 364.855469 C 162.097656 363.59375 161.074219 362.570312 159.8125 362.570312 Z M 159.8125 362.570312 "/><path style=" stroke:none;fill-rule:nonzero;fill:#f9fbfc;fill-opacity:1;" d="M 137.40625 340.734375 C 136.144531 340.734375 135.121094 341.757812 135.121094 343.019531 C 135.121094 344.28125 136.144531 345.304688 137.40625 345.304688 C 138.671875 345.304688 139.695312 344.28125 139.695312 343.019531 C 139.695312 341.757812 138.671875 340.734375 137.40625 340.734375 Z M 137.40625 340.734375 "/><path style=" stroke:none;fill-rule:nonzero;fill:#f9fbfc;fill-opacity:1;" d="M 145.058594 347.828125 C 143.796875 347.828125 142.773438 348.851562 142.773438 350.113281 C 142.773438 351.375 143.796875 352.398438 145.058594 352.398438 C 146.324219 352.398438 147.347656 351.375 147.347656 350.113281 C 147.347656 348.851562 146.324219 347.828125 145.058594 347.828125 Z M 145.058594 347.828125 "/><path style=" stroke:none;fill-rule:nonzero;fill:#f9fbfc;fill-opacity:1;" d="M 137.40625 355.476562 C 136.144531 355.476562 135.121094 356.5 135.121094 357.761719 C 135.121094 359.023438 136.144531 360.050781 137.40625 360.050781 C 138.671875 360.050781 139.695312 359.023438 139.695312 357.761719 C 139.695312 356.5 138.671875 355.476562 137.40625 355.476562 Z M 137.40625 355.476562 "/><path style=" stroke:none;fill-rule:nonzero;fill:#f9fbfc;fill-opacity:1;" d="M 145.058594 362.570312 C 143.796875 362.570312 142.773438 363.59375 142.773438 364.855469 C 142.773438 366.117188 143.796875 367.140625 145.058594 367.140625 C 146.324219 367.140625 147.347656 366.117188 147.347656 364.855469 C 147.347656 363.59375 146.324219 362.570312 145.058594 362.570312 Z M 145.058594 362.570312 "/><path style=" stroke:none;fill-rule:nonzero;fill:#f9fbfc;fill-opacity:1;" d="M 122.65625 340.734375 C 121.394531 340.734375 120.367188 341.757812 120.367188 343.019531 C 120.367188 344.28125 121.394531 345.304688 122.65625 345.304688 C 123.921875 345.304688 124.945312 344.28125 124.945312 343.019531 C 124.945312 341.757812 123.921875 340.734375 122.65625 340.734375 Z M 122.65625 340.734375 "/><path style=" stroke:none;fill-rule:nonzero;fill:#f9fbfc;fill-opacity:1;" d="M 130.308594 347.828125 C 129.046875 347.828125 128.023438 348.851562 128.023438 350.113281 C 128.023438 351.375 129.046875 352.398438 130.308594 352.398438 C 131.574219 352.398438 132.597656 351.375 132.597656 350.113281 C 132.597656 348.851562 131.574219 347.828125 130.308594 347.828125 Z M 130.308594 347.828125 "/><path style=" stroke:none;fill-rule:nonzero;fill:#f9fbfc;fill-opacity:1;" d="M 122.65625 355.476562 C 121.394531 355.476562 120.367188 356.5 120.367188 357.761719 C 120.367188 359.023438 121.394531 360.050781 122.65625 360.050781 C 123.921875 360.050781 124.945312 359.023438 124.945312 357.761719 C 124.945312 356.5 123.921875 355.476562 122.65625 355.476562 Z M 122.65625 355.476562 "/><path style=" stroke:none;fill-rule:nonzero;fill:#f9fbfc;fill-opacity:1;" d="M 130.308594 362.570312 C 129.046875 362.570312 128.023438 363.59375 128.023438 364.855469 C 128.023438 366.117188 129.046875 367.140625 130.308594 367.140625 C 131.574219 367.140625 132.597656 366.117188 132.597656 364.855469 C 132.597656 363.59375 131.574219 362.570312 130.308594 362.570312 Z M 130.308594 362.570312 "/><path style=" stroke:none;fill-rule:nonzero;fill:#f9fbfc;fill-opacity:1;" d="M 107.90625 340.734375 C 106.640625 340.734375 105.617188 341.757812 105.617188 343.019531 C 105.617188 344.28125 106.640625 345.304688 107.90625 345.304688 C 109.167969 345.304688 110.195312 344.28125 110.195312 343.019531 C 110.195312 341.757812 109.167969 340.734375 107.90625 340.734375 Z M 107.90625 340.734375 "/><path style=" stroke:none;fill-rule:nonzero;fill:#f9fbfc;fill-opacity:1;" d="M 115.558594 347.828125 C 114.296875 347.828125 113.269531 348.851562 113.269531 350.113281 C 113.269531 351.375 114.296875 352.398438 115.558594 352.398438 C 116.824219 352.398438 117.847656 351.375 117.847656 350.113281 C 117.847656 348.851562 116.824219 347.828125 115.558594 347.828125 Z M 115.558594 347.828125 "/><path style=" stroke:none;fill-rule:nonzero;fill:#f9fbfc;fill-opacity:1;" d="M 107.90625 355.476562 C 106.640625 355.476562 105.617188 356.5 105.617188 357.761719 C 105.617188 359.023438 106.640625 360.050781 107.90625 360.050781 C 109.167969 360.050781 110.195312 359.023438 110.195312 357.761719 C 110.195312 356.5 109.167969 355.476562 107.90625 355.476562 Z M 107.90625 355.476562 "/><path style=" stroke:none;fill-rule:nonzero;fill:#f9fbfc;fill-opacity:1;" d="M 115.558594 362.570312 C 114.296875 362.570312 113.269531 363.59375 113.269531 364.855469 C 113.269531 366.117188 114.296875 367.140625 115.558594 367.140625 C 116.824219 367.140625 117.847656 366.117188 117.847656 364.855469 C 117.847656 363.59375 116.824219 362.570312 115.558594 362.570312 Z M 115.558594 362.570312 "/><path style=" stroke:none;fill-rule:nonzero;fill:#f9fbfc;fill-opacity:1;" d="M 93.15625 340.734375 C 91.890625 340.734375 90.867188 341.757812 90.867188 343.019531 C 90.867188 344.28125 91.890625 345.304688 93.15625 345.304688 C 94.417969 345.304688 95.441406 344.28125 95.441406 343.019531 C 95.441406 341.757812 94.417969 340.734375 93.15625 340.734375 Z M 93.15625 340.734375 "/><path style=" stroke:none;fill-rule:nonzero;fill:#f9fbfc;fill-opacity:1;" d="M 100.808594 347.828125 C 99.542969 347.828125 98.519531 348.851562 98.519531 350.113281 C 98.519531 351.375 99.542969 352.398438 100.808594 352.398438 C 102.070312 352.398438 103.097656 351.375 103.097656 350.113281 C 103.097656 348.851562 102.070312 347.828125 100.808594 347.828125 Z M 100.808594 347.828125 "/><path style=" stroke:none;fill-rule:nonzero;fill:#f9fbfc;fill-opacity:1;" d="M 93.15625 355.476562 C 91.890625 355.476562 90.867188 356.5 90.867188 357.761719 C 90.867188 359.023438 91.890625 360.050781 93.15625 360.050781 C 94.417969 360.050781 95.441406 359.023438 95.441406 357.761719 C 95.441406 356.5 94.417969 355.476562 93.15625 355.476562 Z M 93.15625 355.476562 "/><path style=" stroke:none;fill-rule:nonzero;fill:#f9fbfc;fill-opacity:1;" d="M 100.808594 362.570312 C 99.542969 362.570312 98.519531 363.59375 98.519531 364.855469 C 98.519531 366.117188 99.542969 367.140625 100.808594 367.140625 C 102.070312 367.140625 103.097656 366.117188 103.097656 364.855469 C 103.097656 363.59375 102.070312 362.570312 100.808594 362.570312 Z M 100.808594 362.570312 "/><path style=" stroke:none;fill-rule:nonzero;fill:#f9fbfc;fill-opacity:1;" d="M 78.40625 340.734375 C 77.140625 340.734375 76.117188 341.757812 76.117188 343.019531 C 76.117188 344.28125 77.140625 345.304688 78.40625 345.304688 C 79.667969 345.304688 80.691406 344.28125 80.691406 343.019531 C 80.691406 341.757812 79.667969 340.734375 78.40625 340.734375 Z M 78.40625 340.734375 "/><path style=" stroke:none;fill-rule:nonzero;fill:#f9fbfc;fill-opacity:1;" d="M 86.058594 347.828125 C 84.792969 347.828125 83.769531 348.851562 83.769531 350.113281 C 83.769531 351.375 84.792969 352.398438 86.058594 352.398438 C 87.320312 352.398438 88.34375 351.375 88.34375 350.113281 C 88.34375 348.851562 87.320312 347.828125 86.058594 347.828125 Z M 86.058594 347.828125 "/><path style=" stroke:none;fill-rule:nonzero;fill:#f9fbfc;fill-opacity:1;" d="M 78.40625 355.476562 C 77.140625 355.476562 76.117188 356.5 76.117188 357.761719 C 76.117188 359.023438 77.140625 360.050781 78.40625 360.050781 C 79.667969 360.050781 80.691406 359.023438 80.691406 357.761719 C 80.691406 356.5 79.667969 355.476562 78.40625 355.476562 Z M 78.40625 355.476562 "/><path style=" stroke:none;fill-rule:nonzero;fill:#f9fbfc;fill-opacity:1;" d="M 86.058594 362.570312 C 84.792969 362.570312 83.769531 363.59375 83.769531 364.855469 C 83.769531 366.117188 84.792969 367.140625 86.058594 367.140625 C 87.320312 367.140625 88.34375 366.117188 88.34375 364.855469 C 88.34375 363.59375 87.320312 362.570312 86.058594 362.570312 Z M 86.058594 362.570312 "/><path style=" stroke:none;fill-rule:nonzero;fill:#f9fbfc;fill-opacity:1;" d="M 63.652344 340.734375 C 62.390625 340.734375 61.367188 341.757812 61.367188 343.019531 C 61.367188 344.28125 62.390625 345.304688 63.652344 345.304688 C 64.917969 345.304688 65.941406 344.28125 65.941406 343.019531 C 65.941406 341.757812 64.917969 340.734375 63.652344 340.734375 Z M 63.652344 340.734375 "/><path style=" stroke:none;fill-rule:nonzero;fill:#f9fbfc;fill-opacity:1;" d="M 71.308594 347.828125 C 70.042969 347.828125 69.019531 348.851562 69.019531 350.113281 C 69.019531 351.375 70.042969 352.398438 71.308594 352.398438 C 72.570312 352.398438 73.59375 351.375 73.59375 350.113281 C 73.59375 348.851562 72.570312 347.828125 71.308594 347.828125 Z M 71.308594 347.828125 "/><path style=" stroke:none;fill-rule:nonzero;fill:#f9fbfc;fill-opacity:1;" d="M 63.652344 355.476562 C 62.390625 355.476562 61.367188 356.5 61.367188 357.761719 C 61.367188 359.023438 62.390625 360.050781 63.652344 360.050781 C 64.917969 360.050781 65.941406 359.023438 65.941406 357.761719 C 65.941406 356.5 64.917969 355.476562 63.652344 355.476562 Z M 63.652344 355.476562 "/><path style=" stroke:none;fill-rule:nonzero;fill:#f9fbfc;fill-opacity:1;" d="M 71.308594 362.570312 C 70.042969 362.570312 69.019531 363.59375 69.019531 364.855469 C 69.019531 366.117188 70.042969 367.140625 71.308594 367.140625 C 72.570312 367.140625 73.59375 366.117188 73.59375 364.855469 C 73.59375 363.59375 72.570312 362.570312 71.308594 362.570312 Z M 71.308594 362.570312 "/><path style=" stroke:none;fill-rule:nonzero;fill:#f9fbfc;fill-opacity:1;" d="M 54.269531 335.371094 C 54.269531 336.632812 55.292969 337.65625 56.554688 337.65625 C 57.820312 337.65625 58.84375 336.632812 58.84375 335.371094 C 58.84375 334.398438 58.230469 333.570312 57.371094 333.242188 L 55.738281 333.242188 C 54.878906 333.570312 54.269531 334.398438 54.269531 335.371094 Z M 54.269531 335.371094 "/><path style=" stroke:none;fill-rule:nonzero;fill:#f9fbfc;fill-opacity:1;" d="M 48.902344 340.734375 C 47.640625 340.734375 46.613281 341.757812 46.613281 343.019531 C 46.613281 344.28125 47.640625 345.304688 48.902344 345.304688 C 50.167969 345.304688 51.191406 344.28125 51.191406 343.019531 C 51.191406 341.757812 50.167969 340.734375 48.902344 340.734375 Z M 48.902344 340.734375 "/><path style=" stroke:none;fill-rule:nonzero;fill:#f9fbfc;fill-opacity:1;" d="M 56.554688 347.828125 C 55.292969 347.828125 54.269531 348.851562 54.269531 350.113281 C 54.269531 351.375 55.292969 352.398438 56.554688 352.398438 C 57.820312 352.398438 58.84375 351.375 58.84375 350.113281 C 58.84375 348.851562 57.820312 347.828125 56.554688 347.828125 Z M 56.554688 347.828125 "/><path style=" stroke:none;fill-rule:nonzero;fill:#f9fbfc;fill-opacity:1;" d="M 48.902344 355.476562 C 47.640625 355.476562 46.613281 356.5 46.613281 357.761719 C 46.613281 359.023438 47.640625 360.050781 48.902344 360.050781 C 50.167969 360.050781 51.191406 359.023438 51.191406 357.761719 C 51.191406 356.5 50.167969 355.476562 48.902344 355.476562 Z M 48.902344 355.476562 "/><path style=" stroke:none;fill-rule:nonzero;fill:#f9fbfc;fill-opacity:1;" d="M 56.554688 362.570312 C 55.292969 362.570312 54.269531 363.59375 54.269531 364.855469 C 54.269531 366.117188 55.292969 367.140625 56.554688 367.140625 C 57.820312 367.140625 58.84375 366.117188 58.84375 364.855469 C 58.84375 363.59375 57.820312 362.570312 56.554688 362.570312 Z M 56.554688 362.570312 "/><path style=" stroke:none;fill-rule:nonzero;fill:#f9fbfc;fill-opacity:1;" d="M 39.519531 335.371094 C 39.519531 336.632812 40.542969 337.65625 41.804688 337.65625 C 43.070312 337.65625 44.09375 336.632812 44.09375 335.371094 C 44.09375 334.398438 43.480469 333.570312 42.621094 333.242188 L 40.988281 333.242188 C 40.128906 333.570312 39.519531 334.398438 39.519531 335.371094 Z M 39.519531 335.371094 "/><path style=" stroke:none;fill-rule:nonzero;fill:#f9fbfc;fill-opacity:1;" d="M 34.152344 345.304688 C 35.417969 345.304688 36.441406 344.28125 36.441406 343.019531 C 36.441406 341.757812 35.417969 340.734375 34.152344 340.734375 C 33.152344 340.734375 32.308594 341.378906 32 342.273438 L 32 343.765625 C 32.308594 344.660156 33.152344 345.304688 34.152344 345.304688 Z M 34.152344 345.304688 "/><path style=" stroke:none;fill-rule:nonzero;fill:#f9fbfc;fill-opacity:1;" d="M 41.804688 347.828125 C 40.542969 347.828125 39.519531 348.851562 39.519531 350.113281 C 39.519531 351.375 40.542969 352.398438 41.804688 352.398438 C 43.070312 352.398438 44.09375 351.375 44.09375 350.113281 C 44.09375 348.851562 43.070312 347.828125 41.804688 347.828125 Z M 41.804688 347.828125 "/><path style=" stroke:none;fill-rule:nonzero;fill:#f9fbfc;fill-opacity:1;" d="M 34.152344 360.050781 C 35.417969 360.050781 36.441406 359.023438 36.441406 357.761719 C 36.441406 356.5 35.417969 355.476562 34.152344 355.476562 C 33.152344 355.476562 32.308594 356.121094 32 357.015625 L 32 358.507812 C 32.308594 359.402344 33.152344 360.050781 34.152344 360.050781 Z M 34.152344 360.050781 "/><path style=" stroke:none;fill-rule:nonzero;fill:#f9fbfc;fill-opacity:1;" d="M 41.804688 362.570312 C 40.542969 362.570312 39.519531 363.59375 39.519531 364.855469 C 39.519531 366.117188 40.542969 367.140625 41.804688 367.140625 C 43.070312 367.140625 44.09375 366.117188 44.09375 364.855469 C 44.09375 363.59375 43.070312 362.570312 41.804688 362.570312 Z M 41.804688 362.570312 "/><path style=" stroke:none;fill-rule:nonzero;fill:#f9fbfc;fill-opacity:1;" d="M 71.308594 333.082031 C 70.042969 333.082031 69.019531 334.105469 69.019531 335.371094 C 69.019531 336.632812 70.042969 337.65625 71.308594 337.65625 C 72.570312 337.65625 73.59375 336.632812 73.59375 335.371094 C 73.59375 334.105469 72.570312 333.082031 71.308594 333.082031 Z M 71.308594 333.082031 "/><path style=" stroke:none;fill-rule:nonzero;fill:#f9fbfc;fill-opacity:1;" d="M 86.058594 333.082031 C 84.792969 333.082031 83.769531 334.105469 83.769531 335.371094 C 83.769531 336.632812 84.792969 337.65625 86.058594 337.65625 C 87.320312 337.65625 88.34375 336.632812 88.34375 335.371094 C 88.34375 334.105469 87.320312 333.082031 86.058594 333.082031 Z M 86.058594 333.082031 "/><path style=" stroke:none;fill-rule:nonzero;fill:#f9fbfc;fill-opacity:1;" d="M 100.808594 333.082031 C 99.542969 333.082031 98.519531 334.105469 98.519531 335.371094 C 98.519531 336.632812 99.542969 337.65625 100.808594 337.65625 C 102.070312 337.65625 103.097656 336.632812 103.097656 335.371094 C 103.097656 334.105469 102.070312 333.082031 100.808594 333.082031 Z M 100.808594 333.082031 "/><path style=" stroke:none;fill-rule:nonzero;fill:#f9fbfc;fill-opacity:1;" d="M 100.808594 333.082031 C 99.542969 333.082031 98.519531 334.105469 98.519531 335.371094 C 98.519531 336.632812 99.542969 337.65625 100.808594 337.65625 C 102.070312 337.65625 103.097656 336.632812 103.097656 335.371094 C 103.097656 334.105469 102.070312 333.082031 100.808594 333.082031 Z M 100.808594 333.082031 "/><path style=" stroke:none;fill-rule:nonzero;fill:#f9fbfc;fill-opacity:1;" d="M 115.558594 333.082031 C 114.296875 333.082031 113.269531 334.105469 113.269531 335.371094 C 113.269531 336.632812 114.296875 337.65625 115.558594 337.65625 C 116.824219 337.65625 117.847656 336.632812 117.847656 335.371094 C 117.847656 334.105469 116.824219 333.082031 115.558594 333.082031 Z M 115.558594 333.082031 "/><path style=" stroke:none;fill-rule:nonzero;fill:#f9fbfc;fill-opacity:1;" d="M 130.308594 333.082031 C 129.046875 333.082031 128.023438 334.105469 128.023438 335.371094 C 128.023438 336.632812 129.046875 337.65625 130.308594 337.65625 C 131.574219 337.65625 132.597656 336.632812 132.597656 335.371094 C 132.597656 334.105469 131.574219 333.082031 130.308594 333.082031 Z M 130.308594 333.082031 "/><path style=" stroke:none;fill-rule:nonzero;fill:#f9fbfc;fill-opacity:1;" d="M 145.058594 333.082031 C 143.796875 333.082031 142.773438 334.105469 142.773438 335.371094 C 142.773438 336.632812 143.796875 337.65625 145.058594 337.65625 C 146.324219 337.65625 147.347656 336.632812 147.347656 335.371094 C 147.347656 334.105469 146.324219 333.082031 145.058594 333.082031 Z M 145.058594 333.082031 "/><path style=" stroke:none;fill-rule:nonzero;fill:#f9fbfc;fill-opacity:1;" d="M 159.8125 333.082031 C 158.546875 333.082031 157.523438 334.105469 157.523438 335.371094 C 157.523438 336.632812 158.546875 337.65625 159.8125 337.65625 C 161.074219 337.65625 162.097656 336.632812 162.097656 335.371094 C 162.097656 334.105469 161.074219 333.082031 159.8125 333.082031 Z M 159.8125 333.082031 "/><path style=" stroke:none;fill-rule:nonzero;fill:#f9fbfc;fill-opacity:1;" d="M 174.5625 333.082031 C 173.296875 333.082031 172.273438 334.105469 172.273438 335.371094 C 172.273438 336.632812 173.296875 337.65625 174.5625 337.65625 C 175.824219 337.65625 176.851562 336.632812 176.851562 335.371094 C 176.851562 334.105469 175.824219 333.082031 174.5625 333.082031 Z M 174.5625 333.082031 "/><path style=" stroke:none;fill-rule:nonzero;fill:#f9fbfc;fill-opacity:1;" d="M 189.3125 333.082031 C 188.046875 333.082031 187.023438 334.105469 187.023438 335.371094 C 187.023438 336.632812 188.046875 337.65625 189.3125 337.65625 C 190.574219 337.65625 191.601562 336.632812 191.601562 335.371094 C 191.601562 334.105469 190.574219 333.082031 189.3125 333.082031 Z M 189.3125 333.082031 "/><path style=" stroke:none;fill-rule:nonzero;fill:#f9fbfc;fill-opacity:1;" d="M 204.0625 333.082031 C 202.800781 333.082031 201.773438 334.105469 201.773438 335.371094 C 201.773438 336.632812 202.800781 337.65625 204.0625 337.65625 C 205.324219 337.65625 206.351562 336.632812 206.351562 335.371094 C 206.351562 334.105469 205.328125 333.082031 204.0625 333.082031 Z M 204.0625 333.082031 "/><path style=" stroke:none;fill-rule:nonzero;fill:#f9fbfc;fill-opacity:1;" d="M 218.8125 333.082031 C 217.550781 333.082031 216.527344 334.105469 216.527344 335.371094 C 216.527344 336.632812 217.550781 337.65625 218.8125 337.65625 C 220.078125 337.65625 221.101562 336.632812 221.101562 335.371094 C 221.101562 334.105469 220.078125 333.082031 218.8125 333.082031 Z M 218.8125 333.082031 "/><path style=" stroke:none;fill-rule:nonzero;fill:#f9fbfc;fill-opacity:1;" d="M 233.5625 333.082031 C 232.300781 333.082031 231.277344 334.105469 231.277344 335.371094 C 231.277344 336.632812 232.300781 337.65625 233.5625 337.65625 C 234.828125 337.65625 235.851562 336.632812 235.851562 335.371094 C 235.851562 334.105469 234.828125 333.082031 233.5625 333.082031 Z M 233.5625 333.082031 "/><path style=" stroke:none;fill-rule:nonzero;fill:#f9fbfc;fill-opacity:1;" d="M 248.316406 333.082031 C 247.050781 333.082031 246.027344 334.105469 246.027344 335.371094 C 246.027344 336.632812 247.050781 337.65625 248.316406 337.65625 C 249.578125 337.65625 250.601562 336.632812 250.601562 335.371094 C 250.601562 334.105469 249.578125 333.082031 248.316406 333.082031 Z M 248.316406 333.082031 "/><g clip-rule="nonzero" clip-path="url(#255b59418f)"><path style=" stroke:none;fill-rule:nonzero;fill:#31373d;fill-opacity:1;" d="M 351.753906 99.535156 L 351.753906 65.085938 C 351.753906 57.183594 347.824219 50.183594 341.824219 45.925781 L 341.824219 7.378906 C 341.824219 3.308594 338.511719 0 334.441406 0 L 36.429688 0 C 32.359375 0 29.050781 3.308594 29.050781 7.378906 L 29.050781 41.59375 L 8.363281 41.59375 C 3.75 41.59375 -0.00390625 45.347656 -0.00390625 49.957031 L -0.00390625 67.929688 C -0.00390625 72.539062 3.75 76.289062 8.363281 76.289062 L 29.050781 76.289062 L 29.050781 93.015625 L 8.363281 93.015625 C 3.75 93.015625 -0.00390625 96.769531 -0.00390625 101.378906 L -0.00390625 119.351562 C -0.00390625 123.964844 3.75 127.714844 8.363281 127.714844 L 29.050781 127.714844 L 29.050781 144.441406 L 8.363281 144.441406 C 3.75 144.441406 -0.00390625 148.191406 -0.00390625 152.800781 L -0.00390625 170.773438 C -0.00390625 175.386719 3.75 179.136719 8.363281 179.136719 L 29.050781 179.136719 L 29.050781 195.863281 L 8.363281 195.863281 C 3.75 195.863281 -0.00390625 199.613281 -0.00390625 204.226562 L -0.00390625 222.195312 C -0.00390625 226.808594 3.75 230.558594 8.363281 230.558594 L 29.050781 230.558594 L 29.050781 247.285156 L 8.363281 247.285156 C 3.75 247.285156 -0.00390625 251.035156 -0.00390625 255.648438 L -0.00390625 273.621094 C -0.00390625 278.230469 3.75 281.980469 8.363281 281.980469 L 29.050781 281.980469 L 29.050781 298.707031 L 8.363281 298.707031 C 3.75 298.707031 -0.00390625 302.460938 -0.00390625 307.070312 L -0.00390625 325.042969 C -0.00390625 329.652344 3.75 333.402344 8.363281 333.402344 L 29.050781 333.402344 L 29.050781 367.621094 C 29.050781 371.6875 32.359375 375 36.429688 375 L 334.441406 375 C 338.511719 375 341.820312 371.6875 341.820312 367.621094 L 341.820312 269.761719 C 347.824219 265.503906 351.753906 258.503906 351.753906 250.601562 L 351.753906 216.152344 C 351.753906 207.324219 346.851562 199.625 339.632812 195.609375 C 346.851562 191.597656 351.753906 183.894531 351.753906 175.070312 L 351.753906 140.617188 C 351.753906 131.792969 346.851562 124.089844 339.632812 120.078125 C 346.851562 116.0625 351.753906 108.363281 351.753906 99.535156 Z M 335.921875 7.378906 L 335.921875 42.886719 C 333.515625 42.054688 330.9375 41.59375 328.25 41.59375 L 324.546875 41.59375 L 324.546875 22.808594 C 324.546875 18.914062 321.378906 15.75 317.484375 15.75 L 306.082031 15.75 L 306.082031 7.378906 C 306.082031 6.871094 306.03125 6.375 305.933594 5.898438 L 334.441406 5.898438 C 335.257812 5.898438 335.921875 6.5625 335.921875 7.378906 Z M 306.085938 21.644531 L 317.484375 21.644531 C 318.125 21.644531 318.648438 22.167969 318.648438 22.808594 L 318.648438 352.191406 C 318.648438 352.832031 318.125 353.355469 317.484375 353.355469 L 306.085938 353.355469 Z M 5.898438 67.929688 L 5.898438 49.957031 C 5.898438 48.597656 7.003906 47.492188 8.363281 47.492188 L 55.632812 47.492188 C 56.996094 47.492188 58.101562 48.597656 58.101562 49.957031 L 58.101562 67.929688 C 58.101562 69.289062 56.992188 70.394531 55.632812 70.394531 L 8.363281 70.394531 C 7.003906 70.394531 5.898438 69.289062 5.898438 67.929688 Z M 5.898438 119.351562 L 5.898438 101.378906 C 5.898438 100.019531 7.003906 98.914062 8.363281 98.914062 L 55.632812 98.914062 C 56.996094 98.914062 58.101562 100.019531 58.101562 101.378906 L 58.101562 119.351562 C 58.101562 120.710938 56.992188 121.816406 55.632812 121.816406 L 8.363281 121.816406 C 7.003906 121.816406 5.898438 120.710938 5.898438 119.351562 Z M 5.898438 170.773438 L 5.898438 152.804688 C 5.898438 151.445312 7.003906 150.335938 8.363281 150.335938 L 55.632812 150.335938 C 56.996094 150.335938 58.101562 151.445312 58.101562 152.804688 L 58.101562 170.773438 C 58.101562 172.132812 56.992188 173.238281 55.632812 173.238281 L 8.363281 173.238281 C 7.003906 173.238281 5.898438 172.132812 5.898438 170.773438 Z M 5.898438 222.199219 L 5.898438 204.226562 C 5.898438 202.867188 7.003906 201.761719 8.363281 201.761719 L 55.632812 201.761719 C 56.996094 201.761719 58.101562 202.867188 58.101562 204.226562 L 58.101562 222.199219 C 58.101562 223.558594 56.992188 224.664062 55.632812 224.664062 L 8.363281 224.664062 C 7.003906 224.664062 5.898438 223.558594 5.898438 222.199219 Z M 5.898438 273.621094 L 5.898438 255.648438 C 5.898438 254.289062 7.003906 253.183594 8.363281 253.183594 L 55.632812 253.183594 C 56.996094 253.183594 58.101562 254.289062 58.101562 255.648438 L 58.101562 273.621094 C 58.101562 274.980469 56.992188 276.085938 55.632812 276.085938 L 8.363281 276.085938 C 7.003906 276.085938 5.898438 274.980469 5.898438 273.621094 Z M 5.898438 325.042969 L 5.898438 307.070312 C 5.898438 305.710938 7.003906 304.605469 8.363281 304.605469 L 55.632812 304.605469 C 56.996094 304.605469 58.101562 305.710938 58.101562 307.070312 L 58.101562 325.042969 C 58.101562 326.402344 56.992188 327.507812 55.632812 327.507812 L 8.363281 327.507812 C 7.003906 327.507812 5.898438 326.402344 5.898438 325.042969 Z M 34.949219 367.621094 L 34.949219 333.40625 L 55.632812 333.40625 C 60.246094 333.40625 64 329.652344 64 325.042969 L 64 307.070312 C 64 302.460938 60.246094 298.710938 55.632812 298.710938 L 34.949219 298.710938 L 34.949219 281.980469 L 55.632812 281.980469 C 60.246094 281.980469 64 278.230469 64 273.621094 L 64 255.648438 C 64 251.039062 60.246094 247.285156 55.632812 247.285156 L 34.949219 247.285156 L 34.949219 230.558594 L 55.632812 230.558594 C 60.246094 230.558594 64 226.808594 64 222.199219 L 64 204.226562 C 64 199.613281 60.246094 195.863281 55.632812 195.863281 L 34.949219 195.863281 L 34.949219 179.136719 L 55.632812 179.136719 C 60.246094 179.136719 64 175.386719 64 170.773438 L 64 152.804688 C 64 148.191406 60.246094 144.441406 55.632812 144.441406 L 34.949219 144.441406 L 34.949219 127.714844 L 55.632812 127.714844 C 60.246094 127.714844 64 123.964844 64 119.351562 L 64 101.378906 C 64 96.769531 60.246094 93.019531 55.632812 93.019531 L 34.949219 93.019531 L 34.949219 76.292969 L 55.632812 76.292969 C 60.246094 76.292969 64 72.539062 64 67.929688 L 64 49.957031 C 64 45.347656 60.246094 41.59375 55.632812 41.59375 L 34.949219 41.59375 L 34.949219 7.378906 C 34.949219 6.5625 35.613281 5.898438 36.429688 5.898438 L 298.703125 5.898438 C 299.519531 5.898438 300.183594 6.5625 300.183594 7.378906 L 300.183594 367.621094 C 300.183594 368.4375 299.519531 369.101562 298.703125 369.101562 L 36.429688 369.101562 C 35.613281 369.101562 34.949219 368.4375 34.949219 367.621094 Z M 335.921875 367.621094 C 335.921875 368.4375 335.257812 369.101562 334.441406 369.101562 L 305.933594 369.101562 C 306.03125 368.625 306.082031 368.128906 306.082031 367.621094 L 306.082031 359.253906 L 317.484375 359.253906 C 321.378906 359.253906 324.546875 356.085938 324.546875 352.191406 L 324.546875 274.09375 L 328.25 274.09375 C 330.9375 274.09375 333.515625 273.636719 335.921875 272.800781 Z M 345.851562 140.621094 L 345.851562 175.070312 C 345.851562 184.769531 337.957031 192.664062 328.25 192.664062 L 324.546875 192.664062 L 324.546875 123.027344 L 328.25 123.027344 C 337.957031 123.027344 345.851562 130.917969 345.851562 140.621094 Z M 345.851562 140.621094 "/></g><path style=" stroke:none;fill-rule:nonzero;fill:#31373d;fill-opacity:1;" d="M 240.617188 206.375 C 236.71875 199.664062 228.085938 197.375 221.371094 201.269531 L 202.757812 212.074219 C 201.824219 212.617188 200.953125 213.261719 200.175781 213.996094 C 197.273438 216.726562 192.902344 216.832031 190.011719 214.242188 C 182.722656 207.71875 176.039062 199.394531 170.675781 190.167969 C 165.316406 180.941406 161.398438 171.015625 159.339844 161.453125 C 158.523438 157.660156 160.78125 153.917969 164.59375 152.753906 C 165.617188 152.4375 166.609375 152.003906 167.542969 151.460938 L 186.15625 140.660156 C 189.410156 138.773438 191.730469 135.730469 192.695312 132.097656 C 193.660156 128.464844 193.148438 124.671875 191.261719 121.421875 L 172.773438 89.601562 C 170.886719 86.351562 167.84375 84.03125 164.207031 83.066406 C 160.574219 82.105469 156.777344 82.613281 153.527344 84.5 L 147.171875 88.191406 C 137.644531 93.71875 129.488281 101.457031 123.582031 110.570312 C 122.789062 111.796875 122.269531 112.679688 121.953125 113.355469 C 118.078125 121.558594 116.042969 131.828125 115.730469 144.753906 C 115.214844 166.078125 121.832031 189.691406 134.355469 211.25 C 146.878906 232.804688 164.121094 250.25 182.90625 260.371094 C 193 265.808594 203.152344 268.957031 213.085938 269.730469 C 213.515625 269.761719 214.058594 269.78125 214.734375 269.78125 C 214.921875 269.78125 215.121094 269.777344 215.332031 269.777344 C 226.953125 269.632812 238.480469 266.433594 248.667969 260.523438 L 254 257.429688 C 260.710938 253.53125 263.003906 244.902344 259.101562 238.191406 Z M 251.039062 252.332031 L 245.703125 255.425781 C 236.398438 260.828125 225.867188 263.75 215.261719 263.878906 C 214.300781 263.890625 213.796875 263.871094 213.542969 263.851562 C 204.4375 263.144531 195.070312 260.226562 185.707031 255.179688 C 167.867188 245.570312 151.445312 228.914062 139.457031 208.289062 C 127.472656 187.660156 121.144531 165.148438 121.632812 144.898438 C 121.921875 132.808594 123.773438 123.316406 127.289062 115.871094 C 127.402344 115.636719 127.710938 115.046875 128.539062 113.773438 C 133.9375 105.4375 141.40625 98.355469 150.132812 93.289062 L 156.492188 89.601562 C 157.753906 88.867188 159.160156 88.492188 160.585938 88.492188 C 161.289062 88.492188 161.996094 88.582031 162.695312 88.769531 C 164.808594 89.328125 166.574219 90.675781 167.671875 92.566406 L 186.160156 124.382812 C 187.257812 126.273438 187.554688 128.476562 186.992188 130.585938 C 186.433594 132.695312 185.085938 134.464844 183.195312 135.558594 L 164.582031 146.363281 C 164.035156 146.679688 163.457031 146.933594 162.863281 147.113281 C 156.101562 149.1875 152.105469 155.882812 153.574219 162.691406 L 153.574219 162.695312 C 155.757812 172.851562 159.910156 183.378906 165.574219 193.128906 C 171.242188 202.882812 178.332031 211.703125 186.074219 218.636719 C 191.265625 223.28125 199.066406 223.132812 204.21875 218.292969 C 204.667969 217.867188 205.175781 217.492188 205.722656 217.175781 L 224.335938 206.371094 C 226.222656 205.273438 228.425781 204.980469 230.539062 205.539062 C 232.652344 206.097656 234.417969 207.449219 235.515625 209.335938 L 254.003906 241.15625 C 256.269531 245.050781 254.9375 250.066406 251.039062 252.332031 Z M 251.039062 252.332031 "/></g></svg>