<svg xmlns="http://www.w3.org/2000/svg" xmlns:xlink="http://www.w3.org/1999/xlink" width="500" zoomAndPan="magnify" viewBox="0 0 375 374.999991" height="500" preserveAspectRatio="xMidYMid meet" version="1.2"><defs><clipPath id="610dffb72a"><path d="M 54.867188 51 L 337.617188 51 L 337.617188 337.851562 L 54.867188 337.851562 Z M 54.867188 51 "/></clipPath></defs><g id="57d9025b37"><path style=" stroke:none;fill-rule:nonzero;fill:#f2cdfc;fill-opacity:1;" d="M 335.625 150.96875 L 335.625 306.277344 C 335.625 322.558594 322.4375 335.757812 306.167969 335.757812 L 86.328125 335.757812 C 70.058594 335.757812 56.871094 322.558594 56.871094 306.277344 L 56.871094 150.96875 L 166.871094 62.90625 C 184.046875 49.15625 208.449219 49.15625 225.625 62.90625 Z M 335.625 150.96875 "/><path style=" stroke:none;fill-rule:nonzero;fill:#f6f4e7;fill-opacity:1;" d="M 207.480469 137.488281 C 210.914062 140.925781 208.910156 148.945312 203.199219 154.660156 C 197.484375 160.375 189.46875 162.378906 186.042969 158.949219 C 182.609375 155.519531 184.613281 147.492188 190.328125 141.777344 C 193.359375 138.742188 197.105469 136.640625 200.609375 136.003906 C 201.191406 135.898438 201.9375 135.804688 202.75 135.804688 C 204.328125 135.804688 206.15625 136.160156 207.480469 137.488281 Z M 291.800781 68.515625 L 291.800781 186.054688 L 227.757812 237.332031 C 209.332031 252.070312 183.164062 252.070312 164.742188 237.332031 L 100.683594 186.046875 L 100.683594 68.515625 Z M 247.285156 145.871094 C 246.6875 137.488281 243.617188 129.167969 238.636719 122.457031 C 227.566406 107.53125 208.148438 100.03125 190.328125 103.792969 C 174.605469 107.101562 160.570312 119.121094 156.195312 133.011719 C 148.453125 157.578125 159.636719 184.773438 181.648438 194.910156 C 187.765625 197.722656 194.316406 199.113281 200.804688 199.113281 C 209.453125 199.113281 217.988281 196.640625 225.199219 191.796875 C 227.183594 190.460938 228.003906 187.859375 226.898438 185.746094 C 225.597656 183.253906 222.476562 182.515625 220.222656 184.050781 C 210.226562 190.847656 196.917969 191.800781 185.492188 186.539062 C 167.613281 178.308594 158.597656 156.011719 164.96875 135.78125 C 168.398438 124.914062 179.597656 115.460938 192.226562 112.800781 C 206.375 109.820312 222.417969 116.046875 231.246094 127.945312 C 235.195312 133.269531 237.632812 139.863281 238.101562 146.519531 C 238.511719 152.324219 237.621094 159.992188 233.894531 164.105469 C 232.074219 166.121094 229.53125 166.816406 226.910156 166.007812 C 223.664062 165.011719 221.027344 161.203125 219.753906 158.25 C 216.011719 149.5625 219.820312 140.019531 221.628906 136.320312 C 223.257812 132.980469 220.335938 129.339844 216.730469 129.863281 C 214.859375 130.128906 214.503906 131.019531 212.71875 130.136719 C 211.113281 129.347656 209.824219 127.972656 208.035156 127.398438 C 205.117188 126.464844 201.96875 126.398438 198.972656 126.941406 C 193.589844 127.914062 188.203125 130.875 183.816406 135.265625 C 174.160156 144.933594 172.277344 158.199219 179.53125 165.457031 C 182.507812 168.4375 186.480469 169.878906 190.808594 169.878906 C 197.042969 169.878906 204 166.882812 209.714844 161.164062 C 210.152344 160.730469 210.882812 160.867188 211.113281 161.4375 C 211.175781 161.59375 211.238281 161.742188 211.300781 161.898438 C 212.347656 164.3125 216.359375 172.398438 224.210938 174.816406 C 230.203125 176.652344 236.527344 174.921875 240.714844 170.292969 C 247.65625 162.617188 247.621094 150.65625 247.285156 145.871094 Z M 247.285156 145.871094 "/><g clip-rule="nonzero" clip-path="url(#610dffb72a)"><path style=" stroke:none;fill-rule:nonzero;fill:#000000;fill-opacity:1;" d="M 337.621094 150.898438 C 337.621094 150.859375 337.621094 150.820312 337.617188 150.78125 C 337.613281 150.738281 337.601562 150.691406 337.597656 150.648438 C 337.585938 150.597656 337.578125 150.550781 337.566406 150.503906 C 337.558594 150.46875 337.554688 150.4375 337.542969 150.402344 C 337.53125 150.359375 337.511719 150.320312 337.496094 150.277344 C 337.480469 150.226562 337.460938 150.179688 337.4375 150.132812 C 337.425781 150.101562 337.414062 150.070312 337.398438 150.042969 C 337.378906 150.003906 337.351562 149.96875 337.328125 149.929688 C 337.300781 149.882812 337.269531 149.835938 337.234375 149.789062 C 337.21875 149.765625 337.207031 149.742188 337.191406 149.71875 C 337.1875 149.714844 337.183594 149.710938 337.179688 149.707031 C 337.15625 149.679688 337.125 149.652344 337.097656 149.625 C 337.058594 149.582031 337.015625 149.539062 336.972656 149.496094 C 336.945312 149.472656 336.917969 149.441406 336.886719 149.417969 C 336.882812 149.414062 336.882812 149.410156 336.878906 149.40625 L 293.804688 114.921875 L 293.804688 68.515625 C 293.804688 67.410156 292.90625 66.511719 291.800781 66.511719 L 233.339844 66.511719 L 229 63.039062 C 219.742188 55.625 208.109375 51.542969 196.246094 51.542969 C 184.386719 51.542969 172.753906 55.625 163.492188 63.039062 L 159.152344 66.511719 L 100.683594 66.511719 C 99.578125 66.511719 98.679688 67.410156 98.679688 68.515625 L 98.679688 114.929688 L 55.621094 149.40625 C 55.617188 149.410156 55.613281 149.414062 55.609375 149.417969 C 55.582031 149.441406 55.554688 149.46875 55.527344 149.496094 C 55.480469 149.539062 55.433594 149.585938 55.390625 149.632812 C 55.367188 149.65625 55.339844 149.679688 55.320312 149.707031 C 55.316406 149.710938 55.3125 149.714844 55.304688 149.71875 C 55.289062 149.742188 55.28125 149.765625 55.265625 149.785156 C 55.226562 149.835938 55.191406 149.886719 55.160156 149.941406 C 55.140625 149.976562 55.117188 150.003906 55.101562 150.039062 C 55.085938 150.066406 55.074219 150.097656 55.058594 150.125 C 55.035156 150.179688 55.015625 150.234375 54.996094 150.289062 C 54.980469 150.328125 54.964844 150.363281 54.953125 150.398438 C 54.945312 150.433594 54.9375 150.464844 54.929688 150.5 C 54.917969 150.554688 54.90625 150.605469 54.898438 150.664062 C 54.894531 150.699219 54.882812 150.738281 54.878906 150.777344 C 54.875 150.816406 54.875 150.855469 54.875 150.894531 C 54.875 150.921875 54.867188 150.945312 54.867188 150.972656 L 54.867188 304.144531 C 54.867188 322.679688 69.9375 337.761719 88.460938 337.761719 L 304.035156 337.761719 C 322.558594 337.761719 337.628906 322.679688 337.628906 304.144531 L 337.628906 150.972656 C 337.628906 150.945312 337.621094 150.925781 337.621094 150.898438 Z M 293.804688 120.054688 L 332.421875 150.972656 L 293.804688 181.886719 Z M 165.992188 66.171875 C 174.546875 59.324219 185.292969 55.550781 196.246094 55.550781 C 207.203125 55.550781 217.945312 59.324219 226.5 66.171875 L 226.925781 66.511719 L 165.5625 66.511719 Z M 102.6875 70.519531 L 289.800781 70.519531 L 289.800781 185.09375 L 285.445312 188.578125 L 226.503906 235.765625 C 218.484375 242.1875 208.539062 245.902344 198.300781 246.339844 C 198.085938 246.351562 197.871094 246.347656 197.65625 246.355469 C 197.1875 246.367188 196.71875 246.386719 196.25 246.386719 C 195.003906 246.386719 193.761719 246.328125 192.523438 246.234375 C 192.15625 246.203125 191.789062 246.167969 191.421875 246.132812 C 183.601562 245.339844 176.039062 242.648438 169.480469 238.304688 C 168.285156 237.511719 167.121094 236.667969 165.996094 235.765625 L 102.6875 185.085938 Z M 98.679688 120.0625 L 98.679688 181.878906 L 60.078125 150.972656 Z M 58.871094 155.140625 L 99.421875 187.605469 C 99.425781 187.609375 99.429688 187.613281 99.433594 187.613281 L 146.992188 225.6875 L 152 229.699219 L 64.503906 321.492188 C 60.96875 316.613281 58.871094 310.621094 58.871094 304.144531 Z M 304.035156 333.753906 L 88.460938 333.753906 C 80.058594 333.753906 72.46875 330.226562 67.078125 324.578125 C 67.117188 324.542969 67.160156 324.515625 67.195312 324.476562 L 155.140625 232.210938 L 163.492188 238.898438 C 172.753906 246.308594 184.386719 250.394531 196.246094 250.394531 C 196.246094 250.394531 196.25 250.394531 196.25 250.394531 C 197.730469 250.394531 199.210938 250.328125 200.683594 250.203125 C 210.980469 249.320312 220.902344 245.382812 229.003906 238.898438 L 237.355469 232.210938 L 325.300781 324.476562 C 325.335938 324.515625 325.378906 324.542969 325.417969 324.578125 C 320.027344 330.226562 312.4375 333.753906 304.035156 333.753906 Z M 333.625 304.144531 C 333.625 310.621094 331.527344 316.613281 327.992188 321.492188 L 240.496094 229.699219 L 333.625 155.140625 Z M 202.746094 133.800781 C 201.941406 133.800781 201.101562 133.878906 200.253906 134.03125 C 196.359375 134.738281 192.222656 137.042969 188.910156 140.359375 C 185.894531 143.378906 183.726562 147.0625 182.8125 150.734375 C 181.820312 154.710938 182.480469 158.21875 184.625 160.367188 C 186.113281 161.855469 188.261719 162.632812 190.769531 162.632812 C 191.867188 162.632812 193.035156 162.480469 194.246094 162.179688 C 197.917969 161.261719 201.597656 159.09375 204.613281 156.078125 C 211.191406 149.492188 213.15625 140.332031 208.898438 136.074219 C 207.414062 134.585938 205.285156 133.800781 202.746094 133.800781 Z M 201.78125 153.242188 C 199.308594 155.71875 196.210938 157.558594 193.277344 158.289062 C 190.703125 158.933594 188.582031 158.65625 187.457031 157.53125 C 186.332031 156.40625 186.054688 154.28125 186.695312 151.707031 C 187.429688 148.773438 189.265625 145.667969 191.738281 143.195312 C 194.492188 140.441406 197.855469 138.539062 200.96875 137.976562 C 201.578125 137.863281 202.179688 137.808594 202.746094 137.808594 C 204.222656 137.808594 205.339844 138.179688 206.066406 138.90625 C 208.386719 141.230469 207.023438 148 201.78125 153.242188 Z M 180.808594 196.730469 C 187.042969 199.601562 193.953125 201.117188 200.796875 201.117188 C 200.800781 201.117188 200.800781 201.117188 200.800781 201.117188 C 210.039062 201.117188 218.863281 198.46875 226.316406 193.457031 C 229.214844 191.511719 230.226562 187.792969 228.671875 184.8125 C 227.792969 183.132812 226.242188 181.90625 224.417969 181.445312 C 222.597656 180.988281 220.652344 181.332031 219.09375 182.390625 C 209.675781 188.796875 197.121094 189.691406 186.332031 184.722656 C 169.351562 176.902344 160.804688 155.667969 166.878906 136.382812 C 170.097656 126.171875 180.6875 117.28125 192.640625 114.761719 C 206.046875 111.9375 221.261719 117.847656 229.636719 129.140625 C 233.363281 134.160156 235.660156 140.382812 236.101562 146.660156 C 236.46875 151.804688 235.71875 159.105469 232.410156 162.761719 C 231.113281 164.195312 229.371094 164.667969 227.5 164.09375 C 225.074219 163.347656 222.785156 160.222656 221.59375 157.453125 C 218.179688 149.535156 221.738281 140.652344 223.425781 137.199219 C 224.492188 135.019531 224.277344 132.542969 222.847656 130.578125 C 221.378906 128.554688 218.925781 127.519531 216.449219 127.878906 C 215.625 127.996094 215.023438 128.207031 214.582031 128.359375 C 214.039062 128.550781 214.039062 128.554688 213.605469 128.339844 C 213.082031 128.082031 212.554688 127.710938 211.992188 127.320312 C 211.050781 126.664062 209.988281 125.917969 208.644531 125.488281 C 205.585938 124.515625 202.117188 124.335938 198.613281 124.96875 C 192.832031 126.015625 187.074219 129.167969 182.402344 133.847656 C 177.421875 138.828125 174.207031 144.914062 173.347656 150.984375 C 172.457031 157.265625 174.148438 162.910156 178.117188 166.878906 C 181.386719 170.152344 185.773438 171.882812 190.808594 171.882812 C 197.351562 171.882812 204.246094 168.925781 209.9375 163.722656 C 211.574219 167.109375 215.875 174.347656 223.621094 176.726562 C 230.363281 178.800781 237.484375 176.847656 242.203125 171.632812 C 249.660156 163.390625 249.636719 150.773438 249.277344 145.730469 C 248.660156 136.96875 245.449219 128.277344 240.242188 121.261719 C 228.714844 105.722656 208.492188 97.914062 189.917969 101.828125 C 173.519531 105.285156 158.867188 117.859375 154.285156 132.410156 C 146.246094 157.925781 157.898438 186.179688 180.808594 196.730469 Z M 158.101562 133.613281 C 162.273438 120.378906 175.695312 108.921875 190.742188 105.75 C 193.675781 105.132812 196.652344 104.832031 199.628906 104.832031 C 213.96875 104.832031 228.238281 111.804688 237.027344 123.652344 C 241.785156 130.0625 244.71875 138.003906 245.285156 146.011719 C 245.605469 150.542969 245.65625 161.84375 239.234375 168.945312 C 235.570312 172.992188 230.039062 174.507812 224.796875 172.898438 C 217.769531 170.738281 214.097656 163.324219 213.140625 161.101562 C 213.082031 160.964844 213.023438 160.828125 212.96875 160.683594 C 212.605469 159.796875 211.832031 159.152344 210.894531 158.960938 C 209.949219 158.769531 208.980469 159.0625 208.300781 159.746094 C 203.140625 164.910156 196.765625 167.871094 190.808594 167.871094 C 186.859375 167.871094 183.449219 166.550781 180.949219 164.042969 C 177.894531 160.988281 176.601562 156.550781 177.3125 151.546875 C 178.050781 146.332031 180.863281 141.054688 185.234375 136.683594 C 189.335938 132.574219 194.34375 129.816406 199.328125 128.914062 C 202.191406 128.394531 204.992188 128.53125 207.425781 129.308594 C 208.191406 129.550781 208.925781 130.0625 209.699219 130.605469 C 210.359375 131.066406 211.039062 131.539062 211.832031 131.933594 C 213.773438 132.890625 215.007812 132.457031 215.90625 132.144531 C 216.269531 132.015625 216.582031 131.90625 217.019531 131.84375 C 218.214844 131.671875 219.144531 132.296875 219.609375 132.9375 C 219.871094 133.292969 220.410156 134.25 219.832031 135.4375 C 217.898438 139.386719 213.84375 149.59375 217.914062 159.042969 C 219.429688 162.550781 222.429688 166.726562 226.320312 167.925781 C 229.664062 168.953125 233.046875 168.027344 235.378906 165.453125 C 240.601562 159.679688 240.3125 149.394531 240.097656 146.378906 C 239.601562 139.347656 237.027344 132.378906 232.855469 126.75 C 223.578125 114.246094 206.699219 107.703125 191.8125 110.839844 C 178.515625 113.644531 166.691406 123.652344 163.0625 135.179688 C 156.390625 156.351562 165.878906 179.714844 184.65625 188.363281 C 196.714844 193.917969 210.773438 192.898438 221.347656 185.707031 C 221.960938 185.289062 222.722656 185.152344 223.441406 185.332031 C 224.171875 185.515625 224.769531 185.992188 225.121094 186.671875 C 225.722656 187.816406 225.265625 189.335938 224.085938 190.132812 C 217.292969 194.695312 209.242188 197.109375 200.800781 197.109375 C 200.800781 197.109375 200.800781 197.109375 200.796875 197.109375 C 194.527344 197.109375 188.195312 195.71875 182.484375 193.089844 C 161.371094 183.363281 150.660156 157.242188 158.101562 133.613281 Z M 158.101562 133.613281 "/></g></g></svg>