<svg xmlns="http://www.w3.org/2000/svg" xmlns:xlink="http://www.w3.org/1999/xlink" width="500" zoomAndPan="magnify" viewBox="0 0 375 374.999991" height="500" preserveAspectRatio="xMidYMid meet" version="1.2"><defs><clipPath id="121cc75e25"><path d="M 0.015625 32.578125 L 374.996094 32.578125 L 374.996094 94.808594 L 0.015625 94.808594 Z M 0.015625 32.578125 "/></clipPath><clipPath id="a9186ce412"><path d="M 0.015625 156 L 374.996094 156 L 374.996094 219 L 0.015625 219 Z M 0.015625 156 "/></clipPath><clipPath id="0ebd5bf406"><path d="M 0.015625 280.046875 L 374.996094 280.046875 L 374.996094 342.328125 L 0.015625 342.328125 Z M 0.015625 280.046875 "/></clipPath></defs><g id="044d08f838"><g clip-rule="nonzero" clip-path="url(#121cc75e25)"><path style=" stroke:none;fill-rule:nonzero;fill:#ffffff;fill-opacity:1;" d="M 344 94.558594 L 31.007812 94.558594 C 13.890625 94.558594 0.015625 80.6875 0.015625 63.570312 C 0.015625 46.457031 13.890625 32.582031 31.007812 32.582031 L 344 32.582031 C 361.117188 32.582031 374.992188 46.457031 374.992188 63.570312 C 374.992188 80.6875 361.117188 94.558594 344 94.558594 "/></g><g clip-rule="nonzero" clip-path="url(#a9186ce412)"><path style=" stroke:none;fill-rule:nonzero;fill:#ffffff;fill-opacity:1;" d="M 344 218.519531 L 31.007812 218.519531 C 13.890625 218.519531 0.015625 204.648438 0.015625 187.53125 C 0.015625 170.410156 13.890625 156.539062 31.007812 156.539062 L 344 156.539062 C 361.117188 156.539062 374.992188 170.410156 374.992188 187.53125 C 374.992188 204.648438 361.117188 218.519531 344 218.519531 "/></g><g clip-rule="nonzero" clip-path="url(#0ebd5bf406)"><path style=" stroke:none;fill-rule:nonzero;fill:#ffffff;fill-opacity:1;" d="M 344 342.480469 L 31.007812 342.480469 C 13.890625 342.480469 0.015625 328.609375 0.015625 311.492188 C 0.015625 294.371094 13.890625 280.5 31.007812 280.5 L 344 280.5 C 361.117188 280.5 374.992188 294.371094 374.992188 311.492188 C 374.992188 328.609375 361.117188 342.480469 344 342.480469 "/></g></g></svg>