<svg xmlns="http://www.w3.org/2000/svg" xmlns:xlink="http://www.w3.org/1999/xlink" width="500" zoomAndPan="magnify" viewBox="0 0 375 374.999991" height="500" preserveAspectRatio="xMidYMid meet" version="1.2"><defs><clipPath id="8357eabe7f"><path d="M 59 77 L 314 77 L 314 300.910156 L 59 300.910156 Z M 59 77 "/></clipPath></defs><g id="84bab49e63"><g clip-rule="nonzero" clip-path="url(#8357eabe7f)"><path style=" stroke:none;fill-rule:nonzero;fill:#3e3a39;fill-opacity:1;" d="M 263.71875 271.621094 L 257.78125 284.378906 C 255.832031 288.574219 252.355469 291.765625 248.003906 293.351562 C 243.652344 294.941406 238.945312 294.726562 234.742188 292.773438 L 189.453125 271.621094 L 174.113281 271.621094 L 232.007812 298.65625 C 235.203125 300.148438 238.621094 300.910156 242.054688 300.910156 C 244.808594 300.910156 247.566406 300.429688 250.222656 299.453125 C 256.195312 297.273438 260.976562 292.890625 263.65625 287.113281 L 270.871094 271.621094 Z M 71.519531 187.523438 L 71.519531 172.171875 L 61.867188 192.890625 C 59.179688 198.667969 58.886719 205.140625 61.066406 211.132812 C 63.003906 216.449219 66.671875 220.828125 71.519531 223.609375 L 71.519531 215.578125 C 69.589844 213.753906 68.097656 211.488281 67.164062 208.910156 C 65.578125 204.550781 65.78125 199.839844 67.742188 195.628906 Z M 301.214844 155.023438 L 301.214844 163.078125 C 306.46875 168.078125 308.214844 176.078125 304.988281 183.003906 L 301.214844 191.109375 L 301.214844 206.460938 L 310.863281 185.742188 C 316.117188 174.46875 311.773438 161.121094 301.214844 155.023438 Z M 140.726562 79.976562 C 128.824219 74.414062 114.617188 79.589844 109.066406 91.519531 L 101.847656 107.011719 L 109.011719 107.011719 L 114.949219 94.253906 C 116.902344 90.058594 120.375 86.871094 124.730469 85.28125 C 126.667969 84.570312 128.675781 84.226562 130.667969 84.226562 C 133.167969 84.226562 135.652344 84.773438 137.992188 85.859375 L 183.277344 107.011719 L 198.621094 107.011719 L 140.726562 79.976562 "/></g><path style=" stroke:none;fill-rule:nonzero;fill:#f7f8f8;fill-opacity:1;" d="M 96.710938 113.398438 L 276.019531 113.398438 C 285.71875 113.398438 293.582031 121.269531 293.582031 130.984375 L 293.582031 247.648438 C 293.582031 257.363281 285.71875 265.234375 276.019531 265.234375 L 96.710938 265.234375 C 87.015625 265.234375 79.152344 257.363281 79.152344 247.648438 L 79.152344 130.984375 C 79.152344 121.269531 87.015625 113.398438 96.710938 113.398438 "/><path style=" stroke:none;fill-rule:nonzero;fill:#595757;fill-opacity:1;" d="M 99.730469 116.621094 C 90.15625 116.621094 82.367188 124.417969 82.367188 134.007812 L 82.367188 244.625 C 82.367188 254.214844 90.15625 262.015625 99.730469 262.015625 L 273 262.015625 C 282.574219 262.015625 290.363281 254.214844 290.363281 244.625 L 290.363281 134.007812 C 290.363281 124.417969 282.574219 116.621094 273 116.621094 Z M 273 268.457031 L 99.730469 268.457031 C 86.609375 268.457031 75.933594 257.765625 75.933594 244.625 L 75.933594 134.007812 C 75.933594 120.867188 86.609375 110.179688 99.730469 110.179688 L 273 110.179688 C 286.121094 110.179688 296.796875 120.867188 296.796875 134.007812 L 296.796875 244.625 C 296.796875 257.765625 286.121094 268.457031 273 268.457031 "/><path style=" stroke:none;fill-rule:nonzero;fill:#231815;fill-opacity:1;" d="M 273.683594 151.292969 L 195.328125 151.292969 C 193.539062 151.292969 192.085938 149.839844 192.085938 148.046875 C 192.085938 146.253906 193.539062 144.796875 195.328125 144.796875 L 273.683594 144.796875 C 275.472656 144.796875 276.925781 146.253906 276.925781 148.046875 C 276.925781 149.839844 275.472656 151.292969 273.683594 151.292969 "/><path style=" stroke:none;fill-rule:nonzero;fill:#231815;fill-opacity:1;" d="M 273.683594 178.132812 L 195.328125 178.132812 C 193.539062 178.132812 192.085938 176.679688 192.085938 174.886719 C 192.085938 173.09375 193.539062 171.640625 195.328125 171.640625 L 273.683594 171.640625 C 275.472656 171.640625 276.925781 173.09375 276.925781 174.886719 C 276.925781 176.679688 275.472656 178.132812 273.683594 178.132812 "/><path style=" stroke:none;fill-rule:nonzero;fill:#231815;fill-opacity:1;" d="M 273.683594 204.976562 L 195.328125 204.976562 C 193.539062 204.976562 192.085938 203.519531 192.085938 201.726562 C 192.085938 199.933594 193.539062 198.480469 195.328125 198.480469 L 273.683594 198.480469 C 275.472656 198.480469 276.925781 199.933594 276.925781 201.726562 C 276.925781 203.519531 275.472656 204.976562 273.683594 204.976562 "/><path style=" stroke:none;fill-rule:nonzero;fill:#231815;fill-opacity:1;" d="M 273.683594 231.816406 L 195.328125 231.816406 C 193.539062 231.816406 192.085938 230.363281 192.085938 228.570312 C 192.085938 226.777344 193.539062 225.320312 195.328125 225.320312 L 273.683594 225.320312 C 275.472656 225.320312 276.925781 226.777344 276.925781 228.570312 C 276.925781 230.363281 275.472656 231.816406 273.683594 231.816406 "/><path style=" stroke:none;fill-rule:nonzero;fill:#b5b5b6;fill-opacity:1;" d="M 149.398438 195.585938 L 130.660156 195.585938 C 121.921875 195.585938 114.835938 202.683594 114.835938 211.433594 L 114.835938 230.21875 L 165.222656 230.21875 L 165.222656 211.433594 C 165.222656 202.683594 158.140625 195.585938 149.398438 195.585938 "/><path style=" stroke:none;fill-rule:nonzero;fill:#727171;fill-opacity:1;" d="M 173.175781 224.574219 C 173.175781 227.6875 170.644531 230.21875 167.539062 230.21875 L 112.34375 230.21875 C 109.238281 230.21875 106.710938 227.6875 106.710938 224.574219 L 106.710938 156.933594 C 106.710938 153.824219 109.238281 151.292969 112.34375 151.292969 L 167.539062 151.292969 C 170.644531 151.292969 173.175781 153.824219 173.175781 156.933594 Z M 167.539062 144.796875 L 112.34375 144.796875 C 105.664062 144.796875 100.226562 150.242188 100.226562 156.933594 L 100.226562 224.574219 C 100.226562 231.265625 105.664062 236.710938 112.34375 236.710938 L 167.539062 236.710938 C 174.222656 236.710938 179.660156 231.265625 179.660156 224.574219 L 179.660156 156.933594 C 179.660156 150.242188 174.222656 144.796875 167.539062 144.796875 "/><path style=" stroke:none;fill-rule:nonzero;fill:#b5b5b6;fill-opacity:1;" d="M 156.839844 175.59375 C 156.839844 184.941406 149.273438 192.515625 139.941406 192.515625 C 130.609375 192.515625 123.046875 184.941406 123.046875 175.59375 C 123.046875 166.25 130.609375 158.675781 139.941406 158.675781 C 149.273438 158.675781 156.839844 166.25 156.839844 175.59375 "/></g></svg>