<svg xmlns="http://www.w3.org/2000/svg" xmlns:xlink="http://www.w3.org/1999/xlink" width="500" zoomAndPan="magnify" viewBox="0 0 375 374.999991" height="500" preserveAspectRatio="xMidYMid meet" version="1.2"><g id="bba3012210"><path style=" stroke:none;fill-rule:nonzero;fill:#000000;fill-opacity:1;" d="M 237.820312 179.859375 C 245.972656 169.171875 250.1875 155.953125 250.1875 142.453125 C 250.1875 107.863281 222.078125 79.738281 187.5 79.738281 C 152.921875 79.738281 124.8125 107.863281 124.8125 142.453125 C 124.8125 155.953125 129.308594 169.171875 137.179688 179.859375 C 109.351562 197.015625 92.203125 227.671875 92.203125 260.855469 L 92.203125 292.917969 C 92.203125 296.011719 94.734375 298.542969 97.824219 298.542969 L 276.894531 298.542969 C 279.984375 298.542969 282.515625 296.011719 282.515625 292.917969 L 282.515625 260.855469 C 282.515625 235.546875 272.675781 211.359375 254.683594 193.359375 C 249.625 188.015625 244.003906 183.515625 237.820312 179.859375 Z M 187.5 90.988281 C 215.890625 90.988281 238.941406 114.050781 238.941406 142.453125 C 238.941406 155.671875 233.882812 168.046875 225.167969 177.609375 C 215.609375 188.015625 201.835938 193.921875 187.5 193.921875 C 185.8125 193.921875 183.84375 193.921875 182.160156 193.640625 C 169.789062 192.234375 158.265625 186.609375 149.832031 177.609375 C 140.835938 168.046875 136.058594 155.671875 136.058594 142.453125 C 136.058594 114.050781 159.109375 90.988281 187.5 90.988281 Z M 271.550781 287.292969 L 231.070312 287.292969 L 231.070312 267.042969 C 231.070312 263.949219 228.542969 261.417969 225.449219 261.417969 C 222.359375 261.417969 219.828125 263.949219 219.828125 267.042969 L 219.828125 287.292969 L 155.171875 287.292969 L 155.171875 267.042969 C 155.171875 263.949219 152.640625 261.417969 149.550781 261.417969 C 146.457031 261.417969 143.929688 263.949219 143.929688 267.042969 L 143.929688 287.292969 L 103.449219 287.292969 L 103.449219 260.855469 C 103.449219 231.046875 119.191406 203.484375 144.769531 188.578125 C 144.769531 188.578125 145.050781 188.859375 145.050781 188.859375 C 146.457031 189.984375 147.582031 191.109375 148.988281 192.234375 C 149.269531 192.234375 149.269531 192.515625 149.550781 192.515625 C 150.957031 193.640625 152.359375 194.765625 154.046875 195.609375 C 155.453125 196.453125 157.140625 197.578125 158.828125 198.140625 C 159.109375 198.140625 159.109375 198.421875 159.390625 198.421875 C 161.074219 199.265625 162.480469 199.828125 164.167969 200.671875 C 164.449219 200.671875 164.730469 200.953125 165.011719 200.953125 C 166.699219 201.515625 168.101562 202.078125 169.789062 202.640625 C 170.070312 202.640625 170.351562 202.921875 170.632812 202.921875 C 172.320312 203.484375 174.007812 203.765625 175.695312 204.046875 C 175.972656 204.046875 176.253906 204.046875 176.535156 204.328125 C 178.222656 204.609375 179.910156 204.890625 181.597656 205.171875 C 181.878906 205.171875 181.878906 205.171875 182.160156 205.171875 C 184.125 205.453125 185.8125 205.453125 187.78125 205.453125 C 189.75 205.453125 191.433594 205.453125 193.402344 205.171875 C 193.683594 205.171875 193.683594 205.171875 193.964844 205.171875 C 195.652344 204.890625 197.339844 204.609375 199.027344 204.328125 C 199.304688 204.328125 199.585938 204.328125 199.867188 204.046875 C 201.554688 203.765625 203.242188 203.203125 204.929688 202.921875 C 205.210938 202.921875 205.492188 202.640625 205.773438 202.640625 C 207.457031 202.078125 209.144531 201.515625 210.550781 200.953125 C 210.832031 200.953125 211.113281 200.671875 211.394531 200.671875 C 213.082031 200.109375 214.488281 199.265625 216.171875 198.421875 C 216.171875 198.421875 216.453125 198.140625 216.453125 198.140625 C 218.140625 197.296875 219.546875 196.453125 221.234375 195.328125 C 222.636719 194.484375 224.324219 193.359375 225.730469 192.234375 C 226.011719 192.234375 226.011719 191.953125 226.292969 191.953125 C 227.699219 190.828125 229.105469 189.703125 230.230469 188.578125 C 230.230469 188.578125 230.507812 188.296875 230.507812 188.296875 C 236.695312 191.953125 242.316406 196.171875 247.09375 201.234375 C 262.835938 216.984375 271.550781 238.078125 271.550781 260.574219 Z M 187.5 1.273438 C 84.050781 1.273438 0 85.644531 0 189.140625 C 0 292.636719 84.050781 376.726562 187.5 376.726562 C 290.949219 376.726562 375 292.636719 375 189.140625 C 375 85.644531 290.949219 1.273438 187.5 1.273438 Z M 187.5 365.476562 C 90.234375 365.476562 11.246094 286.449219 11.246094 189.140625 C 11.246094 91.832031 90.234375 12.804688 187.5 12.804688 C 284.765625 12.804688 363.753906 91.832031 363.753906 189.140625 C 363.753906 286.167969 284.765625 365.476562 187.5 365.476562 Z M 187.5 365.476562 "/></g></svg>