<svg xmlns="http://www.w3.org/2000/svg" xmlns:xlink="http://www.w3.org/1999/xlink" width="500" zoomAndPan="magnify" viewBox="0 0 375 374.999991" height="500" preserveAspectRatio="xMidYMid meet" version="1.2"><defs><clipPath id="8e0e7ea34c"><path d="M 22.402344 86.808594 L 365 86.808594 L 365 281 L 22.402344 281 Z M 22.402344 86.808594 "/></clipPath></defs><g id="5656581ef4"><g clip-rule="nonzero" clip-path="url(#8e0e7ea34c)"><path style=" stroke:none;fill-rule:nonzero;fill:#000000;fill-opacity:1;" d="M 207.457031 139.738281 C 207.550781 139.734375 207.59375 139.6875 207.589844 139.597656 C 206.910156 129.167969 206.375 118.730469 206.265625 108.273438 C 206.234375 105.40625 206.339844 102.699219 206.582031 100.152344 C 207.199219 93.664062 210.050781 86.800781 217.824219 86.96875 C 221.449219 87.046875 225.339844 88.496094 228.851562 90.222656 C 231.640625 91.589844 234.800781 93.300781 238.324219 95.34375 C 245.964844 99.777344 253.570312 104.269531 261.140625 108.828125 C 275.992188 117.765625 290.78125 126.800781 305.515625 135.9375 C 306.539062 136.570312 307.546875 137.191406 308.546875 137.800781 C 324.960938 147.792969 336.535156 154.828125 350.253906 163.777344 C 353.722656 166.039062 356.777344 168.324219 359.417969 170.628906 C 361.441406 172.394531 363.347656 175.003906 364.136719 177.574219 C 366.441406 185.089844 360.3125 191.746094 355.136719 196.257812 C 351.527344 199.402344 347.609375 202.535156 343.375 205.65625 C 319.617188 223.171875 295.367188 240.851562 271.570312 257.480469 C 263.507812 263.113281 254.953125 268.652344 246.171875 273.417969 C 242.765625 275.265625 239.027344 276.957031 234.957031 278.492188 C 232.410156 279.453125 229.960938 280.121094 227.609375 280.5 C 218.941406 281.886719 214.488281 274.535156 212.566406 267.410156 C 211.660156 264.039062 211.03125 260.46875 210.6875 256.691406 C 209.878906 247.761719 209.332031 236.90625 208.988281 230.167969 C 208.914062 228.726562 208.722656 227.363281 208.414062 226.085938 C 208.027344 224.496094 207.015625 223.335938 205.542969 222.71875 C 202.65625 221.507812 199.21875 221.203125 196.058594 220.972656 C 195.039062 220.898438 193.855469 220.84375 192.5 220.8125 C 187.09375 220.683594 181.53125 220.730469 175.8125 220.949219 C 170.15625 221.164062 160.53125 221.5 146.929688 221.949219 C 142.796875 222.085938 133.644531 222.207031 119.472656 222.308594 C 107.808594 222.394531 95.703125 222.785156 83.15625 223.480469 C 71.648438 224.117188 60.191406 225.320312 48.667969 225.785156 C 44.914062 225.9375 40.679688 225.839844 37.164062 224.679688 C 31.722656 222.890625 28.472656 218.511719 26.585938 213.246094 C 25.4375 210.035156 24.59375 206.65625 24.058594 203.109375 C 22.707031 194.132812 22.421875 184.933594 22.699219 175.875 C 22.800781 172.445312 23.121094 169.199219 24.1875 165.957031 C 28.351562 153.265625 42.117188 150.871094 53.597656 149.640625 C 56.382812 149.339844 60.035156 149.007812 64.558594 148.644531 C 87.710938 146.78125 108.378906 145.277344 126.554688 144.140625 C 127.777344 144.0625 128.960938 143.984375 130.105469 143.902344 C 141.667969 143.070312 153.234375 142.253906 164.796875 141.453125 C 179.011719 140.472656 193.234375 140.132812 207.457031 139.738281 Z M 207.457031 139.738281 "/></g></g></svg>