<svg xmlns="http://www.w3.org/2000/svg" xmlns:xlink="http://www.w3.org/1999/xlink" width="500" zoomAndPan="magnify" viewBox="0 0 375 374.999991" height="500" preserveAspectRatio="xMidYMid meet" version="1.2"><defs><clipPath id="7b65379b8f"><path d="M 22.402344 86.808594 L 365 86.808594 L 365 281 L 22.402344 281 Z M 22.402344 86.808594 "/></clipPath></defs><g id="fbd6164370"><g clip-rule="nonzero" clip-path="url(#7b65379b8f)"><path style=" stroke:none;fill-rule:nonzero;fill:#ffc8dd;fill-opacity:1;" d="M 207.558594 139.714844 C 207.652344 139.714844 207.695312 139.667969 207.6875 139.574219 C 207.011719 129.148438 206.476562 118.71875 206.367188 108.265625 C 206.335938 105.398438 206.441406 102.695312 206.683594 100.148438 C 207.300781 93.660156 210.152344 86.800781 217.933594 86.96875 C 221.558594 87.046875 225.449219 88.496094 228.960938 90.21875 C 231.753906 91.589844 234.914062 93.296875 238.441406 95.339844 C 246.089844 99.769531 253.699219 104.261719 261.269531 108.816406 C 276.128906 117.753906 290.929688 126.785156 305.667969 135.914062 C 306.691406 136.550781 307.703125 137.171875 308.703125 137.777344 C 325.125 147.765625 336.707031 154.800781 350.433594 163.746094 C 353.90625 166.007812 356.960938 168.289062 359.601562 170.59375 C 361.625 172.359375 363.535156 174.96875 364.324219 177.535156 C 366.628906 185.046875 360.5 191.703125 355.320312 196.210938 C 351.707031 199.355469 347.785156 202.488281 343.550781 205.605469 C 319.78125 223.117188 295.519531 240.785156 271.703125 257.40625 C 263.640625 263.039062 255.082031 268.578125 246.292969 273.339844 C 242.886719 275.1875 239.148438 276.878906 235.074219 278.414062 C 232.523438 279.375 230.074219 280.039062 227.722656 280.417969 C 219.046875 281.804688 214.59375 274.453125 212.671875 267.332031 C 211.761719 263.964844 211.136719 260.394531 210.792969 256.617188 C 209.980469 247.691406 209.433594 236.84375 209.089844 230.105469 C 209.015625 228.667969 208.824219 227.304688 208.515625 226.027344 C 208.128906 224.441406 207.117188 223.277344 205.644531 222.660156 C 202.753906 221.453125 199.316406 221.148438 196.152344 220.914062 C 195.132812 220.839844 193.949219 220.789062 192.59375 220.757812 C 187.183594 220.628906 181.617188 220.671875 175.898438 220.890625 C 170.238281 221.109375 160.605469 221.441406 147 221.890625 C 142.863281 222.027344 133.703125 222.148438 119.527344 222.25 C 107.855469 222.335938 95.742188 222.726562 83.191406 223.421875 C 71.675781 224.058594 60.210938 225.261719 48.683594 225.726562 C 44.925781 225.878906 40.691406 225.78125 37.171875 224.621094 C 31.726562 222.832031 28.476562 218.457031 26.589844 213.195312 C 25.4375 209.984375 24.59375 206.605469 24.058594 203.058594 C 22.707031 194.089844 22.421875 184.894531 22.699219 175.835938 C 22.800781 172.410156 23.121094 169.167969 24.1875 165.925781 C 28.355469 153.238281 42.128906 150.84375 53.617188 149.613281 C 56.402344 149.3125 60.058594 148.984375 64.582031 148.621094 C 87.75 146.753906 108.425781 145.253906 126.609375 144.117188 C 127.832031 144.039062 129.015625 143.960938 130.164062 143.878906 C 141.734375 143.046875 153.304688 142.230469 164.875 141.429688 C 179.097656 140.449219 193.328125 140.109375 207.558594 139.714844 Z M 207.558594 139.714844 "/></g></g></svg>