<svg xmlns="http://www.w3.org/2000/svg" xmlns:xlink="http://www.w3.org/1999/xlink" width="500" zoomAndPan="magnify" viewBox="0 0 375 374.999991" height="500" preserveAspectRatio="xMidYMid meet" version="1.2"><defs><clipPath id="dec100b79c"><path d="M 9.871094 112 L 180 112 L 180 295 L 9.871094 295 Z M 9.871094 112 "/></clipPath></defs><g id="90a14f22e1"><path style=" stroke:none;fill-rule:nonzero;fill:#000000;fill-opacity:1;" d="M 268.808594 169.734375 C 268.808594 168.1875 267.558594 166.941406 266.015625 166.941406 C 264.472656 166.941406 263.222656 168.1875 263.222656 169.734375 C 263.222656 212.527344 228.433594 247.34375 185.667969 247.34375 C 142.90625 247.34375 108.117188 212.53125 108.117188 169.734375 C 108.117188 126.941406 142.910156 92.128906 185.671875 92.128906 C 205.882812 92.128906 225.019531 99.867188 239.5625 113.929688 C 244.105469 118.273438 258.0625 134.738281 246.996094 164.3125 C 237.023438 190.96875 222.753906 191.84375 222.683594 191.847656 C 213.050781 191.847656 205.210938 184 205.210938 174.359375 L 205.210938 159.199219 C 205.253906 157.996094 205.253906 156.808594 205.210938 155.628906 L 205.210938 126.617188 C 205.210938 125.074219 203.960938 123.824219 202.417969 123.824219 C 200.878906 123.824219 199.625 125.074219 199.625 126.617188 L 199.625 136.707031 C 197.15625 133.175781 193.976562 130.601562 190.179688 129.242188 C 175.921875 124.140625 158.617188 137.328125 150.785156 159.246094 C 147.132812 169.476562 146.195312 180.03125 148.148438 188.964844 C 150.207031 198.367188 155.210938 204.933594 162.238281 207.445312 C 164.304688 208.183594 166.4375 208.539062 168.59375 208.539062 C 180.617188 208.539062 193.441406 197.488281 200.464844 180.445312 C 203.140625 190.222656 212.082031 197.4375 222.722656 197.4375 C 223.457031 197.425781 240.796875 196.824219 252.226562 166.273438 C 264.488281 133.496094 248.582031 114.832031 243.429688 109.902344 C 227.851562 94.835938 207.339844 86.542969 185.667969 86.542969 C 139.824219 86.542969 102.53125 123.863281 102.53125 169.738281 C 102.53125 215.613281 139.824219 252.933594 185.667969 252.933594 C 231.511719 252.933594 268.808594 215.609375 268.808594 169.734375 Z M 164.117188 202.183594 C 158.96875 200.34375 155.234375 195.222656 153.605469 187.769531 C 151.871094 179.84375 152.734375 170.386719 156.042969 161.132812 C 161.84375 144.894531 173.554688 133.742188 183.824219 133.742188 C 185.355469 133.742188 186.855469 133.988281 188.300781 134.503906 C 193.449219 136.34375 197.183594 141.464844 198.8125 148.917969 C 199.242188 150.890625 199.515625 152.960938 199.625 155.09375 L 199.625 159.242188 C 199.414062 164.515625 198.335938 170.066406 196.375 175.554688 C 189.820312 193.902344 175.050781 206.09375 164.117188 202.183594 Z M 164.117188 202.183594 "/><path style=" stroke:none;fill-rule:nonzero;fill:#000000;fill-opacity:1;" d="M 358.351562 110.015625 C 354.914062 96.851562 346.058594 86.441406 334.058594 81.453125 L 314.65625 73.386719 C 308.746094 70.9375 302.148438 71.175781 296.074219 74.085938 C 290.105469 76.941406 285.355469 82.046875 282.691406 88.449219 L 273.855469 109.726562 C 271.195312 116.128906 270.9375 123.097656 273.125 129.34375 C 275.351562 135.703125 279.832031 140.558594 285.742188 143.019531 C 293.085938 146.070312 297.484375 153.785156 296.957031 162.664062 C 296.300781 173.667969 294.050781 190.332031 287.050781 207.203125 C 280.046875 224.066406 269.832031 237.421875 262.496094 245.652344 C 256.578125 252.292969 248.011719 254.613281 240.671875 251.5625 C 228.578125 246.539062 214.242188 253.289062 208.707031 266.621094 L 199.875 287.894531 C 194.339844 301.230469 199.671875 316.164062 211.761719 321.191406 L 231.160156 329.257812 C 236.152344 331.332031 241.421875 332.359375 246.726562 332.359375 C 254.167969 332.359375 261.671875 330.332031 268.527344 326.335938 C 287.609375 315.214844 315.578125 289.367188 340.472656 229.414062 C 365.367188 169.464844 363.9375 131.398438 358.351562 110.015625 Z M 335.3125 227.269531 C 311.015625 285.785156 284.054688 310.8125 265.714844 321.503906 C 255.492188 327.46875 243.679688 328.410156 233.304688 324.09375 L 213.90625 316.027344 C 204.660156 312.183594 200.683594 300.523438 205.03125 290.039062 L 213.867188 268.765625 C 217.265625 260.570312 224.765625 255.484375 232.292969 255.484375 C 234.398438 255.484375 236.511719 255.886719 238.53125 256.722656 C 248.101562 260.699219 259.144531 257.816406 266.667969 249.367188 C 274.289062 240.8125 284.90625 226.929688 292.207031 209.347656 C 299.511719 191.757812 301.851562 174.433594 302.535156 162.996094 C 303.207031 151.703125 297.460938 141.835938 287.890625 137.855469 C 283.464844 136.015625 280.09375 132.335938 278.402344 127.5 C 276.667969 122.550781 276.886719 117 279.019531 111.867188 L 287.855469 90.59375 C 289.984375 85.460938 293.761719 81.386719 298.488281 79.125 C 303.109375 76.914062 308.089844 76.703125 312.519531 78.550781 L 331.914062 86.617188 C 342.292969 90.929688 349.957031 99.972656 352.949219 111.429688 C 358.3125 131.976562 359.609375 168.757812 335.3125 227.269531 Z M 335.3125 227.269531 "/><g clip-rule="nonzero" clip-path="url(#dec100b79c)"><path style=" stroke:none;fill-rule:nonzero;fill:#000000;fill-opacity:1;" d="M 176.210938 259.53125 C 174.667969 259.53125 173.417969 260.78125 173.417969 262.328125 L 173.417969 285.824219 L 137.640625 255.609375 C 137.140625 255.183594 136.5 254.949219 135.839844 254.949219 L 30.582031 254.949219 C 22.242188 254.945312 15.457031 248.15625 15.457031 239.808594 L 15.457031 133.378906 C 15.457031 125.035156 22.242188 118.242188 30.582031 118.242188 L 111.503906 118.242188 C 113.042969 118.242188 114.296875 116.992188 114.296875 115.449219 C 114.296875 113.902344 113.042969 112.652344 111.503906 112.652344 L 30.582031 112.652344 C 19.160156 112.652344 9.871094 121.949219 9.871094 133.378906 L 9.871094 239.8125 C 9.871094 251.242188 19.160156 260.539062 30.582031 260.539062 L 134.820312 260.539062 L 174.410156 293.976562 C 174.921875 294.414062 175.566406 294.636719 176.210938 294.636719 C 176.609375 294.636719 177.011719 294.554688 177.386719 294.375 C 178.371094 293.917969 179.003906 292.929688 179.003906 291.84375 L 179.003906 262.328125 C 179.003906 260.78125 177.75 259.53125 176.210938 259.53125 Z M 176.210938 259.53125 "/></g><path style=" stroke:none;fill-rule:nonzero;fill:#000000;fill-opacity:1;" d="M 88.003906 154.511719 C 89.546875 154.511719 90.796875 153.265625 90.796875 151.71875 C 90.796875 150.171875 89.546875 148.925781 88.003906 148.925781 L 45.070312 148.925781 C 43.527344 148.925781 42.277344 150.171875 42.277344 151.71875 C 42.277344 153.265625 43.527344 154.511719 45.070312 154.511719 Z M 88.003906 154.511719 "/><path style=" stroke:none;fill-rule:nonzero;fill:#000000;fill-opacity:1;" d="M 26.8125 193.554688 C 26.8125 195.101562 28.0625 196.351562 29.605469 196.351562 L 94.433594 196.351562 C 95.976562 196.351562 97.226562 195.101562 97.226562 193.554688 C 97.226562 192.011719 95.976562 190.761719 94.433594 190.761719 L 29.605469 190.761719 C 28.0625 190.761719 26.8125 192.011719 26.8125 193.554688 Z M 26.8125 193.554688 "/></g></svg>