<svg xmlns="http://www.w3.org/2000/svg" xmlns:xlink="http://www.w3.org/1999/xlink" width="500" zoomAndPan="magnify" viewBox="0 0 375 374.999991" height="500" preserveAspectRatio="xMidYMid meet" version="1.2"><defs><clipPath id="6f29b3e9c6"><path d="M 47.003906 195 L 344 195 L 344 344.410156 L 47.003906 344.410156 Z M 47.003906 195 "/></clipPath></defs><g id="42441f3355"><path style=" stroke:none;fill-rule:nonzero;fill:#fffcf8;fill-opacity:1;" d="M 70.128906 199.550781 L 320.867188 199.550781 C 321.488281 199.550781 322.109375 199.578125 322.730469 199.640625 C 323.347656 199.703125 323.960938 199.792969 324.574219 199.914062 C 325.183594 200.035156 325.785156 200.1875 326.378906 200.367188 C 326.976562 200.546875 327.558594 200.757812 328.132812 200.996094 C 328.710938 201.234375 329.269531 201.5 329.820312 201.792969 C 330.367188 202.085938 330.902344 202.40625 331.417969 202.75 C 331.933594 203.097656 332.433594 203.46875 332.914062 203.863281 C 333.394531 204.257812 333.855469 204.675781 334.296875 205.113281 C 334.734375 205.554688 335.152344 206.015625 335.546875 206.496094 C 335.941406 206.976562 336.3125 207.476562 336.65625 207.992188 C 337.003906 208.511719 337.320312 209.042969 337.613281 209.59375 C 337.90625 210.140625 338.171875 210.703125 338.410156 211.277344 C 338.648438 211.851562 338.859375 212.4375 339.039062 213.035156 C 339.21875 213.628906 339.371094 214.230469 339.492188 214.84375 C 339.613281 215.453125 339.703125 216.066406 339.765625 216.6875 C 339.828125 217.304688 339.855469 217.925781 339.855469 218.550781 L 339.855469 321.230469 C 339.855469 321.851562 339.828125 322.472656 339.765625 323.09375 C 339.703125 323.710938 339.613281 324.328125 339.492188 324.9375 C 339.371094 325.546875 339.21875 326.148438 339.039062 326.746094 C 338.859375 327.339844 338.648438 327.925781 338.410156 328.5 C 338.171875 329.078125 337.90625 329.636719 337.613281 330.1875 C 337.320312 330.734375 337.003906 331.269531 336.65625 331.785156 C 336.3125 332.304688 335.941406 332.804688 335.546875 333.285156 C 335.152344 333.765625 334.734375 334.226562 334.296875 334.664062 C 333.855469 335.105469 333.394531 335.523438 332.914062 335.917969 C 332.433594 336.3125 331.933594 336.683594 331.417969 337.027344 C 330.902344 337.375 330.367188 337.695312 329.820312 337.988281 C 329.269531 338.28125 328.710938 338.546875 328.132812 338.785156 C 327.558594 339.023438 326.976562 339.230469 326.378906 339.410156 C 325.785156 339.59375 325.183594 339.742188 324.574219 339.863281 C 323.960938 339.988281 323.347656 340.078125 322.730469 340.140625 C 322.109375 340.199219 321.488281 340.230469 320.867188 340.230469 L 70.128906 340.230469 C 69.507812 340.230469 68.886719 340.199219 68.265625 340.140625 C 67.648438 340.078125 67.035156 339.988281 66.421875 339.863281 C 65.8125 339.742188 65.210938 339.59375 64.617188 339.410156 C 64.019531 339.230469 63.4375 339.023438 62.859375 338.785156 C 62.285156 338.546875 61.726562 338.28125 61.175781 337.988281 C 60.628906 337.695312 60.09375 337.375 59.578125 337.027344 C 59.0625 336.683594 58.5625 336.3125 58.082031 335.917969 C 57.601562 335.523438 57.140625 335.105469 56.699219 334.664062 C 56.261719 334.226562 55.84375 333.765625 55.449219 333.285156 C 55.054688 332.804688 54.683594 332.304688 54.339844 331.785156 C 53.992188 331.269531 53.675781 330.734375 53.382812 330.1875 C 53.089844 329.636719 52.824219 329.078125 52.585938 328.5 C 52.347656 327.925781 52.136719 327.339844 51.957031 326.746094 C 51.777344 326.148438 51.625 325.546875 51.503906 324.9375 C 51.382812 324.328125 51.292969 323.710938 51.230469 323.09375 C 51.167969 322.472656 51.140625 321.851562 51.140625 321.230469 L 51.140625 218.550781 C 51.140625 217.925781 51.167969 217.304688 51.230469 216.6875 C 51.292969 216.066406 51.382812 215.453125 51.503906 214.84375 C 51.625 214.230469 51.777344 213.628906 51.957031 213.035156 C 52.136719 212.4375 52.347656 211.851562 52.585938 211.277344 C 52.824219 210.703125 53.089844 210.140625 53.382812 209.59375 C 53.675781 209.042969 53.992188 208.511719 54.339844 207.992188 C 54.683594 207.476562 55.054688 206.976562 55.449219 206.496094 C 55.84375 206.015625 56.261719 205.554688 56.699219 205.113281 C 57.140625 204.675781 57.601562 204.257812 58.082031 203.863281 C 58.5625 203.46875 59.0625 203.097656 59.578125 202.75 C 60.09375 202.40625 60.628906 202.085938 61.175781 201.792969 C 61.726562 201.5 62.285156 201.234375 62.859375 200.996094 C 63.4375 200.757812 64.019531 200.546875 64.617188 200.367188 C 65.210938 200.1875 65.8125 200.035156 66.421875 199.914062 C 67.035156 199.792969 67.648438 199.703125 68.265625 199.640625 C 68.886719 199.578125 69.507812 199.550781 70.128906 199.550781 Z M 70.128906 199.550781 "/><g clip-rule="nonzero" clip-path="url(#6f29b3e9c6)"><path style=" stroke:none;fill-rule:nonzero;fill:#6b5239;fill-opacity:1;" d="M 319.8125 344.367188 L 71.1875 344.367188 C 57.855469 344.367188 47.003906 333.511719 47.003906 320.167969 L 47.003906 219.605469 C 47.003906 206.265625 57.855469 195.40625 71.1875 195.40625 L 319.8125 195.40625 C 333.144531 195.40625 343.996094 206.265625 343.996094 219.605469 L 343.996094 320.167969 C 343.996094 333.511719 333.144531 344.367188 319.8125 344.367188 Z M 71.1875 203.691406 C 62.417969 203.691406 55.277344 210.832031 55.277344 219.609375 L 55.277344 320.175781 C 55.277344 328.949219 62.417969 336.09375 71.1875 336.09375 L 319.8125 336.09375 C 328.582031 336.09375 335.722656 328.949219 335.722656 320.175781 L 335.722656 219.609375 C 335.722656 210.832031 328.582031 203.691406 319.8125 203.691406 Z M 71.1875 203.691406 "/></g><path style=" stroke:none;fill-rule:nonzero;fill:#ffe7c9;fill-opacity:1;" d="M 247 185.238281 C 231.472656 198.605469 208.839844 198.640625 189.410156 197.640625 C 173.933594 196.425781 157.777344 191.738281 146.691406 180.335938 C 143.929688 177.511719 141.574219 174.296875 139.949219 170.683594 C 139.679688 170 139.230469 169.328125 138.96875 168.625 C 132.421875 169.933594 124.457031 165.238281 125.273438 157.949219 C 125.417969 152.367188 130.277344 147.101562 136.023438 147.484375 C 136.355469 147.507812 136.75 147.578125 137.164062 147.683594 C 136.484375 145.515625 136.539062 143.09375 136.179688 140.859375 C 135.882812 137.972656 135.71875 135.070312 135.835938 132.167969 C 136.726562 121.273438 138.347656 108.109375 145.121094 99.222656 C 156.601562 85.109375 177.105469 77.074219 195.058594 77.019531 C 208 76.988281 221.308594 77.972656 233.230469 83.425781 C 245.121094 88.507812 254.871094 98.558594 258.671875 111.03125 C 261.914062 122.097656 263.039062 133.792969 262.390625 145.292969 C 274.875 141.710938 274.445312 163.445312 263.332031 163.949219 C 262.292969 164.125 261.515625 163.9375 260.996094 163.589844 C 260.71875 165.648438 258.746094 168.660156 258.300781 169.828125 C 255.398438 175.523438 251.5 180.71875 247 185.25 Z M 247 185.238281 "/><path style=" stroke:none;fill-rule:nonzero;fill:#ffb39d;fill-opacity:1;" d="M 126.195312 148.121094 C 128.234375 146.210938 131.25 145.359375 133.988281 145.113281 C 136.421875 145.0625 138.59375 146.390625 140.941406 146.84375 C 146.039062 147.859375 151.175781 145.304688 153.6875 140.8125 C 155.539062 138.308594 157.203125 135.675781 158.730469 132.960938 C 160.265625 130.324219 164.296875 132.601562 162.804688 135.292969 C 159.957031 140.058594 157.269531 145.28125 152.945312 148.878906 C 147.921875 152.3125 141.371094 152.6875 135.832031 150.316406 C 133.195312 148.96875 130.726562 151.15625 128.261719 151.769531 C 126.058594 152.101562 124.714844 149.84375 126.199219 148.125 Z M 126.195312 148.121094 "/><path style=" stroke:none;fill-rule:nonzero;fill:#ffb39d;fill-opacity:1;" d="M 155.191406 138.703125 C 155.367188 137.113281 157.113281 136.085938 158.484375 137.078125 C 159.476562 137.582031 159.753906 138.953125 160.957031 139.089844 C 166.222656 139.671875 168.503906 133.773438 169.851562 129.671875 C 170.320312 126.789062 174.25 125.988281 174.878906 129.167969 C 175.035156 130.492188 174.0625 131.582031 174.054688 132.882812 C 174.519531 137.652344 181.179688 133.171875 182.734375 131.148438 C 188.554688 124.125 192.59375 115.886719 196.632812 107.765625 C 197.59375 106.269531 197.800781 104.039062 199.472656 103.167969 C 201.285156 102.335938 203.378906 104.375 202.527344 106.210938 C 197.964844 115.386719 184.914062 147.59375 171.355469 138.035156 C 169.242188 141.964844 164.597656 144.628906 160.125 143.863281 C 157.714844 143.429688 154.863281 141.421875 155.191406 138.699219 Z M 155.191406 138.703125 "/><path style=" stroke:none;fill-rule:nonzero;fill:#ffb39d;fill-opacity:1;" d="M 196.234375 110.472656 C 196.839844 108.535156 199.511719 108.179688 200.355469 110.128906 C 201.140625 112.285156 200.875 114.726562 201.652344 116.929688 C 203.277344 122.789062 205.621094 132.109375 211.359375 135.140625 C 212.5 135.546875 213.769531 136.445312 214.996094 135.992188 C 217.5 134.304688 218.472656 131.164062 219.886719 128.625 C 221.066406 126.71875 221.429688 122.601562 224.554688 123.703125 C 227.824219 125.410156 224.507812 129.257812 223.691406 131.59375 C 222.292969 134.503906 220.898438 137.640625 218.273438 139.613281 C 215.910156 141.523438 212.71875 141.125 210.128906 139.917969 C 201.347656 136.355469 198.269531 123.785156 196.363281 115.410156 C 196.367188 115.441406 196.375 115.476562 196.378906 115.507812 C 196.386719 115.535156 196.390625 115.5625 196.394531 115.589844 C 196.183594 113.917969 195.710938 112.117188 196.230469 110.472656 Z M 196.234375 110.472656 "/><path style=" stroke:none;fill-rule:nonzero;fill:#ffb39d;fill-opacity:1;" d="M 219.433594 129.355469 C 219.691406 128.15625 220.933594 127.070312 222.179688 127.554688 C 224.203125 128.285156 224.097656 130.785156 225.011719 132.410156 C 225.839844 134.257812 228.273438 134.933594 230.0625 134.152344 C 231.476562 133.226562 231.957031 131.398438 232.761719 129.988281 C 233.253906 128.707031 234.242188 127.4375 235.738281 127.457031 C 239.171875 127.734375 239.710938 132.953125 241.339844 135.382812 C 243.136719 138.628906 244.765625 142.726562 248.507812 144.09375 C 257.058594 146.226562 271.304688 140.023438 273.492188 152.84375 C 273.90625 159.492188 270.253906 165.515625 267.574219 171.359375 C 266.085938 173.996094 262.042969 171.789062 263.5 169.097656 C 265.597656 163.90625 273.925781 149.902344 263.476562 149.304688 C 258.105469 148.898438 252.5625 150.25 247.296875 148.835938 C 241.019531 146.949219 238.328125 140.226562 235.675781 134.824219 C 233.390625 140.050781 225.902344 140.765625 222.171875 136.726562 C 220.535156 134.738281 219.1875 131.972656 219.4375 129.351562 Z M 219.433594 129.355469 "/><path style=" stroke:none;fill-rule:nonzero;fill:#ffb39d;fill-opacity:1;" d="M 261.582031 156.335938 C 262.59375 156.164062 264.078125 155.269531 263.546875 154.09375 C 261.9375 154.527344 260.417969 153.839844 261.683594 152.113281 C 264.449219 150.027344 267.394531 153.480469 265.792969 156.253906 C 265.167969 157.714844 263.675781 158.511719 262.183594 158.796875 C 260.679688 159.109375 260.105469 156.734375 261.589844 156.328125 Z M 261.582031 156.335938 "/><path style=" stroke:none;fill-rule:nonzero;fill:#ffb39d;fill-opacity:1;" d="M 130.132812 158.445312 C 130.828125 155.527344 134.414062 153.632812 137.097656 155.164062 C 138.566406 155.835938 138.296875 158.15625 136.460938 157.667969 C 133.90625 155.863281 130.78125 159.734375 134.058594 161.054688 C 134.46875 161.097656 134.882812 161.0625 135.289062 160.992188 C 136.902344 160.695312 137.339844 163.230469 135.722656 163.492188 C 132.679688 164.484375 129.492188 161.550781 130.136719 158.445312 Z M 130.132812 158.445312 "/><path style=" stroke:none;fill-rule:nonzero;fill:#6b5239;fill-opacity:1;" d="M 169.261719 157.957031 C 171.730469 153.070312 178.757812 157.195312 176.003906 161.828125 C 173.351562 166.035156 166.78125 162.417969 169.261719 157.957031 Z M 169.261719 157.957031 "/><path style=" stroke:none;fill-rule:nonzero;fill:#6b5239;fill-opacity:1;" d="M 219.613281 157.503906 C 220.496094 153.082031 227.226562 153.527344 227.113281 158.207031 C 226.761719 163.492188 218.867188 162.839844 219.613281 157.503906 Z M 219.613281 157.503906 "/><path style=" stroke:none;fill-rule:nonzero;fill:#6b5239;fill-opacity:1;" d="M 189.074219 161.851562 C 189.917969 161.144531 190.90625 162.050781 191.757812 162.296875 C 192.910156 162.695312 194.066406 163.082031 195.246094 163.378906 C 198.238281 164.023438 201.425781 163.632812 204.25 162.496094 C 204.832031 162.226562 205.394531 161.917969 205.949219 161.589844 C 206.570312 161.144531 207.464844 160.453125 208.082031 161.296875 C 208.878906 162.730469 206.632812 163.34375 205.730469 163.953125 C 203.359375 165.125 200.671875 165.621094 198.035156 165.648438 C 196.328125 165.648438 194.644531 165.320312 193.03125 164.789062 C 191.921875 164.3125 187.894531 163.644531 189.082031 161.855469 Z M 189.074219 161.851562 "/><path style=" stroke:none;fill-rule:nonzero;fill:#ffb39d;fill-opacity:1;" d="M 225.46875 167.910156 C 227.355469 159.25 240.414062 159.996094 240.894531 169.019531 C 240.917969 180.550781 223.59375 179.382812 225.46875 167.910156 Z M 225.46875 167.910156 "/><path style=" stroke:none;fill-rule:nonzero;fill:#ffb39d;fill-opacity:1;" d="M 157.710938 168.480469 C 160.042969 161.8125 170.21875 163.269531 170.488281 170.386719 C 170.167969 180.8125 154.816406 178.632812 157.710938 168.480469 Z M 157.710938 168.480469 "/><path style=" stroke:none;fill-rule:nonzero;fill:#6b5239;fill-opacity:1;" d="M 113.441406 158.382812 C 114.488281 132.761719 124.722656 106.980469 142.976562 88.789062 C 156.546875 76.390625 174.964844 68.503906 193.503906 69.59375 C 195.53125 69.789062 197.679688 69.863281 199.578125 70.628906 C 199.777344 70.742188 199.949219 70.890625 200.085938 71.050781 C 202.039062 69.988281 206.257812 70.300781 207.78125 70.054688 C 215.40625 69.742188 222.957031 71.28125 230.164062 73.671875 C 245.921875 79.335938 258.613281 92.003906 267.109375 106.179688 C 274.640625 119.289062 277.726562 134.390625 279.023438 149.320312 C 280.492188 165.898438 278.863281 183.894531 269.125 197.890625 C 266.289062 201.699219 259.847656 209.691406 254.769531 205.5625 C 253.015625 211.554688 245.398438 216.214844 241.085938 209.851562 C 240.75 209.292969 240.46875 208.707031 240.238281 208.105469 C 239.722656 208.800781 239.238281 209.4375 238.902344 209.933594 C 233.832031 216.511719 223.363281 216.945312 219.578125 208.859375 C 217.769531 205.125 217.359375 195.75 222.589844 194.664062 C 236.441406 192.492188 249.039062 184.828125 255.632812 172.1875 C 257.125 169.773438 258.320312 167.191406 259.699219 164.707031 C 260.535156 163.105469 261.988281 162.097656 263.726562 161.710938 C 265.695312 160.523438 267.621094 158.867188 268.4375 156.660156 C 269.570312 153.058594 268.382812 148.0625 264.296875 147.054688 C 260.992188 146.71875 257.777344 148.265625 254.453125 148.195312 C 244.410156 148.777344 236.875 141.089844 234.765625 131.726562 C 231.109375 141.707031 223.46875 136.832031 220.21875 129.558594 C 221.371094 142.75 211.898438 143.625 205.46875 133.640625 C 201.175781 126.855469 199.414062 118.800781 198.625 110.839844 C 195.917969 117.988281 192.316406 124.808594 187.367188 130.660156 C 183.03125 136.425781 172.585938 141.824219 171.207031 130.957031 C 168.949219 135.300781 163.300781 142.519531 158.0625 138.273438 C 154.855469 144.882812 147.253906 148.304688 140.148438 148.226562 C 136.84375 148.433594 133.332031 149.035156 130.832031 151.386719 C 127.566406 154.480469 126.648438 159.710938 128.503906 163.792969 C 130.386719 168.164062 135.808594 166.65625 139.136719 168.773438 C 144.121094 173.734375 147.636719 180.183594 153.6875 184.066406 C 153.890625 184.234375 154.09375 184.398438 154.300781 184.566406 C 154.300781 184.566406 154.292969 184.558594 154.289062 184.550781 C 155.429688 185.453125 156.621094 186.292969 157.863281 187.035156 C 159.140625 187.800781 160.433594 188.542969 161.761719 189.214844 C 162.667969 189.671875 163.578125 190.117188 164.496094 190.546875 C 165.871094 191.257812 167.246094 191.953125 168.640625 192.628906 C 170.125 193.347656 171.644531 194.019531 173.203125 194.558594 C 174.011719 194.839844 174.828125 195.136719 175.660156 195.367188 C 175.796875 195.402344 175.933594 195.441406 176.078125 195.476562 C 176.019531 196.636719 175.613281 197.921875 175.523438 198.894531 C 174.832031 202.640625 173.765625 206.425781 171.507812 209.542969 C 166.375 217.359375 156.992188 216.4375 151.714844 209.304688 C 150.332031 207.519531 149.363281 205.46875 148.691406 203.3125 C 147.347656 203.699219 145.925781 203.949219 145.195312 204.253906 C 136.796875 206.617188 128.183594 201.875 123.035156 195.375 C 115.296875 186.160156 113.449219 173.953125 113.40625 162.21875 C 113.40625 160.933594 113.417969 159.648438 113.453125 158.378906 Z M 113.441406 158.382812 "/><path style=" stroke:none;fill-rule:nonzero;fill:#6b5239;fill-opacity:1;" d="M 154.332031 184.59375 C 154.332031 184.59375 154.304688 184.574219 154.296875 184.5625 C 154.308594 184.570312 154.324219 184.582031 154.332031 184.59375 Z M 154.332031 184.59375 "/><path style=" stroke:none;fill-rule:nonzero;fill:#6b5239;fill-opacity:1;" d="M 154.386719 184.636719 C 154.386719 184.636719 154.351562 184.609375 154.332031 184.59375 C 154.351562 184.609375 154.371094 184.621094 154.386719 184.636719 Z M 154.386719 184.636719 "/><path style=" stroke:none;fill-rule:nonzero;fill:#fffcf8;fill-opacity:1;" d="M 155.144531 89.644531 C 155.632812 87.542969 157.484375 86.109375 159.183594 84.945312 C 161.78125 82.910156 167.179688 83.265625 166.632812 87.53125 C 165.761719 90.410156 162.648438 92.1875 160.136719 93.535156 C 157.558594 94.816406 154.34375 92.542969 155.144531 89.644531 Z M 155.144531 89.644531 "/><path style=" stroke:none;fill-rule:nonzero;fill:#fffcf8;fill-opacity:1;" d="M 167.980469 79.496094 C 169.15625 76.050781 173.890625 78.613281 172.519531 81.554688 C 171.160156 84.269531 166.914062 82.28125 167.980469 79.496094 Z M 167.980469 79.496094 "/><path style=" stroke:none;fill-rule:nonzero;fill:#fffcf8;fill-opacity:1;" d="M 251.476562 111.167969 C 252.835938 107.625 257.527344 109.152344 258.792969 111.988281 C 259.160156 113.339844 259.484375 115.070312 258.664062 116.328125 C 255.8125 120.089844 250.164062 114.792969 251.476562 111.167969 Z M 251.476562 111.167969 "/><path style=" stroke:none;fill-rule:nonzero;fill:#fffcf8;fill-opacity:1;" d="M 247.582031 102 C 250.015625 99.382812 253.378906 103.792969 250.628906 105.710938 C 248.34375 107.285156 245.769531 103.957031 247.582031 102 Z M 247.582031 102 "/><path style=" stroke:none;fill-rule:nonzero;fill:#fffcf8;fill-opacity:1;" d="M 235.382812 167.476562 C 235.769531 166.925781 236.609375 167.421875 236.320312 168.023438 C 236 168.765625 234.894531 168.113281 235.382812 167.476562 Z M 235.382812 167.476562 "/><path style=" stroke:none;fill-rule:nonzero;fill:#fffcf8;fill-opacity:1;" d="M 228.324219 171.21875 C 229.265625 170.449219 230.859375 171.179688 230.65625 172.453125 C 230.160156 174.867188 226.546875 172.9375 228.324219 171.21875 Z M 228.324219 171.21875 "/><path style=" stroke:none;fill-rule:nonzero;fill:#fffcf8;fill-opacity:1;" d="M 164.386719 168.351562 C 165.445312 167.050781 167.21875 169.207031 165.78125 170.039062 C 164.753906 170.664062 163.652344 169.242188 164.386719 168.351562 Z M 164.386719 168.351562 "/><path style=" stroke:none;fill-rule:nonzero;fill:#fffcf8;fill-opacity:1;" d="M 160.664062 172.265625 C 162.292969 171.046875 163.824219 174.042969 161.757812 174.476562 C 160.484375 174.871094 159.570312 173.039062 160.664062 172.265625 Z M 160.664062 172.265625 "/><path style=" stroke:none;fill-rule:nonzero;fill:#ffb39d;fill-opacity:1;" d="M 196.824219 160.003906 C 197.902344 160.703125 199.390625 160.628906 200.417969 159.878906 C 201.570312 159.050781 200.363281 157.195312 199.207031 158.03125 C 198.726562 158.378906 198.300781 158.34375 197.828125 158.03125 C 197.324219 157.707031 196.59375 158.015625 196.339844 158.511719 C 196.042969 159.085938 196.316406 159.671875 196.820312 160 Z M 196.824219 160.003906 "/><path style=" stroke:none;fill-rule:nonzero;fill:#ffe7c9;fill-opacity:1;" d="M 292.121094 179.195312 C 292.121094 179.195312 274.542969 171.800781 260.09375 185.980469 C 250.207031 195.683594 254.402344 201.132812 261.246094 200.984375 C 261.472656 209.980469 268.648438 216.703125 278.65625 220.011719 C 291.03125 224.097656 303.046875 221.402344 307.132812 209.023438 C 311.222656 196.640625 304.496094 183.285156 292.117188 179.199219 Z M 292.121094 179.195312 "/><path style=" stroke:none;fill-rule:nonzero;fill:#fffcf8;fill-opacity:1;" d="M 305.640625 200.890625 C 305.65625 201.253906 305.640625 201.621094 305.59375 201.984375 C 305.546875 202.347656 305.464844 202.699219 305.351562 203.046875 C 305.238281 203.390625 305.09375 203.722656 304.917969 204.035156 C 304.742188 204.351562 304.542969 204.644531 304.3125 204.914062 C 304.085938 205.1875 303.835938 205.433594 303.5625 205.648438 C 303.285156 205.867188 302.996094 206.054688 302.6875 206.210938 C 302.378906 206.367188 302.058594 206.492188 301.726562 206.578125 C 301.394531 206.667969 301.058594 206.71875 300.71875 206.738281 C 300.375 206.753906 300.035156 206.734375 299.699219 206.679688 C 299.359375 206.625 299.027344 206.535156 298.707031 206.414062 C 298.382812 206.289062 298.074219 206.128906 297.78125 205.941406 C 297.488281 205.75 297.210938 205.535156 296.957031 205.285156 C 296.703125 205.039062 296.472656 204.765625 296.269531 204.472656 C 296.0625 204.175781 295.886719 203.863281 295.738281 203.53125 C 295.589844 203.199219 295.476562 202.855469 295.390625 202.496094 C 295.304688 202.140625 295.253906 201.777344 295.234375 201.414062 C 295.21875 201.046875 295.230469 200.679688 295.28125 200.316406 C 295.328125 199.953125 295.410156 199.601562 295.523438 199.253906 C 295.636719 198.910156 295.78125 198.578125 295.957031 198.265625 C 296.128906 197.949219 296.332031 197.65625 296.558594 197.386719 C 296.789062 197.113281 297.039062 196.867188 297.3125 196.652344 C 297.585938 196.433594 297.878906 196.246094 298.1875 196.089844 C 298.496094 195.933594 298.816406 195.8125 299.148438 195.722656 C 299.476562 195.632812 299.816406 195.582031 300.15625 195.5625 C 300.496094 195.546875 300.839844 195.566406 301.175781 195.621094 C 301.515625 195.675781 301.84375 195.765625 302.167969 195.890625 C 302.492188 196.011719 302.800781 196.171875 303.09375 196.359375 C 303.386719 196.550781 303.660156 196.769531 303.917969 197.015625 C 304.171875 197.261719 304.402344 197.535156 304.605469 197.828125 C 304.8125 198.125 304.988281 198.4375 305.136719 198.769531 C 305.28125 199.101562 305.398438 199.449219 305.484375 199.804688 C 305.570312 200.160156 305.621094 200.523438 305.640625 200.890625 Z M 305.640625 200.890625 "/><path style=" stroke:none;fill-rule:nonzero;fill:#fffcf8;fill-opacity:1;" d="M 302.707031 191.035156 C 302.726562 191.453125 302.65625 191.859375 302.496094 192.253906 C 302.339844 192.644531 302.101562 193 301.785156 193.308594 C 301.46875 193.621094 301.101562 193.867188 300.675781 194.046875 C 300.253906 194.230469 299.808594 194.332031 299.34375 194.355469 C 298.875 194.378906 298.421875 194.320312 297.980469 194.183594 C 297.542969 194.046875 297.152344 193.839844 296.804688 193.5625 C 296.460938 193.28125 296.1875 192.957031 295.992188 192.582031 C 295.792969 192.203125 295.683594 191.808594 295.664062 191.390625 C 295.640625 190.976562 295.710938 190.570312 295.871094 190.175781 C 296.03125 189.78125 296.265625 189.429688 296.582031 189.117188 C 296.898438 188.808594 297.265625 188.5625 297.691406 188.378906 C 298.113281 188.199219 298.558594 188.097656 299.027344 188.074219 C 299.492188 188.050781 299.945312 188.105469 300.386719 188.246094 C 300.824219 188.382812 301.21875 188.589844 301.5625 188.867188 C 301.90625 189.144531 302.179688 189.472656 302.375 189.847656 C 302.574219 190.222656 302.683594 190.621094 302.707031 191.035156 Z M 302.707031 191.035156 "/><path style=" stroke:none;fill-rule:nonzero;fill:#ffb39d;fill-opacity:1;" d="M 263.324219 198.613281 C 263.578125 197.882812 263.902344 197.164062 264.324219 196.546875 C 264.777344 195.886719 264.992188 195.023438 264.628906 194.421875 C 264.324219 193.921875 263.539062 193.832031 263.085938 194.496094 C 262.359375 195.558594 261.769531 196.667969 261.324219 197.949219 C 260.675781 199.824219 262.679688 200.488281 263.332031 198.613281 Z M 263.324219 198.613281 "/><path style=" stroke:none;fill-rule:nonzero;fill:#ffe7c9;fill-opacity:1;" d="M 107.703125 174.09375 C 107.703125 174.09375 125.675781 168.585938 138.4375 183.933594 C 147.171875 194.433594 142.515625 199.355469 135.816406 198.53125 C 134.699219 207.332031 126.992188 213.214844 116.851562 215.460938 C 104.308594 218.238281 92.792969 214.402344 90.015625 201.851562 C 87.238281 189.296875 95.15625 176.875 107.699219 174.09375 Z M 107.703125 174.09375 "/><path style=" stroke:none;fill-rule:nonzero;fill:#fffcf8;fill-opacity:1;" d="M 98.203125 189.363281 C 98.539062 189.414062 98.863281 189.496094 99.179688 189.617188 C 99.496094 189.738281 99.796875 189.890625 100.082031 190.074219 C 100.371094 190.257812 100.636719 190.46875 100.882812 190.710938 C 101.132812 190.953125 101.355469 191.214844 101.550781 191.503906 C 101.746094 191.792969 101.917969 192.101562 102.054688 192.429688 C 102.195312 192.753906 102.304688 193.09375 102.382812 193.441406 C 102.457031 193.792969 102.503906 194.148438 102.515625 194.507812 C 102.527344 194.871094 102.503906 195.230469 102.449219 195.589844 C 102.394531 195.945312 102.308594 196.296875 102.191406 196.636719 C 102.074219 196.976562 101.925781 197.304688 101.746094 197.617188 C 101.570312 197.925781 101.363281 198.21875 101.132812 198.488281 C 100.902344 198.757812 100.652344 199 100.375 199.21875 C 100.101562 199.433594 99.8125 199.621094 99.503906 199.777344 C 99.195312 199.933594 98.878906 200.058594 98.550781 200.148438 C 98.222656 200.238281 97.886719 200.292969 97.550781 200.3125 C 97.214844 200.332031 96.878906 200.316406 96.542969 200.265625 C 96.210938 200.214844 95.886719 200.132812 95.570312 200.011719 C 95.253906 199.890625 94.953125 199.738281 94.664062 199.554688 C 94.378906 199.371094 94.113281 199.160156 93.863281 198.917969 C 93.617188 198.675781 93.394531 198.410156 93.199219 198.121094 C 93 197.832031 92.832031 197.527344 92.691406 197.199219 C 92.554688 196.875 92.445312 196.535156 92.367188 196.1875 C 92.289062 195.835938 92.246094 195.480469 92.234375 195.121094 C 92.222656 194.757812 92.246094 194.398438 92.300781 194.039062 C 92.351562 193.683594 92.441406 193.332031 92.558594 192.992188 C 92.675781 192.652344 92.824219 192.324219 93.003906 192.011719 C 93.179688 191.703125 93.386719 191.410156 93.617188 191.140625 C 93.847656 190.871094 94.097656 190.628906 94.371094 190.410156 C 94.648438 190.195312 94.9375 190.007812 95.246094 189.851562 C 95.550781 189.695312 95.871094 189.570312 96.199219 189.480469 C 96.527344 189.390625 96.859375 189.335938 97.199219 189.316406 C 97.535156 189.296875 97.871094 189.3125 98.203125 189.363281 Z M 98.203125 189.363281 "/><path style=" stroke:none;fill-rule:nonzero;fill:#fffcf8;fill-opacity:1;" d="M 100.058594 182.128906 C 100.515625 182.195312 100.941406 182.339844 101.339844 182.5625 C 101.734375 182.78125 102.074219 183.058594 102.351562 183.394531 C 102.628906 183.730469 102.828125 184.101562 102.945312 184.503906 C 103.0625 184.90625 103.089844 185.308594 103.027344 185.714844 C 102.964844 186.121094 102.820312 186.5 102.589844 186.847656 C 102.355469 187.195312 102.058594 187.488281 101.691406 187.726562 C 101.328125 187.964844 100.921875 188.132812 100.476562 188.222656 C 100.03125 188.3125 99.582031 188.324219 99.125 188.253906 C 98.671875 188.1875 98.246094 188.042969 97.847656 187.820312 C 97.449219 187.601562 97.113281 187.324219 96.832031 186.988281 C 96.554688 186.652344 96.359375 186.28125 96.242188 185.878906 C 96.125 185.476562 96.09375 185.074219 96.15625 184.667969 C 96.21875 184.261719 96.367188 183.882812 96.597656 183.535156 C 96.828125 183.1875 97.128906 182.894531 97.492188 182.65625 C 97.859375 182.417969 98.265625 182.25 98.707031 182.160156 C 99.152344 182.070312 99.605469 182.058594 100.058594 182.128906 Z M 100.058594 182.128906 "/><path style=" stroke:none;fill-rule:nonzero;fill:#ffb39d;fill-opacity:1;" d="M 134.015625 196 C 133.84375 195.261719 133.59375 194.519531 133.242188 193.878906 C 132.863281 193.183594 132.742188 192.320312 133.15625 191.765625 C 133.5 191.304688 134.285156 191.292969 134.664062 191.992188 C 135.269531 193.105469 135.742188 194.25 136.046875 195.550781 C 136.492188 197.460938 134.464844 197.90625 134.011719 196.003906 Z M 134.015625 196 "/><path style=" stroke:none;fill-rule:nonzero;fill:#546ac7;fill-opacity:1;" d="M 150.855469 110.378906 C 147.46875 111.992188 145.390625 115.558594 145.300781 119.210938 C 145.199219 120.511719 144.53125 120.125 143.695312 119.578125 C 140.8125 117.484375 137.15625 117.351562 134.171875 118.722656 C 130.089844 120.503906 127.226562 124.972656 128.207031 129.496094 C 130.378906 140.175781 144.527344 140.144531 147.617188 130.507812 C 147.917969 129.601562 147.914062 128.175781 148.082031 127.484375 C 148.117188 127.367188 148.160156 127.253906 148.234375 127.164062 C 148.691406 126.621094 150.074219 127.949219 150.820312 128.25 C 151.015625 128.351562 151.214844 128.445312 151.414062 128.53125 C 160.472656 132.097656 169.425781 121.5 163.117188 113.277344 C 160.34375 109.546875 155.058594 108.273438 150.886719 110.371094 L 150.855469 110.382812 Z M 150.855469 110.378906 "/><path style=" stroke:none;fill-rule:nonzero;fill:#fffcf8;fill-opacity:1;" d="M 159.832031 114.335938 C 159.832031 114.820312 159.738281 115.285156 159.554688 115.734375 C 159.367188 116.183594 159.105469 116.578125 158.761719 116.917969 C 158.421875 117.261719 158.027344 117.527344 157.578125 117.710938 C 157.132812 117.894531 156.664062 117.988281 156.179688 117.988281 C 155.699219 117.988281 155.230469 117.894531 154.785156 117.710938 C 154.335938 117.527344 153.941406 117.261719 153.601562 116.917969 C 153.257812 116.578125 152.996094 116.183594 152.808594 115.734375 C 152.625 115.285156 152.53125 114.820312 152.53125 114.335938 C 152.53125 113.851562 152.625 113.386719 152.808594 112.9375 C 152.996094 112.492188 153.257812 112.097656 153.601562 111.753906 C 153.941406 111.410156 154.335938 111.148438 154.785156 110.960938 C 155.230469 110.777344 155.699219 110.683594 156.179688 110.683594 C 156.664062 110.683594 157.132812 110.777344 157.578125 110.960938 C 158.027344 111.148438 158.421875 111.410156 158.761719 111.753906 C 159.105469 112.097656 159.367188 112.492188 159.554688 112.9375 C 159.738281 113.386719 159.832031 113.851562 159.832031 114.335938 Z M 159.832031 114.335938 "/></g></svg>